G75*
%MOIN*%
%OFA0B0*%
%FSLAX25Y25*%
%IPPOS*%
%LPD*%
%AMOC8*
5,1,8,0,0,1.08239X$1,22.5*
%
%ADD10C,0.01000*%
%ADD11C,0.01200*%
%ADD12C,0.00400*%
%ADD13C,0.00800*%
%ADD14C,0.00600*%
%ADD15C,0.00200*%
%ADD16C,0.00500*%
%ADD17R,0.03400X0.02400*%
%ADD18R,0.01500X0.02000*%
%ADD19C,0.00060*%
%ADD20C,0.02000*%
D10*
X0078676Y0063307D02*
X0254676Y0063307D01*
X0254676Y0273307D01*
X0078676Y0273307D01*
X0107676Y0137807D02*
X0107489Y0138050D01*
X0107297Y0138288D01*
X0107098Y0138521D01*
X0106894Y0138749D01*
X0106685Y0138972D01*
X0106470Y0139190D01*
X0106250Y0139403D01*
X0106025Y0139610D01*
X0105794Y0139812D01*
X0105559Y0140008D01*
X0105319Y0140198D01*
X0105075Y0140382D01*
X0104826Y0140560D01*
X0104572Y0140732D01*
X0104315Y0140898D01*
X0104054Y0141058D01*
X0103789Y0141211D01*
X0103520Y0141357D01*
X0103247Y0141497D01*
X0102972Y0141630D01*
X0102693Y0141756D01*
X0102411Y0141876D01*
X0102126Y0141988D01*
X0101839Y0142093D01*
X0101549Y0142192D01*
X0101257Y0142283D01*
X0100962Y0142367D01*
X0100666Y0142444D01*
X0100368Y0142514D01*
X0100068Y0142576D01*
X0099767Y0142631D01*
X0099465Y0142678D01*
X0099161Y0142718D01*
X0098857Y0142751D01*
X0098552Y0142776D01*
X0098246Y0142794D01*
X0097940Y0142804D01*
X0097634Y0142807D01*
X0097328Y0142802D01*
X0097022Y0142790D01*
X0096716Y0142770D01*
X0096412Y0142743D01*
X0096107Y0142708D01*
X0095804Y0142666D01*
X0095502Y0142617D01*
X0095201Y0142560D01*
X0094902Y0142495D01*
X0094604Y0142424D01*
X0094309Y0142345D01*
X0094015Y0142259D01*
X0093723Y0142166D01*
X0093434Y0142065D01*
X0093147Y0141958D01*
X0092863Y0141843D01*
X0092582Y0141722D01*
X0092304Y0141594D01*
X0092029Y0141459D01*
X0091758Y0141317D01*
X0091490Y0141169D01*
X0091226Y0141014D01*
X0090966Y0140853D01*
X0090710Y0140686D01*
X0090457Y0140512D01*
X0090210Y0140332D01*
X0089966Y0140146D01*
X0089728Y0139955D01*
X0089494Y0139757D01*
X0089265Y0139554D01*
X0089041Y0139345D01*
X0088822Y0139131D01*
X0088609Y0138911D01*
X0088401Y0138687D01*
X0088198Y0138457D01*
X0088002Y0138223D01*
X0087811Y0137983D01*
X0087626Y0137740D01*
X0087447Y0137491D01*
X0087274Y0137239D01*
X0087107Y0136982D01*
X0086947Y0136721D01*
X0086793Y0136456D01*
X0086646Y0136188D01*
X0086505Y0135916D01*
X0086371Y0135641D01*
X0086244Y0135362D01*
X0086123Y0135081D01*
X0086010Y0134796D01*
X0085904Y0134509D01*
X0085804Y0134220D01*
X0085712Y0133928D01*
X0085627Y0133634D01*
X0085549Y0133338D01*
X0085478Y0133040D01*
X0085415Y0132740D01*
X0085359Y0132439D01*
X0085311Y0132137D01*
X0085270Y0131834D01*
X0085236Y0131530D01*
X0085210Y0131225D01*
X0085191Y0130919D01*
X0085180Y0130613D01*
X0085176Y0130307D01*
X0085180Y0130001D01*
X0085191Y0129695D01*
X0085210Y0129389D01*
X0085236Y0129084D01*
X0085270Y0128780D01*
X0085311Y0128477D01*
X0085359Y0128175D01*
X0085415Y0127874D01*
X0085478Y0127574D01*
X0085549Y0127276D01*
X0085627Y0126980D01*
X0085712Y0126686D01*
X0085804Y0126394D01*
X0085904Y0126105D01*
X0086010Y0125818D01*
X0086123Y0125533D01*
X0086244Y0125252D01*
X0086371Y0124973D01*
X0086505Y0124698D01*
X0086646Y0124426D01*
X0086793Y0124158D01*
X0086947Y0123893D01*
X0087107Y0123632D01*
X0087274Y0123375D01*
X0087447Y0123123D01*
X0087626Y0122874D01*
X0087811Y0122631D01*
X0088002Y0122391D01*
X0088198Y0122157D01*
X0088401Y0121927D01*
X0088609Y0121703D01*
X0088822Y0121483D01*
X0089041Y0121269D01*
X0089265Y0121060D01*
X0089494Y0120857D01*
X0089728Y0120659D01*
X0089966Y0120468D01*
X0090210Y0120282D01*
X0090457Y0120102D01*
X0090710Y0119928D01*
X0090966Y0119761D01*
X0091226Y0119600D01*
X0091490Y0119445D01*
X0091758Y0119297D01*
X0092029Y0119155D01*
X0092304Y0119020D01*
X0092582Y0118892D01*
X0092863Y0118771D01*
X0093147Y0118656D01*
X0093434Y0118549D01*
X0093723Y0118448D01*
X0094015Y0118355D01*
X0094309Y0118269D01*
X0094604Y0118190D01*
X0094902Y0118119D01*
X0095201Y0118054D01*
X0095502Y0117997D01*
X0095804Y0117948D01*
X0096107Y0117906D01*
X0096412Y0117871D01*
X0096716Y0117844D01*
X0097022Y0117824D01*
X0097328Y0117812D01*
X0097634Y0117807D01*
X0097940Y0117810D01*
X0098246Y0117820D01*
X0098552Y0117838D01*
X0098857Y0117863D01*
X0099161Y0117896D01*
X0099465Y0117936D01*
X0099767Y0117983D01*
X0100068Y0118038D01*
X0100368Y0118100D01*
X0100666Y0118170D01*
X0100962Y0118247D01*
X0101257Y0118331D01*
X0101549Y0118422D01*
X0101839Y0118521D01*
X0102126Y0118626D01*
X0102411Y0118738D01*
X0102693Y0118858D01*
X0102972Y0118984D01*
X0103247Y0119117D01*
X0103520Y0119257D01*
X0103789Y0119403D01*
X0104054Y0119556D01*
X0104315Y0119716D01*
X0104572Y0119882D01*
X0104826Y0120054D01*
X0105075Y0120232D01*
X0105319Y0120416D01*
X0105559Y0120606D01*
X0105794Y0120802D01*
X0106025Y0121004D01*
X0106250Y0121211D01*
X0106470Y0121424D01*
X0106685Y0121642D01*
X0106894Y0121865D01*
X0107098Y0122093D01*
X0107297Y0122326D01*
X0107489Y0122564D01*
X0107676Y0122807D01*
X0107676Y0106807D02*
X0107489Y0107050D01*
X0107297Y0107288D01*
X0107098Y0107521D01*
X0106894Y0107749D01*
X0106685Y0107972D01*
X0106470Y0108190D01*
X0106250Y0108403D01*
X0106025Y0108610D01*
X0105794Y0108812D01*
X0105559Y0109008D01*
X0105319Y0109198D01*
X0105075Y0109382D01*
X0104826Y0109560D01*
X0104572Y0109732D01*
X0104315Y0109898D01*
X0104054Y0110058D01*
X0103789Y0110211D01*
X0103520Y0110357D01*
X0103247Y0110497D01*
X0102972Y0110630D01*
X0102693Y0110756D01*
X0102411Y0110876D01*
X0102126Y0110988D01*
X0101839Y0111093D01*
X0101549Y0111192D01*
X0101257Y0111283D01*
X0100962Y0111367D01*
X0100666Y0111444D01*
X0100368Y0111514D01*
X0100068Y0111576D01*
X0099767Y0111631D01*
X0099465Y0111678D01*
X0099161Y0111718D01*
X0098857Y0111751D01*
X0098552Y0111776D01*
X0098246Y0111794D01*
X0097940Y0111804D01*
X0097634Y0111807D01*
X0097328Y0111802D01*
X0097022Y0111790D01*
X0096716Y0111770D01*
X0096412Y0111743D01*
X0096107Y0111708D01*
X0095804Y0111666D01*
X0095502Y0111617D01*
X0095201Y0111560D01*
X0094902Y0111495D01*
X0094604Y0111424D01*
X0094309Y0111345D01*
X0094015Y0111259D01*
X0093723Y0111166D01*
X0093434Y0111065D01*
X0093147Y0110958D01*
X0092863Y0110843D01*
X0092582Y0110722D01*
X0092304Y0110594D01*
X0092029Y0110459D01*
X0091758Y0110317D01*
X0091490Y0110169D01*
X0091226Y0110014D01*
X0090966Y0109853D01*
X0090710Y0109686D01*
X0090457Y0109512D01*
X0090210Y0109332D01*
X0089966Y0109146D01*
X0089728Y0108955D01*
X0089494Y0108757D01*
X0089265Y0108554D01*
X0089041Y0108345D01*
X0088822Y0108131D01*
X0088609Y0107911D01*
X0088401Y0107687D01*
X0088198Y0107457D01*
X0088002Y0107223D01*
X0087811Y0106983D01*
X0087626Y0106740D01*
X0087447Y0106491D01*
X0087274Y0106239D01*
X0087107Y0105982D01*
X0086947Y0105721D01*
X0086793Y0105456D01*
X0086646Y0105188D01*
X0086505Y0104916D01*
X0086371Y0104641D01*
X0086244Y0104362D01*
X0086123Y0104081D01*
X0086010Y0103796D01*
X0085904Y0103509D01*
X0085804Y0103220D01*
X0085712Y0102928D01*
X0085627Y0102634D01*
X0085549Y0102338D01*
X0085478Y0102040D01*
X0085415Y0101740D01*
X0085359Y0101439D01*
X0085311Y0101137D01*
X0085270Y0100834D01*
X0085236Y0100530D01*
X0085210Y0100225D01*
X0085191Y0099919D01*
X0085180Y0099613D01*
X0085176Y0099307D01*
X0085180Y0099001D01*
X0085191Y0098695D01*
X0085210Y0098389D01*
X0085236Y0098084D01*
X0085270Y0097780D01*
X0085311Y0097477D01*
X0085359Y0097175D01*
X0085415Y0096874D01*
X0085478Y0096574D01*
X0085549Y0096276D01*
X0085627Y0095980D01*
X0085712Y0095686D01*
X0085804Y0095394D01*
X0085904Y0095105D01*
X0086010Y0094818D01*
X0086123Y0094533D01*
X0086244Y0094252D01*
X0086371Y0093973D01*
X0086505Y0093698D01*
X0086646Y0093426D01*
X0086793Y0093158D01*
X0086947Y0092893D01*
X0087107Y0092632D01*
X0087274Y0092375D01*
X0087447Y0092123D01*
X0087626Y0091874D01*
X0087811Y0091631D01*
X0088002Y0091391D01*
X0088198Y0091157D01*
X0088401Y0090927D01*
X0088609Y0090703D01*
X0088822Y0090483D01*
X0089041Y0090269D01*
X0089265Y0090060D01*
X0089494Y0089857D01*
X0089728Y0089659D01*
X0089966Y0089468D01*
X0090210Y0089282D01*
X0090457Y0089102D01*
X0090710Y0088928D01*
X0090966Y0088761D01*
X0091226Y0088600D01*
X0091490Y0088445D01*
X0091758Y0088297D01*
X0092029Y0088155D01*
X0092304Y0088020D01*
X0092582Y0087892D01*
X0092863Y0087771D01*
X0093147Y0087656D01*
X0093434Y0087549D01*
X0093723Y0087448D01*
X0094015Y0087355D01*
X0094309Y0087269D01*
X0094604Y0087190D01*
X0094902Y0087119D01*
X0095201Y0087054D01*
X0095502Y0086997D01*
X0095804Y0086948D01*
X0096107Y0086906D01*
X0096412Y0086871D01*
X0096716Y0086844D01*
X0097022Y0086824D01*
X0097328Y0086812D01*
X0097634Y0086807D01*
X0097940Y0086810D01*
X0098246Y0086820D01*
X0098552Y0086838D01*
X0098857Y0086863D01*
X0099161Y0086896D01*
X0099465Y0086936D01*
X0099767Y0086983D01*
X0100068Y0087038D01*
X0100368Y0087100D01*
X0100666Y0087170D01*
X0100962Y0087247D01*
X0101257Y0087331D01*
X0101549Y0087422D01*
X0101839Y0087521D01*
X0102126Y0087626D01*
X0102411Y0087738D01*
X0102693Y0087858D01*
X0102972Y0087984D01*
X0103247Y0088117D01*
X0103520Y0088257D01*
X0103789Y0088403D01*
X0104054Y0088556D01*
X0104315Y0088716D01*
X0104572Y0088882D01*
X0104826Y0089054D01*
X0105075Y0089232D01*
X0105319Y0089416D01*
X0105559Y0089606D01*
X0105794Y0089802D01*
X0106025Y0090004D01*
X0106250Y0090211D01*
X0106470Y0090424D01*
X0106685Y0090642D01*
X0106894Y0090865D01*
X0107098Y0091093D01*
X0107297Y0091326D01*
X0107489Y0091564D01*
X0107676Y0091807D01*
X0206848Y0120307D02*
X0206850Y0120413D01*
X0206856Y0120518D01*
X0206866Y0120624D01*
X0206880Y0120728D01*
X0206897Y0120833D01*
X0206919Y0120936D01*
X0206944Y0121039D01*
X0206974Y0121141D01*
X0207007Y0121241D01*
X0207043Y0121340D01*
X0207084Y0121438D01*
X0207128Y0121534D01*
X0207176Y0121628D01*
X0207227Y0121721D01*
X0207281Y0121812D01*
X0207339Y0121900D01*
X0207401Y0121986D01*
X0207465Y0122070D01*
X0207532Y0122152D01*
X0207603Y0122231D01*
X0207676Y0122307D01*
X0207752Y0122380D01*
X0207831Y0122451D01*
X0207913Y0122518D01*
X0207997Y0122582D01*
X0208083Y0122644D01*
X0208171Y0122702D01*
X0208262Y0122756D01*
X0208355Y0122807D01*
X0208449Y0122855D01*
X0208545Y0122899D01*
X0208643Y0122940D01*
X0208742Y0122976D01*
X0208842Y0123009D01*
X0208944Y0123039D01*
X0209047Y0123064D01*
X0209150Y0123086D01*
X0209255Y0123103D01*
X0209359Y0123117D01*
X0209465Y0123127D01*
X0209570Y0123133D01*
X0209676Y0123135D01*
X0209782Y0123133D01*
X0209887Y0123127D01*
X0209993Y0123117D01*
X0210097Y0123103D01*
X0210202Y0123086D01*
X0210305Y0123064D01*
X0210408Y0123039D01*
X0210510Y0123009D01*
X0210610Y0122976D01*
X0210709Y0122940D01*
X0210807Y0122899D01*
X0210903Y0122855D01*
X0210997Y0122807D01*
X0211090Y0122756D01*
X0211181Y0122702D01*
X0211269Y0122644D01*
X0211355Y0122582D01*
X0211439Y0122518D01*
X0211521Y0122451D01*
X0211600Y0122380D01*
X0211676Y0122307D01*
X0211749Y0122231D01*
X0211820Y0122152D01*
X0211887Y0122070D01*
X0211951Y0121986D01*
X0212013Y0121900D01*
X0212071Y0121812D01*
X0212125Y0121721D01*
X0212176Y0121628D01*
X0212224Y0121534D01*
X0212268Y0121438D01*
X0212309Y0121340D01*
X0212345Y0121241D01*
X0212378Y0121141D01*
X0212408Y0121039D01*
X0212433Y0120936D01*
X0212455Y0120833D01*
X0212472Y0120728D01*
X0212486Y0120624D01*
X0212496Y0120518D01*
X0212502Y0120413D01*
X0212504Y0120307D01*
X0212502Y0120201D01*
X0212496Y0120096D01*
X0212486Y0119990D01*
X0212472Y0119886D01*
X0212455Y0119781D01*
X0212433Y0119678D01*
X0212408Y0119575D01*
X0212378Y0119473D01*
X0212345Y0119373D01*
X0212309Y0119274D01*
X0212268Y0119176D01*
X0212224Y0119080D01*
X0212176Y0118986D01*
X0212125Y0118893D01*
X0212071Y0118802D01*
X0212013Y0118714D01*
X0211951Y0118628D01*
X0211887Y0118544D01*
X0211820Y0118462D01*
X0211749Y0118383D01*
X0211676Y0118307D01*
X0211600Y0118234D01*
X0211521Y0118163D01*
X0211439Y0118096D01*
X0211355Y0118032D01*
X0211269Y0117970D01*
X0211181Y0117912D01*
X0211090Y0117858D01*
X0210997Y0117807D01*
X0210903Y0117759D01*
X0210807Y0117715D01*
X0210709Y0117674D01*
X0210610Y0117638D01*
X0210510Y0117605D01*
X0210408Y0117575D01*
X0210305Y0117550D01*
X0210202Y0117528D01*
X0210097Y0117511D01*
X0209993Y0117497D01*
X0209887Y0117487D01*
X0209782Y0117481D01*
X0209676Y0117479D01*
X0209570Y0117481D01*
X0209465Y0117487D01*
X0209359Y0117497D01*
X0209255Y0117511D01*
X0209150Y0117528D01*
X0209047Y0117550D01*
X0208944Y0117575D01*
X0208842Y0117605D01*
X0208742Y0117638D01*
X0208643Y0117674D01*
X0208545Y0117715D01*
X0208449Y0117759D01*
X0208355Y0117807D01*
X0208262Y0117858D01*
X0208171Y0117912D01*
X0208083Y0117970D01*
X0207997Y0118032D01*
X0207913Y0118096D01*
X0207831Y0118163D01*
X0207752Y0118234D01*
X0207676Y0118307D01*
X0207603Y0118383D01*
X0207532Y0118462D01*
X0207465Y0118544D01*
X0207401Y0118628D01*
X0207339Y0118714D01*
X0207281Y0118802D01*
X0207227Y0118893D01*
X0207176Y0118986D01*
X0207128Y0119080D01*
X0207084Y0119176D01*
X0207043Y0119274D01*
X0207007Y0119373D01*
X0206974Y0119473D01*
X0206944Y0119575D01*
X0206919Y0119678D01*
X0206897Y0119781D01*
X0206880Y0119886D01*
X0206866Y0119990D01*
X0206856Y0120096D01*
X0206850Y0120201D01*
X0206848Y0120307D01*
D11*
X0078676Y0063307D02*
X0078676Y0273307D01*
X0160676Y0177607D02*
X0163676Y0177607D01*
X0166676Y0177607D01*
X0166676Y0175107D02*
X0163676Y0175107D01*
X0160676Y0175107D01*
X0123676Y0095307D02*
X0121676Y0093307D01*
D12*
X0105575Y0086010D02*
X0105575Y0085426D01*
X0104408Y0084259D01*
X0104408Y0082507D01*
X0104408Y0084259D02*
X0103240Y0085426D01*
X0103240Y0086010D01*
X0101984Y0085426D02*
X0101984Y0083091D01*
X0101400Y0082507D01*
X0099649Y0082507D01*
X0099649Y0086010D01*
X0101400Y0086010D01*
X0101984Y0085426D01*
X0098393Y0084842D02*
X0098393Y0082507D01*
X0098393Y0084259D02*
X0096058Y0084259D01*
X0096058Y0084842D02*
X0097225Y0086010D01*
X0098393Y0084842D01*
X0096058Y0084842D02*
X0096058Y0082507D01*
X0094802Y0082507D02*
X0092467Y0082507D01*
X0092467Y0086010D01*
X0094802Y0086010D01*
X0093634Y0084259D02*
X0092467Y0084259D01*
X0091211Y0084259D02*
X0091211Y0085426D01*
X0090627Y0086010D01*
X0088876Y0086010D01*
X0088876Y0082507D01*
X0088876Y0083675D02*
X0090627Y0083675D01*
X0091211Y0084259D01*
X0090043Y0083675D02*
X0091211Y0082507D01*
X0090876Y0113507D02*
X0092627Y0113507D01*
X0093211Y0114091D01*
X0093211Y0114675D01*
X0092627Y0115259D01*
X0090876Y0115259D01*
X0090876Y0117010D02*
X0090876Y0113507D01*
X0092627Y0115259D02*
X0093211Y0115842D01*
X0093211Y0116426D01*
X0092627Y0117010D01*
X0090876Y0117010D01*
X0094467Y0117010D02*
X0094467Y0114091D01*
X0095050Y0113507D01*
X0096218Y0113507D01*
X0096802Y0114091D01*
X0096802Y0117010D01*
X0098058Y0117010D02*
X0098058Y0113507D01*
X0098058Y0114675D02*
X0099809Y0114675D01*
X0100393Y0115259D01*
X0100393Y0116426D01*
X0099809Y0117010D01*
X0098058Y0117010D01*
X0099225Y0114675D02*
X0100393Y0113507D01*
X0101649Y0113507D02*
X0101649Y0117010D01*
X0103984Y0113507D01*
X0103984Y0117010D01*
X0168693Y0109010D02*
X0168693Y0105507D01*
X0168693Y0106675D02*
X0170445Y0106675D01*
X0171029Y0107259D01*
X0171029Y0108426D01*
X0170445Y0109010D01*
X0168693Y0109010D01*
X0169861Y0106675D02*
X0171029Y0105507D01*
X0172285Y0106091D02*
X0172868Y0105507D01*
X0174036Y0105507D01*
X0174620Y0106091D01*
X0174620Y0107259D01*
X0174036Y0107842D01*
X0173452Y0107842D01*
X0172285Y0107259D01*
X0172285Y0109010D01*
X0174620Y0109010D01*
X0173634Y0095110D02*
X0173634Y0091607D01*
X0172467Y0091607D02*
X0174802Y0091607D01*
X0172467Y0093942D02*
X0173634Y0095110D01*
X0171211Y0094526D02*
X0171211Y0093359D01*
X0170627Y0092775D01*
X0168876Y0092775D01*
X0170043Y0092775D02*
X0171211Y0091607D01*
X0168876Y0091607D02*
X0168876Y0095110D01*
X0170627Y0095110D01*
X0171211Y0094526D01*
X0091348Y0182527D02*
X0091932Y0183111D01*
X0091932Y0184278D01*
X0091348Y0184862D01*
X0090765Y0184862D01*
X0090181Y0184278D01*
X0090181Y0183111D01*
X0089597Y0182527D01*
X0089013Y0182527D01*
X0088429Y0183111D01*
X0088429Y0184278D01*
X0089013Y0184862D01*
X0088429Y0186118D02*
X0091932Y0186118D01*
X0090765Y0187285D01*
X0091932Y0188453D01*
X0088429Y0188453D01*
X0089597Y0189709D02*
X0088429Y0190877D01*
X0091932Y0190877D01*
X0091932Y0192044D02*
X0091932Y0189709D01*
D13*
X0103076Y0189207D02*
X0103076Y0193344D01*
X0105144Y0195412D01*
X0107212Y0193344D01*
X0107212Y0189207D01*
X0107212Y0192310D02*
X0103076Y0192310D01*
X0109521Y0195412D02*
X0113658Y0195412D01*
X0111590Y0195412D02*
X0111590Y0189207D01*
X0112624Y0182844D02*
X0110555Y0182844D01*
X0109521Y0181810D01*
X0109521Y0179741D01*
X0110555Y0178707D01*
X0112624Y0178707D01*
X0113658Y0179741D01*
X0113658Y0181810D01*
X0112624Y0182844D01*
X0117001Y0182844D02*
X0119069Y0182844D01*
X0120103Y0181810D01*
X0120103Y0178707D01*
X0117001Y0178707D01*
X0115967Y0179741D01*
X0117001Y0180776D01*
X0120103Y0180776D01*
X0122412Y0180776D02*
X0124481Y0182844D01*
X0125515Y0182844D01*
X0127783Y0181810D02*
X0127783Y0179741D01*
X0128818Y0178707D01*
X0131920Y0178707D01*
X0131920Y0184912D01*
X0131920Y0182844D02*
X0128818Y0182844D01*
X0127783Y0181810D01*
X0122412Y0182844D02*
X0122412Y0178707D01*
X0122412Y0189207D02*
X0122412Y0195412D01*
X0125515Y0195412D01*
X0126549Y0194378D01*
X0126549Y0192310D01*
X0125515Y0191276D01*
X0122412Y0191276D01*
X0124481Y0191276D02*
X0126549Y0189207D01*
X0128858Y0190241D02*
X0128858Y0192310D01*
X0129892Y0193344D01*
X0131960Y0193344D01*
X0132994Y0192310D01*
X0132994Y0191276D01*
X0128858Y0191276D01*
X0128858Y0190241D02*
X0129892Y0189207D01*
X0131960Y0189207D01*
X0135303Y0189207D02*
X0138406Y0189207D01*
X0139440Y0190241D01*
X0138406Y0191276D01*
X0136337Y0191276D01*
X0135303Y0192310D01*
X0136337Y0193344D01*
X0139440Y0193344D01*
X0141749Y0192310D02*
X0141749Y0190241D01*
X0142783Y0189207D01*
X0145885Y0189207D01*
X0148194Y0190241D02*
X0149228Y0189207D01*
X0152331Y0189207D01*
X0152331Y0193344D01*
X0154640Y0192310D02*
X0155674Y0193344D01*
X0157742Y0193344D01*
X0158776Y0192310D01*
X0158776Y0191276D01*
X0154640Y0191276D01*
X0154640Y0192310D02*
X0154640Y0190241D01*
X0155674Y0189207D01*
X0157742Y0189207D01*
X0153445Y0184912D02*
X0154479Y0183878D01*
X0150343Y0179741D01*
X0151377Y0178707D01*
X0153445Y0178707D01*
X0154479Y0179741D01*
X0154479Y0183878D01*
X0153445Y0184912D02*
X0151377Y0184912D01*
X0150343Y0183878D01*
X0150343Y0179741D01*
X0148154Y0179741D02*
X0148154Y0178707D01*
X0147120Y0178707D01*
X0147120Y0179741D01*
X0148154Y0179741D01*
X0144811Y0178707D02*
X0140674Y0178707D01*
X0142743Y0178707D02*
X0142743Y0184912D01*
X0140674Y0182844D01*
X0141749Y0192310D02*
X0142783Y0193344D01*
X0145885Y0193344D01*
X0148194Y0193344D02*
X0148194Y0190241D01*
X0174676Y0186807D02*
X0174676Y0179307D01*
X0174802Y0179305D01*
X0174927Y0179299D01*
X0175052Y0179289D01*
X0175177Y0179275D01*
X0175302Y0179258D01*
X0175426Y0179236D01*
X0175549Y0179211D01*
X0175671Y0179181D01*
X0175792Y0179148D01*
X0175912Y0179111D01*
X0176031Y0179071D01*
X0176148Y0179026D01*
X0176265Y0178978D01*
X0176379Y0178926D01*
X0176492Y0178871D01*
X0176603Y0178812D01*
X0176712Y0178750D01*
X0176819Y0178684D01*
X0176924Y0178615D01*
X0177027Y0178543D01*
X0177128Y0178468D01*
X0177226Y0178389D01*
X0177321Y0178307D01*
X0177414Y0178223D01*
X0177504Y0178135D01*
X0177592Y0178045D01*
X0177676Y0177952D01*
X0177758Y0177857D01*
X0177837Y0177759D01*
X0177912Y0177658D01*
X0177984Y0177555D01*
X0178053Y0177450D01*
X0178119Y0177343D01*
X0178181Y0177234D01*
X0178240Y0177123D01*
X0178295Y0177010D01*
X0178347Y0176896D01*
X0178395Y0176779D01*
X0178440Y0176662D01*
X0178480Y0176543D01*
X0178517Y0176423D01*
X0178550Y0176302D01*
X0178580Y0176180D01*
X0178605Y0176057D01*
X0178627Y0175933D01*
X0178644Y0175808D01*
X0178658Y0175683D01*
X0178668Y0175558D01*
X0178674Y0175433D01*
X0178676Y0175307D01*
X0178674Y0175181D01*
X0178668Y0175056D01*
X0178658Y0174931D01*
X0178644Y0174806D01*
X0178627Y0174681D01*
X0178605Y0174557D01*
X0178580Y0174434D01*
X0178550Y0174312D01*
X0178517Y0174191D01*
X0178480Y0174071D01*
X0178440Y0173952D01*
X0178395Y0173835D01*
X0178347Y0173718D01*
X0178295Y0173604D01*
X0178240Y0173491D01*
X0178181Y0173380D01*
X0178119Y0173271D01*
X0178053Y0173164D01*
X0177984Y0173059D01*
X0177912Y0172956D01*
X0177837Y0172855D01*
X0177758Y0172757D01*
X0177676Y0172662D01*
X0177592Y0172569D01*
X0177504Y0172479D01*
X0177414Y0172391D01*
X0177321Y0172307D01*
X0177226Y0172225D01*
X0177128Y0172146D01*
X0177027Y0172071D01*
X0176924Y0171999D01*
X0176819Y0171930D01*
X0176712Y0171864D01*
X0176603Y0171802D01*
X0176492Y0171743D01*
X0176379Y0171688D01*
X0176265Y0171636D01*
X0176148Y0171588D01*
X0176031Y0171543D01*
X0175912Y0171503D01*
X0175792Y0171466D01*
X0175671Y0171433D01*
X0175549Y0171403D01*
X0175426Y0171378D01*
X0175302Y0171356D01*
X0175177Y0171339D01*
X0175052Y0171325D01*
X0174927Y0171315D01*
X0174802Y0171309D01*
X0174676Y0171307D01*
X0174676Y0163807D01*
X0175676Y0163807D01*
X0183376Y0163807D02*
X0185976Y0163807D01*
X0193376Y0163807D02*
X0195976Y0163807D01*
X0203376Y0163807D02*
X0205976Y0163807D01*
X0213376Y0163807D02*
X0215976Y0163807D01*
X0223376Y0163807D02*
X0225976Y0163807D01*
X0233376Y0163807D02*
X0235976Y0163807D01*
X0243676Y0163807D02*
X0244676Y0163807D01*
X0244676Y0186807D01*
X0243676Y0186807D01*
X0235976Y0186807D02*
X0233376Y0186807D01*
X0225976Y0186807D02*
X0223376Y0186807D01*
X0215976Y0186807D02*
X0213376Y0186807D01*
X0205976Y0186807D02*
X0203376Y0186807D01*
X0195976Y0186807D02*
X0193376Y0186807D01*
X0185976Y0186807D02*
X0183376Y0186807D01*
X0175676Y0186807D02*
X0174676Y0186807D01*
X0204676Y0135307D02*
X0204676Y0119307D01*
X0204676Y0121307D01*
X0204676Y0119307D02*
X0204676Y0115307D01*
X0244676Y0115307D01*
X0244676Y0135307D01*
X0204676Y0135307D01*
X0107676Y0137807D02*
X0107676Y0122807D01*
X0107676Y0106807D02*
X0107676Y0091807D01*
X0106178Y0178707D02*
X0103076Y0178707D01*
X0103076Y0184912D01*
X0106178Y0184912D01*
X0107212Y0183878D01*
X0107212Y0182844D01*
X0106178Y0181810D01*
X0103076Y0181810D01*
X0106178Y0181810D02*
X0107212Y0180776D01*
X0107212Y0179741D01*
X0106178Y0178707D01*
D14*
X0126676Y0158307D02*
X0129176Y0158307D01*
X0129676Y0157807D01*
X0155676Y0157807D01*
X0156176Y0158307D01*
X0158676Y0158307D01*
X0158736Y0158305D01*
X0158797Y0158300D01*
X0158856Y0158291D01*
X0158915Y0158278D01*
X0158974Y0158262D01*
X0159031Y0158242D01*
X0159086Y0158219D01*
X0159141Y0158192D01*
X0159193Y0158163D01*
X0159244Y0158130D01*
X0159293Y0158094D01*
X0159339Y0158056D01*
X0159383Y0158014D01*
X0159425Y0157970D01*
X0159463Y0157924D01*
X0159499Y0157875D01*
X0159532Y0157824D01*
X0159561Y0157772D01*
X0159588Y0157717D01*
X0159611Y0157662D01*
X0159631Y0157605D01*
X0159647Y0157546D01*
X0159660Y0157487D01*
X0159669Y0157428D01*
X0159674Y0157367D01*
X0159676Y0157307D01*
X0159676Y0147307D01*
X0159674Y0147247D01*
X0159669Y0147186D01*
X0159660Y0147127D01*
X0159647Y0147068D01*
X0159631Y0147009D01*
X0159611Y0146952D01*
X0159588Y0146897D01*
X0159561Y0146842D01*
X0159532Y0146790D01*
X0159499Y0146739D01*
X0159463Y0146690D01*
X0159425Y0146644D01*
X0159383Y0146600D01*
X0159339Y0146558D01*
X0159293Y0146520D01*
X0159244Y0146484D01*
X0159193Y0146451D01*
X0159141Y0146422D01*
X0159086Y0146395D01*
X0159031Y0146372D01*
X0158974Y0146352D01*
X0158915Y0146336D01*
X0158856Y0146323D01*
X0158797Y0146314D01*
X0158736Y0146309D01*
X0158676Y0146307D01*
X0156176Y0146307D01*
X0155676Y0146807D01*
X0129676Y0146807D01*
X0129176Y0146307D01*
X0126676Y0146307D01*
X0126616Y0146309D01*
X0126555Y0146314D01*
X0126496Y0146323D01*
X0126437Y0146336D01*
X0126378Y0146352D01*
X0126321Y0146372D01*
X0126266Y0146395D01*
X0126211Y0146422D01*
X0126159Y0146451D01*
X0126108Y0146484D01*
X0126059Y0146520D01*
X0126013Y0146558D01*
X0125969Y0146600D01*
X0125927Y0146644D01*
X0125889Y0146690D01*
X0125853Y0146739D01*
X0125820Y0146790D01*
X0125791Y0146842D01*
X0125764Y0146897D01*
X0125741Y0146952D01*
X0125721Y0147009D01*
X0125705Y0147068D01*
X0125692Y0147127D01*
X0125683Y0147186D01*
X0125678Y0147247D01*
X0125676Y0147307D01*
X0125676Y0157307D01*
X0125678Y0157367D01*
X0125683Y0157428D01*
X0125692Y0157487D01*
X0125705Y0157546D01*
X0125721Y0157605D01*
X0125741Y0157662D01*
X0125764Y0157717D01*
X0125791Y0157772D01*
X0125820Y0157824D01*
X0125853Y0157875D01*
X0125889Y0157924D01*
X0125927Y0157970D01*
X0125969Y0158014D01*
X0126013Y0158056D01*
X0126059Y0158094D01*
X0126108Y0158130D01*
X0126159Y0158163D01*
X0126211Y0158192D01*
X0126266Y0158219D01*
X0126321Y0158242D01*
X0126378Y0158262D01*
X0126437Y0158278D01*
X0126496Y0158291D01*
X0126555Y0158300D01*
X0126616Y0158305D01*
X0126676Y0158307D01*
X0126676Y0143307D02*
X0129176Y0143307D01*
X0129676Y0142807D01*
X0155676Y0142807D01*
X0156176Y0143307D01*
X0158676Y0143307D01*
X0158736Y0143305D01*
X0158797Y0143300D01*
X0158856Y0143291D01*
X0158915Y0143278D01*
X0158974Y0143262D01*
X0159031Y0143242D01*
X0159086Y0143219D01*
X0159141Y0143192D01*
X0159193Y0143163D01*
X0159244Y0143130D01*
X0159293Y0143094D01*
X0159339Y0143056D01*
X0159383Y0143014D01*
X0159425Y0142970D01*
X0159463Y0142924D01*
X0159499Y0142875D01*
X0159532Y0142824D01*
X0159561Y0142772D01*
X0159588Y0142717D01*
X0159611Y0142662D01*
X0159631Y0142605D01*
X0159647Y0142546D01*
X0159660Y0142487D01*
X0159669Y0142428D01*
X0159674Y0142367D01*
X0159676Y0142307D01*
X0159676Y0132307D01*
X0159674Y0132247D01*
X0159669Y0132186D01*
X0159660Y0132127D01*
X0159647Y0132068D01*
X0159631Y0132009D01*
X0159611Y0131952D01*
X0159588Y0131897D01*
X0159561Y0131842D01*
X0159532Y0131790D01*
X0159499Y0131739D01*
X0159463Y0131690D01*
X0159425Y0131644D01*
X0159383Y0131600D01*
X0159339Y0131558D01*
X0159293Y0131520D01*
X0159244Y0131484D01*
X0159193Y0131451D01*
X0159141Y0131422D01*
X0159086Y0131395D01*
X0159031Y0131372D01*
X0158974Y0131352D01*
X0158915Y0131336D01*
X0158856Y0131323D01*
X0158797Y0131314D01*
X0158736Y0131309D01*
X0158676Y0131307D01*
X0156176Y0131307D01*
X0155676Y0131807D01*
X0129676Y0131807D01*
X0129176Y0131307D01*
X0126676Y0131307D01*
X0126616Y0131309D01*
X0126555Y0131314D01*
X0126496Y0131323D01*
X0126437Y0131336D01*
X0126378Y0131352D01*
X0126321Y0131372D01*
X0126266Y0131395D01*
X0126211Y0131422D01*
X0126159Y0131451D01*
X0126108Y0131484D01*
X0126059Y0131520D01*
X0126013Y0131558D01*
X0125969Y0131600D01*
X0125927Y0131644D01*
X0125889Y0131690D01*
X0125853Y0131739D01*
X0125820Y0131790D01*
X0125791Y0131842D01*
X0125764Y0131897D01*
X0125741Y0131952D01*
X0125721Y0132009D01*
X0125705Y0132068D01*
X0125692Y0132127D01*
X0125683Y0132186D01*
X0125678Y0132247D01*
X0125676Y0132307D01*
X0125676Y0142307D01*
X0125678Y0142367D01*
X0125683Y0142428D01*
X0125692Y0142487D01*
X0125705Y0142546D01*
X0125721Y0142605D01*
X0125741Y0142662D01*
X0125764Y0142717D01*
X0125791Y0142772D01*
X0125820Y0142824D01*
X0125853Y0142875D01*
X0125889Y0142924D01*
X0125927Y0142970D01*
X0125969Y0143014D01*
X0126013Y0143056D01*
X0126059Y0143094D01*
X0126108Y0143130D01*
X0126159Y0143163D01*
X0126211Y0143192D01*
X0126266Y0143219D01*
X0126321Y0143242D01*
X0126378Y0143262D01*
X0126437Y0143278D01*
X0126496Y0143291D01*
X0126555Y0143300D01*
X0126616Y0143305D01*
X0126676Y0143307D01*
X0126676Y0127307D02*
X0129176Y0127307D01*
X0129676Y0126807D01*
X0155676Y0126807D01*
X0156176Y0127307D01*
X0158676Y0127307D01*
X0158736Y0127305D01*
X0158797Y0127300D01*
X0158856Y0127291D01*
X0158915Y0127278D01*
X0158974Y0127262D01*
X0159031Y0127242D01*
X0159086Y0127219D01*
X0159141Y0127192D01*
X0159193Y0127163D01*
X0159244Y0127130D01*
X0159293Y0127094D01*
X0159339Y0127056D01*
X0159383Y0127014D01*
X0159425Y0126970D01*
X0159463Y0126924D01*
X0159499Y0126875D01*
X0159532Y0126824D01*
X0159561Y0126772D01*
X0159588Y0126717D01*
X0159611Y0126662D01*
X0159631Y0126605D01*
X0159647Y0126546D01*
X0159660Y0126487D01*
X0159669Y0126428D01*
X0159674Y0126367D01*
X0159676Y0126307D01*
X0159676Y0116307D01*
X0159674Y0116247D01*
X0159669Y0116186D01*
X0159660Y0116127D01*
X0159647Y0116068D01*
X0159631Y0116009D01*
X0159611Y0115952D01*
X0159588Y0115897D01*
X0159561Y0115842D01*
X0159532Y0115790D01*
X0159499Y0115739D01*
X0159463Y0115690D01*
X0159425Y0115644D01*
X0159383Y0115600D01*
X0159339Y0115558D01*
X0159293Y0115520D01*
X0159244Y0115484D01*
X0159193Y0115451D01*
X0159141Y0115422D01*
X0159086Y0115395D01*
X0159031Y0115372D01*
X0158974Y0115352D01*
X0158915Y0115336D01*
X0158856Y0115323D01*
X0158797Y0115314D01*
X0158736Y0115309D01*
X0158676Y0115307D01*
X0156176Y0115307D01*
X0155676Y0115807D01*
X0129676Y0115807D01*
X0129176Y0115307D01*
X0126676Y0115307D01*
X0126616Y0115309D01*
X0126555Y0115314D01*
X0126496Y0115323D01*
X0126437Y0115336D01*
X0126378Y0115352D01*
X0126321Y0115372D01*
X0126266Y0115395D01*
X0126211Y0115422D01*
X0126159Y0115451D01*
X0126108Y0115484D01*
X0126059Y0115520D01*
X0126013Y0115558D01*
X0125969Y0115600D01*
X0125927Y0115644D01*
X0125889Y0115690D01*
X0125853Y0115739D01*
X0125820Y0115790D01*
X0125791Y0115842D01*
X0125764Y0115897D01*
X0125741Y0115952D01*
X0125721Y0116009D01*
X0125705Y0116068D01*
X0125692Y0116127D01*
X0125683Y0116186D01*
X0125678Y0116247D01*
X0125676Y0116307D01*
X0125676Y0126307D01*
X0125678Y0126367D01*
X0125683Y0126428D01*
X0125692Y0126487D01*
X0125705Y0126546D01*
X0125721Y0126605D01*
X0125741Y0126662D01*
X0125764Y0126717D01*
X0125791Y0126772D01*
X0125820Y0126824D01*
X0125853Y0126875D01*
X0125889Y0126924D01*
X0125927Y0126970D01*
X0125969Y0127014D01*
X0126013Y0127056D01*
X0126059Y0127094D01*
X0126108Y0127130D01*
X0126159Y0127163D01*
X0126211Y0127192D01*
X0126266Y0127219D01*
X0126321Y0127242D01*
X0126378Y0127262D01*
X0126437Y0127278D01*
X0126496Y0127291D01*
X0126555Y0127300D01*
X0126616Y0127305D01*
X0126676Y0127307D01*
X0127210Y0103011D02*
X0128677Y0103011D01*
X0129411Y0102277D01*
X0129411Y0099341D01*
X0128677Y0098607D01*
X0127210Y0098607D01*
X0126476Y0099341D01*
X0126476Y0102277D01*
X0127210Y0103011D01*
X0127944Y0100075D02*
X0129411Y0098607D01*
X0131080Y0098607D02*
X0134015Y0098607D01*
X0132547Y0098607D02*
X0132547Y0103011D01*
X0131080Y0101543D01*
X0136097Y0086307D02*
X0123254Y0086307D01*
X0122199Y0078307D02*
X0127199Y0078307D01*
X0129699Y0075807D01*
X0129699Y0070807D01*
X0127199Y0068307D01*
X0122199Y0068307D01*
X0119699Y0070807D01*
X0117199Y0068307D01*
X0112199Y0068307D01*
X0109699Y0070807D01*
X0109699Y0075807D01*
X0112199Y0078307D01*
X0117199Y0078307D01*
X0119699Y0075807D01*
X0122199Y0078307D01*
X0119699Y0075807D02*
X0119699Y0070807D01*
X0129699Y0070807D02*
X0132199Y0068307D01*
X0137199Y0068307D01*
X0139699Y0070807D01*
X0142199Y0068307D01*
X0147199Y0068307D01*
X0149699Y0070807D01*
X0152199Y0068307D01*
X0157199Y0068307D01*
X0159699Y0070807D01*
X0159699Y0075807D01*
X0157199Y0078307D01*
X0152199Y0078307D01*
X0149699Y0075807D01*
X0149699Y0070807D01*
X0149699Y0075807D02*
X0147199Y0078307D01*
X0142199Y0078307D01*
X0139699Y0075807D01*
X0139699Y0070807D01*
X0139699Y0075807D02*
X0137199Y0078307D01*
X0132199Y0078307D01*
X0129699Y0075807D01*
X0102691Y0075945D02*
X0102691Y0074877D01*
X0101624Y0073810D01*
X0098421Y0073810D01*
X0096246Y0073810D02*
X0094111Y0073810D01*
X0096246Y0073810D02*
X0096246Y0071675D01*
X0095178Y0070607D01*
X0093043Y0070607D01*
X0091976Y0071675D01*
X0091976Y0075945D01*
X0093043Y0077013D01*
X0095178Y0077013D01*
X0096246Y0075945D01*
X0098421Y0077013D02*
X0101624Y0077013D01*
X0102691Y0075945D01*
X0101624Y0073810D02*
X0102691Y0072742D01*
X0102691Y0071675D01*
X0101624Y0070607D01*
X0098421Y0070607D01*
X0098421Y0077013D01*
X0087676Y0099307D02*
X0087679Y0099552D01*
X0087688Y0099798D01*
X0087703Y0100043D01*
X0087724Y0100287D01*
X0087751Y0100531D01*
X0087784Y0100774D01*
X0087823Y0101017D01*
X0087868Y0101258D01*
X0087919Y0101498D01*
X0087976Y0101737D01*
X0088038Y0101974D01*
X0088107Y0102210D01*
X0088181Y0102444D01*
X0088261Y0102676D01*
X0088346Y0102906D01*
X0088437Y0103134D01*
X0088534Y0103359D01*
X0088636Y0103583D01*
X0088744Y0103803D01*
X0088857Y0104021D01*
X0088975Y0104236D01*
X0089099Y0104448D01*
X0089227Y0104657D01*
X0089361Y0104863D01*
X0089500Y0105065D01*
X0089644Y0105264D01*
X0089793Y0105459D01*
X0089946Y0105651D01*
X0090104Y0105839D01*
X0090266Y0106023D01*
X0090434Y0106202D01*
X0090605Y0106378D01*
X0090781Y0106549D01*
X0090960Y0106717D01*
X0091144Y0106879D01*
X0091332Y0107037D01*
X0091524Y0107190D01*
X0091719Y0107339D01*
X0091918Y0107483D01*
X0092120Y0107622D01*
X0092326Y0107756D01*
X0092535Y0107884D01*
X0092747Y0108008D01*
X0092962Y0108126D01*
X0093180Y0108239D01*
X0093400Y0108347D01*
X0093624Y0108449D01*
X0093849Y0108546D01*
X0094077Y0108637D01*
X0094307Y0108722D01*
X0094539Y0108802D01*
X0094773Y0108876D01*
X0095009Y0108945D01*
X0095246Y0109007D01*
X0095485Y0109064D01*
X0095725Y0109115D01*
X0095966Y0109160D01*
X0096209Y0109199D01*
X0096452Y0109232D01*
X0096696Y0109259D01*
X0096940Y0109280D01*
X0097185Y0109295D01*
X0097431Y0109304D01*
X0097676Y0109307D01*
X0097921Y0109304D01*
X0098167Y0109295D01*
X0098412Y0109280D01*
X0098656Y0109259D01*
X0098900Y0109232D01*
X0099143Y0109199D01*
X0099386Y0109160D01*
X0099627Y0109115D01*
X0099867Y0109064D01*
X0100106Y0109007D01*
X0100343Y0108945D01*
X0100579Y0108876D01*
X0100813Y0108802D01*
X0101045Y0108722D01*
X0101275Y0108637D01*
X0101503Y0108546D01*
X0101728Y0108449D01*
X0101952Y0108347D01*
X0102172Y0108239D01*
X0102390Y0108126D01*
X0102605Y0108008D01*
X0102817Y0107884D01*
X0103026Y0107756D01*
X0103232Y0107622D01*
X0103434Y0107483D01*
X0103633Y0107339D01*
X0103828Y0107190D01*
X0104020Y0107037D01*
X0104208Y0106879D01*
X0104392Y0106717D01*
X0104571Y0106549D01*
X0104747Y0106378D01*
X0104918Y0106202D01*
X0105086Y0106023D01*
X0105248Y0105839D01*
X0105406Y0105651D01*
X0105559Y0105459D01*
X0105708Y0105264D01*
X0105852Y0105065D01*
X0105991Y0104863D01*
X0106125Y0104657D01*
X0106253Y0104448D01*
X0106377Y0104236D01*
X0106495Y0104021D01*
X0106608Y0103803D01*
X0106716Y0103583D01*
X0106818Y0103359D01*
X0106915Y0103134D01*
X0107006Y0102906D01*
X0107091Y0102676D01*
X0107171Y0102444D01*
X0107245Y0102210D01*
X0107314Y0101974D01*
X0107376Y0101737D01*
X0107433Y0101498D01*
X0107484Y0101258D01*
X0107529Y0101017D01*
X0107568Y0100774D01*
X0107601Y0100531D01*
X0107628Y0100287D01*
X0107649Y0100043D01*
X0107664Y0099798D01*
X0107673Y0099552D01*
X0107676Y0099307D01*
X0107673Y0099062D01*
X0107664Y0098816D01*
X0107649Y0098571D01*
X0107628Y0098327D01*
X0107601Y0098083D01*
X0107568Y0097840D01*
X0107529Y0097597D01*
X0107484Y0097356D01*
X0107433Y0097116D01*
X0107376Y0096877D01*
X0107314Y0096640D01*
X0107245Y0096404D01*
X0107171Y0096170D01*
X0107091Y0095938D01*
X0107006Y0095708D01*
X0106915Y0095480D01*
X0106818Y0095255D01*
X0106716Y0095031D01*
X0106608Y0094811D01*
X0106495Y0094593D01*
X0106377Y0094378D01*
X0106253Y0094166D01*
X0106125Y0093957D01*
X0105991Y0093751D01*
X0105852Y0093549D01*
X0105708Y0093350D01*
X0105559Y0093155D01*
X0105406Y0092963D01*
X0105248Y0092775D01*
X0105086Y0092591D01*
X0104918Y0092412D01*
X0104747Y0092236D01*
X0104571Y0092065D01*
X0104392Y0091897D01*
X0104208Y0091735D01*
X0104020Y0091577D01*
X0103828Y0091424D01*
X0103633Y0091275D01*
X0103434Y0091131D01*
X0103232Y0090992D01*
X0103026Y0090858D01*
X0102817Y0090730D01*
X0102605Y0090606D01*
X0102390Y0090488D01*
X0102172Y0090375D01*
X0101952Y0090267D01*
X0101728Y0090165D01*
X0101503Y0090068D01*
X0101275Y0089977D01*
X0101045Y0089892D01*
X0100813Y0089812D01*
X0100579Y0089738D01*
X0100343Y0089669D01*
X0100106Y0089607D01*
X0099867Y0089550D01*
X0099627Y0089499D01*
X0099386Y0089454D01*
X0099143Y0089415D01*
X0098900Y0089382D01*
X0098656Y0089355D01*
X0098412Y0089334D01*
X0098167Y0089319D01*
X0097921Y0089310D01*
X0097676Y0089307D01*
X0097431Y0089310D01*
X0097185Y0089319D01*
X0096940Y0089334D01*
X0096696Y0089355D01*
X0096452Y0089382D01*
X0096209Y0089415D01*
X0095966Y0089454D01*
X0095725Y0089499D01*
X0095485Y0089550D01*
X0095246Y0089607D01*
X0095009Y0089669D01*
X0094773Y0089738D01*
X0094539Y0089812D01*
X0094307Y0089892D01*
X0094077Y0089977D01*
X0093849Y0090068D01*
X0093624Y0090165D01*
X0093400Y0090267D01*
X0093180Y0090375D01*
X0092962Y0090488D01*
X0092747Y0090606D01*
X0092535Y0090730D01*
X0092326Y0090858D01*
X0092120Y0090992D01*
X0091918Y0091131D01*
X0091719Y0091275D01*
X0091524Y0091424D01*
X0091332Y0091577D01*
X0091144Y0091735D01*
X0090960Y0091897D01*
X0090781Y0092065D01*
X0090605Y0092236D01*
X0090434Y0092412D01*
X0090266Y0092591D01*
X0090104Y0092775D01*
X0089946Y0092963D01*
X0089793Y0093155D01*
X0089644Y0093350D01*
X0089500Y0093549D01*
X0089361Y0093751D01*
X0089227Y0093957D01*
X0089099Y0094166D01*
X0088975Y0094378D01*
X0088857Y0094593D01*
X0088744Y0094811D01*
X0088636Y0095031D01*
X0088534Y0095255D01*
X0088437Y0095480D01*
X0088346Y0095708D01*
X0088261Y0095938D01*
X0088181Y0096170D01*
X0088107Y0096404D01*
X0088038Y0096640D01*
X0087976Y0096877D01*
X0087919Y0097116D01*
X0087868Y0097356D01*
X0087823Y0097597D01*
X0087784Y0097840D01*
X0087751Y0098083D01*
X0087724Y0098327D01*
X0087703Y0098571D01*
X0087688Y0098816D01*
X0087679Y0099062D01*
X0087676Y0099307D01*
X0087676Y0130307D02*
X0087679Y0130552D01*
X0087688Y0130798D01*
X0087703Y0131043D01*
X0087724Y0131287D01*
X0087751Y0131531D01*
X0087784Y0131774D01*
X0087823Y0132017D01*
X0087868Y0132258D01*
X0087919Y0132498D01*
X0087976Y0132737D01*
X0088038Y0132974D01*
X0088107Y0133210D01*
X0088181Y0133444D01*
X0088261Y0133676D01*
X0088346Y0133906D01*
X0088437Y0134134D01*
X0088534Y0134359D01*
X0088636Y0134583D01*
X0088744Y0134803D01*
X0088857Y0135021D01*
X0088975Y0135236D01*
X0089099Y0135448D01*
X0089227Y0135657D01*
X0089361Y0135863D01*
X0089500Y0136065D01*
X0089644Y0136264D01*
X0089793Y0136459D01*
X0089946Y0136651D01*
X0090104Y0136839D01*
X0090266Y0137023D01*
X0090434Y0137202D01*
X0090605Y0137378D01*
X0090781Y0137549D01*
X0090960Y0137717D01*
X0091144Y0137879D01*
X0091332Y0138037D01*
X0091524Y0138190D01*
X0091719Y0138339D01*
X0091918Y0138483D01*
X0092120Y0138622D01*
X0092326Y0138756D01*
X0092535Y0138884D01*
X0092747Y0139008D01*
X0092962Y0139126D01*
X0093180Y0139239D01*
X0093400Y0139347D01*
X0093624Y0139449D01*
X0093849Y0139546D01*
X0094077Y0139637D01*
X0094307Y0139722D01*
X0094539Y0139802D01*
X0094773Y0139876D01*
X0095009Y0139945D01*
X0095246Y0140007D01*
X0095485Y0140064D01*
X0095725Y0140115D01*
X0095966Y0140160D01*
X0096209Y0140199D01*
X0096452Y0140232D01*
X0096696Y0140259D01*
X0096940Y0140280D01*
X0097185Y0140295D01*
X0097431Y0140304D01*
X0097676Y0140307D01*
X0097921Y0140304D01*
X0098167Y0140295D01*
X0098412Y0140280D01*
X0098656Y0140259D01*
X0098900Y0140232D01*
X0099143Y0140199D01*
X0099386Y0140160D01*
X0099627Y0140115D01*
X0099867Y0140064D01*
X0100106Y0140007D01*
X0100343Y0139945D01*
X0100579Y0139876D01*
X0100813Y0139802D01*
X0101045Y0139722D01*
X0101275Y0139637D01*
X0101503Y0139546D01*
X0101728Y0139449D01*
X0101952Y0139347D01*
X0102172Y0139239D01*
X0102390Y0139126D01*
X0102605Y0139008D01*
X0102817Y0138884D01*
X0103026Y0138756D01*
X0103232Y0138622D01*
X0103434Y0138483D01*
X0103633Y0138339D01*
X0103828Y0138190D01*
X0104020Y0138037D01*
X0104208Y0137879D01*
X0104392Y0137717D01*
X0104571Y0137549D01*
X0104747Y0137378D01*
X0104918Y0137202D01*
X0105086Y0137023D01*
X0105248Y0136839D01*
X0105406Y0136651D01*
X0105559Y0136459D01*
X0105708Y0136264D01*
X0105852Y0136065D01*
X0105991Y0135863D01*
X0106125Y0135657D01*
X0106253Y0135448D01*
X0106377Y0135236D01*
X0106495Y0135021D01*
X0106608Y0134803D01*
X0106716Y0134583D01*
X0106818Y0134359D01*
X0106915Y0134134D01*
X0107006Y0133906D01*
X0107091Y0133676D01*
X0107171Y0133444D01*
X0107245Y0133210D01*
X0107314Y0132974D01*
X0107376Y0132737D01*
X0107433Y0132498D01*
X0107484Y0132258D01*
X0107529Y0132017D01*
X0107568Y0131774D01*
X0107601Y0131531D01*
X0107628Y0131287D01*
X0107649Y0131043D01*
X0107664Y0130798D01*
X0107673Y0130552D01*
X0107676Y0130307D01*
X0107673Y0130062D01*
X0107664Y0129816D01*
X0107649Y0129571D01*
X0107628Y0129327D01*
X0107601Y0129083D01*
X0107568Y0128840D01*
X0107529Y0128597D01*
X0107484Y0128356D01*
X0107433Y0128116D01*
X0107376Y0127877D01*
X0107314Y0127640D01*
X0107245Y0127404D01*
X0107171Y0127170D01*
X0107091Y0126938D01*
X0107006Y0126708D01*
X0106915Y0126480D01*
X0106818Y0126255D01*
X0106716Y0126031D01*
X0106608Y0125811D01*
X0106495Y0125593D01*
X0106377Y0125378D01*
X0106253Y0125166D01*
X0106125Y0124957D01*
X0105991Y0124751D01*
X0105852Y0124549D01*
X0105708Y0124350D01*
X0105559Y0124155D01*
X0105406Y0123963D01*
X0105248Y0123775D01*
X0105086Y0123591D01*
X0104918Y0123412D01*
X0104747Y0123236D01*
X0104571Y0123065D01*
X0104392Y0122897D01*
X0104208Y0122735D01*
X0104020Y0122577D01*
X0103828Y0122424D01*
X0103633Y0122275D01*
X0103434Y0122131D01*
X0103232Y0121992D01*
X0103026Y0121858D01*
X0102817Y0121730D01*
X0102605Y0121606D01*
X0102390Y0121488D01*
X0102172Y0121375D01*
X0101952Y0121267D01*
X0101728Y0121165D01*
X0101503Y0121068D01*
X0101275Y0120977D01*
X0101045Y0120892D01*
X0100813Y0120812D01*
X0100579Y0120738D01*
X0100343Y0120669D01*
X0100106Y0120607D01*
X0099867Y0120550D01*
X0099627Y0120499D01*
X0099386Y0120454D01*
X0099143Y0120415D01*
X0098900Y0120382D01*
X0098656Y0120355D01*
X0098412Y0120334D01*
X0098167Y0120319D01*
X0097921Y0120310D01*
X0097676Y0120307D01*
X0097431Y0120310D01*
X0097185Y0120319D01*
X0096940Y0120334D01*
X0096696Y0120355D01*
X0096452Y0120382D01*
X0096209Y0120415D01*
X0095966Y0120454D01*
X0095725Y0120499D01*
X0095485Y0120550D01*
X0095246Y0120607D01*
X0095009Y0120669D01*
X0094773Y0120738D01*
X0094539Y0120812D01*
X0094307Y0120892D01*
X0094077Y0120977D01*
X0093849Y0121068D01*
X0093624Y0121165D01*
X0093400Y0121267D01*
X0093180Y0121375D01*
X0092962Y0121488D01*
X0092747Y0121606D01*
X0092535Y0121730D01*
X0092326Y0121858D01*
X0092120Y0121992D01*
X0091918Y0122131D01*
X0091719Y0122275D01*
X0091524Y0122424D01*
X0091332Y0122577D01*
X0091144Y0122735D01*
X0090960Y0122897D01*
X0090781Y0123065D01*
X0090605Y0123236D01*
X0090434Y0123412D01*
X0090266Y0123591D01*
X0090104Y0123775D01*
X0089946Y0123963D01*
X0089793Y0124155D01*
X0089644Y0124350D01*
X0089500Y0124549D01*
X0089361Y0124751D01*
X0089227Y0124957D01*
X0089099Y0125166D01*
X0088975Y0125378D01*
X0088857Y0125593D01*
X0088744Y0125811D01*
X0088636Y0126031D01*
X0088534Y0126255D01*
X0088437Y0126480D01*
X0088346Y0126708D01*
X0088261Y0126938D01*
X0088181Y0127170D01*
X0088107Y0127404D01*
X0088038Y0127640D01*
X0087976Y0127877D01*
X0087919Y0128116D01*
X0087868Y0128356D01*
X0087823Y0128597D01*
X0087784Y0128840D01*
X0087751Y0129083D01*
X0087724Y0129327D01*
X0087703Y0129571D01*
X0087688Y0129816D01*
X0087679Y0130062D01*
X0087676Y0130307D01*
X0159176Y0169807D02*
X0159176Y0182807D01*
X0159178Y0182894D01*
X0159184Y0182981D01*
X0159193Y0183068D01*
X0159206Y0183154D01*
X0159223Y0183240D01*
X0159244Y0183325D01*
X0159269Y0183408D01*
X0159297Y0183491D01*
X0159328Y0183572D01*
X0159363Y0183652D01*
X0159402Y0183730D01*
X0159444Y0183807D01*
X0159489Y0183882D01*
X0159538Y0183954D01*
X0159589Y0184025D01*
X0159644Y0184093D01*
X0159701Y0184158D01*
X0159762Y0184221D01*
X0159825Y0184282D01*
X0159890Y0184339D01*
X0159958Y0184394D01*
X0160029Y0184445D01*
X0160101Y0184494D01*
X0160176Y0184539D01*
X0160253Y0184581D01*
X0160331Y0184620D01*
X0160411Y0184655D01*
X0160492Y0184686D01*
X0160575Y0184714D01*
X0160658Y0184739D01*
X0160743Y0184760D01*
X0160829Y0184777D01*
X0160915Y0184790D01*
X0161002Y0184799D01*
X0161089Y0184805D01*
X0161176Y0184807D01*
X0163676Y0181307D02*
X0163676Y0177607D01*
X0163676Y0175107D02*
X0163676Y0171307D01*
X0166176Y0167807D02*
X0166263Y0167809D01*
X0166350Y0167815D01*
X0166437Y0167824D01*
X0166523Y0167837D01*
X0166609Y0167854D01*
X0166694Y0167875D01*
X0166777Y0167900D01*
X0166860Y0167928D01*
X0166941Y0167959D01*
X0167021Y0167994D01*
X0167099Y0168033D01*
X0167176Y0168075D01*
X0167251Y0168120D01*
X0167323Y0168169D01*
X0167394Y0168220D01*
X0167462Y0168275D01*
X0167527Y0168332D01*
X0167590Y0168393D01*
X0167651Y0168456D01*
X0167708Y0168521D01*
X0167763Y0168589D01*
X0167814Y0168660D01*
X0167863Y0168732D01*
X0167908Y0168807D01*
X0167950Y0168884D01*
X0167989Y0168962D01*
X0168024Y0169042D01*
X0168055Y0169123D01*
X0168083Y0169206D01*
X0168108Y0169289D01*
X0168129Y0169374D01*
X0168146Y0169460D01*
X0168159Y0169546D01*
X0168168Y0169633D01*
X0168174Y0169720D01*
X0168176Y0169807D01*
X0168176Y0182807D01*
X0168174Y0182894D01*
X0168168Y0182981D01*
X0168159Y0183068D01*
X0168146Y0183154D01*
X0168129Y0183240D01*
X0168108Y0183325D01*
X0168083Y0183408D01*
X0168055Y0183491D01*
X0168024Y0183572D01*
X0167989Y0183652D01*
X0167950Y0183730D01*
X0167908Y0183807D01*
X0167863Y0183882D01*
X0167814Y0183954D01*
X0167763Y0184025D01*
X0167708Y0184093D01*
X0167651Y0184158D01*
X0167590Y0184221D01*
X0167527Y0184282D01*
X0167462Y0184339D01*
X0167394Y0184394D01*
X0167323Y0184445D01*
X0167251Y0184494D01*
X0167176Y0184539D01*
X0167099Y0184581D01*
X0167021Y0184620D01*
X0166941Y0184655D01*
X0166860Y0184686D01*
X0166777Y0184714D01*
X0166694Y0184739D01*
X0166609Y0184760D01*
X0166523Y0184777D01*
X0166437Y0184790D01*
X0166350Y0184799D01*
X0166263Y0184805D01*
X0166176Y0184807D01*
X0181976Y0176543D02*
X0181976Y0173607D01*
X0181976Y0175809D02*
X0184911Y0175809D01*
X0184911Y0176543D02*
X0184911Y0173607D01*
X0184911Y0176543D02*
X0183444Y0178011D01*
X0181976Y0176543D01*
X0186580Y0178011D02*
X0189515Y0178011D01*
X0188047Y0178011D02*
X0188047Y0173607D01*
X0191183Y0178011D02*
X0194119Y0178011D01*
X0192651Y0178011D02*
X0192651Y0173607D01*
X0195787Y0173607D02*
X0197255Y0173607D01*
X0196521Y0173607D02*
X0196521Y0176543D01*
X0195787Y0176543D01*
X0196521Y0178011D02*
X0196521Y0178745D01*
X0198857Y0176543D02*
X0201059Y0176543D01*
X0201792Y0175809D01*
X0201792Y0173607D01*
X0203461Y0174341D02*
X0203461Y0176543D01*
X0203461Y0174341D02*
X0204195Y0173607D01*
X0206396Y0173607D01*
X0206396Y0172873D02*
X0205662Y0172139D01*
X0204928Y0172139D01*
X0206396Y0172873D02*
X0206396Y0176543D01*
X0208064Y0177277D02*
X0208798Y0178011D01*
X0210266Y0178011D01*
X0211000Y0177277D01*
X0211000Y0176543D01*
X0208064Y0173607D01*
X0211000Y0173607D01*
X0212668Y0175809D02*
X0215604Y0175809D01*
X0214870Y0173607D02*
X0214870Y0178011D01*
X0212668Y0175809D01*
X0217272Y0173607D02*
X0220208Y0178011D01*
X0221876Y0175809D02*
X0224812Y0175809D01*
X0226480Y0175809D02*
X0228682Y0178011D01*
X0228682Y0173607D01*
X0229416Y0175809D02*
X0226480Y0175809D01*
X0224078Y0178011D02*
X0221876Y0175809D01*
X0224078Y0173607D02*
X0224078Y0178011D01*
X0231084Y0173607D02*
X0234020Y0178011D01*
X0235688Y0177277D02*
X0235688Y0176543D01*
X0236422Y0175809D01*
X0237890Y0175809D01*
X0238624Y0175075D01*
X0238624Y0174341D01*
X0237890Y0173607D01*
X0236422Y0173607D01*
X0235688Y0174341D01*
X0235688Y0175075D01*
X0236422Y0175809D01*
X0237890Y0175809D02*
X0238624Y0176543D01*
X0238624Y0177277D01*
X0237890Y0178011D01*
X0236422Y0178011D01*
X0235688Y0177277D01*
X0240292Y0175809D02*
X0243228Y0175809D01*
X0242494Y0178011D02*
X0240292Y0175809D01*
X0242494Y0173607D02*
X0242494Y0178011D01*
X0247676Y0214307D02*
X0247676Y0236307D01*
X0101676Y0236307D01*
X0101676Y0227807D01*
X0101774Y0227805D01*
X0101872Y0227799D01*
X0101970Y0227790D01*
X0102067Y0227776D01*
X0102164Y0227759D01*
X0102260Y0227738D01*
X0102355Y0227713D01*
X0102449Y0227685D01*
X0102541Y0227652D01*
X0102633Y0227617D01*
X0102723Y0227577D01*
X0102811Y0227535D01*
X0102898Y0227488D01*
X0102982Y0227439D01*
X0103065Y0227386D01*
X0103145Y0227330D01*
X0103224Y0227270D01*
X0103300Y0227208D01*
X0103373Y0227143D01*
X0103444Y0227075D01*
X0103512Y0227004D01*
X0103577Y0226931D01*
X0103639Y0226855D01*
X0103699Y0226776D01*
X0103755Y0226696D01*
X0103808Y0226613D01*
X0103857Y0226529D01*
X0103904Y0226442D01*
X0103946Y0226354D01*
X0103986Y0226264D01*
X0104021Y0226172D01*
X0104054Y0226080D01*
X0104082Y0225986D01*
X0104107Y0225891D01*
X0104128Y0225795D01*
X0104145Y0225698D01*
X0104159Y0225601D01*
X0104168Y0225503D01*
X0104174Y0225405D01*
X0104176Y0225307D01*
X0104174Y0225209D01*
X0104168Y0225111D01*
X0104159Y0225013D01*
X0104145Y0224916D01*
X0104128Y0224819D01*
X0104107Y0224723D01*
X0104082Y0224628D01*
X0104054Y0224534D01*
X0104021Y0224442D01*
X0103986Y0224350D01*
X0103946Y0224260D01*
X0103904Y0224172D01*
X0103857Y0224085D01*
X0103808Y0224001D01*
X0103755Y0223918D01*
X0103699Y0223838D01*
X0103639Y0223759D01*
X0103577Y0223683D01*
X0103512Y0223610D01*
X0103444Y0223539D01*
X0103373Y0223471D01*
X0103300Y0223406D01*
X0103224Y0223344D01*
X0103145Y0223284D01*
X0103065Y0223228D01*
X0102982Y0223175D01*
X0102898Y0223126D01*
X0102811Y0223079D01*
X0102723Y0223037D01*
X0102633Y0222997D01*
X0102541Y0222962D01*
X0102449Y0222929D01*
X0102355Y0222901D01*
X0102260Y0222876D01*
X0102164Y0222855D01*
X0102067Y0222838D01*
X0101970Y0222824D01*
X0101872Y0222815D01*
X0101774Y0222809D01*
X0101676Y0222807D01*
X0101676Y0214307D01*
X0247676Y0214307D01*
X0216178Y0225809D02*
X0215444Y0225075D01*
X0213242Y0225075D01*
X0213242Y0223607D02*
X0213242Y0228011D01*
X0215444Y0228011D01*
X0216178Y0227277D01*
X0216178Y0225809D01*
X0211574Y0226543D02*
X0210840Y0225809D01*
X0209372Y0225809D01*
X0208638Y0226543D01*
X0208638Y0227277D01*
X0209372Y0228011D01*
X0210840Y0228011D01*
X0211574Y0227277D01*
X0211574Y0226543D01*
X0210840Y0225809D02*
X0211574Y0225075D01*
X0211574Y0224341D01*
X0210840Y0223607D01*
X0209372Y0223607D01*
X0208638Y0224341D01*
X0208638Y0225075D01*
X0209372Y0225809D01*
X0206970Y0226543D02*
X0206970Y0227277D01*
X0206236Y0228011D01*
X0204768Y0228011D01*
X0204034Y0227277D01*
X0202366Y0227277D02*
X0202366Y0226543D01*
X0201632Y0225809D01*
X0202366Y0225075D01*
X0202366Y0224341D01*
X0201632Y0223607D01*
X0200164Y0223607D01*
X0199431Y0224341D01*
X0200898Y0225809D02*
X0201632Y0225809D01*
X0202366Y0227277D02*
X0201632Y0228011D01*
X0200164Y0228011D01*
X0199431Y0227277D01*
X0197762Y0228011D02*
X0194827Y0223607D01*
X0193159Y0224341D02*
X0192425Y0223607D01*
X0190957Y0223607D01*
X0190223Y0224341D01*
X0190223Y0225075D01*
X0190957Y0225809D01*
X0192425Y0225809D01*
X0193159Y0225075D01*
X0193159Y0224341D01*
X0192425Y0225809D02*
X0193159Y0226543D01*
X0193159Y0227277D01*
X0192425Y0228011D01*
X0190957Y0228011D01*
X0190223Y0227277D01*
X0190223Y0226543D01*
X0190957Y0225809D01*
X0188555Y0225075D02*
X0187821Y0225809D01*
X0185619Y0225809D01*
X0185619Y0224341D01*
X0186353Y0223607D01*
X0187821Y0223607D01*
X0188555Y0224341D01*
X0188555Y0225075D01*
X0187087Y0227277D02*
X0185619Y0225809D01*
X0187087Y0227277D02*
X0188555Y0228011D01*
X0183951Y0223607D02*
X0181015Y0223607D01*
X0182483Y0223607D02*
X0182483Y0228011D01*
X0181015Y0226543D01*
X0179347Y0228011D02*
X0176411Y0223607D01*
X0174743Y0224341D02*
X0174009Y0223607D01*
X0172541Y0223607D01*
X0171807Y0224341D01*
X0171807Y0225075D01*
X0172541Y0225809D01*
X0174009Y0225809D01*
X0174743Y0225075D01*
X0174743Y0224341D01*
X0174009Y0225809D02*
X0174743Y0226543D01*
X0174743Y0227277D01*
X0174009Y0228011D01*
X0172541Y0228011D01*
X0171807Y0227277D01*
X0171807Y0226543D01*
X0172541Y0225809D01*
X0170139Y0226543D02*
X0170139Y0227277D01*
X0169405Y0228011D01*
X0167937Y0228011D01*
X0167203Y0227277D01*
X0170139Y0226543D02*
X0167203Y0223607D01*
X0170139Y0223607D01*
X0165535Y0223607D02*
X0162599Y0223607D01*
X0164067Y0223607D02*
X0164067Y0228011D01*
X0162599Y0226543D01*
X0160931Y0225809D02*
X0160931Y0223607D01*
X0158729Y0223607D01*
X0157995Y0224341D01*
X0158729Y0225075D01*
X0160931Y0225075D01*
X0160931Y0225809D02*
X0160197Y0226543D01*
X0158729Y0226543D01*
X0156327Y0226543D02*
X0156327Y0222873D01*
X0155593Y0222139D01*
X0154859Y0222139D01*
X0154125Y0223607D02*
X0156327Y0223607D01*
X0154125Y0223607D02*
X0153391Y0224341D01*
X0153391Y0225809D01*
X0154125Y0226543D01*
X0156327Y0226543D01*
X0151723Y0225809D02*
X0151723Y0225075D01*
X0148787Y0225075D01*
X0148787Y0224341D02*
X0148787Y0225809D01*
X0149521Y0226543D01*
X0150989Y0226543D01*
X0151723Y0225809D01*
X0150989Y0223607D02*
X0149521Y0223607D01*
X0148787Y0224341D01*
X0147119Y0223607D02*
X0147119Y0228011D01*
X0145651Y0226543D01*
X0144183Y0228011D01*
X0144183Y0223607D01*
X0141047Y0223607D02*
X0141047Y0228011D01*
X0139580Y0228011D02*
X0142515Y0228011D01*
X0137911Y0226543D02*
X0137911Y0223607D01*
X0137911Y0225809D02*
X0134976Y0225809D01*
X0134976Y0226543D02*
X0136444Y0228011D01*
X0137911Y0226543D01*
X0134976Y0226543D02*
X0134976Y0223607D01*
X0159176Y0169807D02*
X0159178Y0169720D01*
X0159184Y0169633D01*
X0159193Y0169546D01*
X0159206Y0169460D01*
X0159223Y0169374D01*
X0159244Y0169289D01*
X0159269Y0169206D01*
X0159297Y0169123D01*
X0159328Y0169042D01*
X0159363Y0168962D01*
X0159402Y0168884D01*
X0159444Y0168807D01*
X0159489Y0168732D01*
X0159538Y0168660D01*
X0159589Y0168589D01*
X0159644Y0168521D01*
X0159701Y0168456D01*
X0159762Y0168393D01*
X0159825Y0168332D01*
X0159890Y0168275D01*
X0159958Y0168220D01*
X0160029Y0168169D01*
X0160101Y0168120D01*
X0160176Y0168075D01*
X0160253Y0168033D01*
X0160331Y0167994D01*
X0160411Y0167959D01*
X0160492Y0167928D01*
X0160575Y0167900D01*
X0160658Y0167875D01*
X0160743Y0167854D01*
X0160829Y0167837D01*
X0160915Y0167824D01*
X0161002Y0167815D01*
X0161089Y0167809D01*
X0161176Y0167807D01*
X0198857Y0173607D02*
X0198857Y0176543D01*
X0224521Y0132245D02*
X0224521Y0131511D01*
X0224521Y0130043D02*
X0224521Y0127107D01*
X0223787Y0127107D02*
X0225255Y0127107D01*
X0226857Y0127107D02*
X0226857Y0130043D01*
X0229059Y0130043D01*
X0229792Y0129309D01*
X0229792Y0127107D01*
X0231461Y0127841D02*
X0232195Y0127107D01*
X0234396Y0127107D01*
X0234396Y0126373D02*
X0233662Y0125639D01*
X0232928Y0125639D01*
X0234396Y0126373D02*
X0234396Y0130043D01*
X0236064Y0130777D02*
X0236798Y0131511D01*
X0238266Y0131511D01*
X0239000Y0130777D01*
X0239000Y0130043D01*
X0236064Y0127107D01*
X0239000Y0127107D01*
X0240668Y0127841D02*
X0241402Y0127107D01*
X0242870Y0127107D01*
X0243604Y0127841D01*
X0243604Y0129309D01*
X0242870Y0130043D01*
X0242136Y0130043D01*
X0240668Y0129309D01*
X0240668Y0131511D01*
X0243604Y0131511D01*
X0240535Y0124011D02*
X0237599Y0124011D01*
X0237599Y0121809D01*
X0239067Y0122543D01*
X0239801Y0122543D01*
X0240535Y0121809D01*
X0240535Y0120341D01*
X0239801Y0119607D01*
X0238333Y0119607D01*
X0237599Y0120341D01*
X0235931Y0120341D02*
X0235931Y0121075D01*
X0235197Y0121809D01*
X0233729Y0121809D01*
X0232995Y0122543D01*
X0232995Y0123277D01*
X0233729Y0124011D01*
X0235197Y0124011D01*
X0235931Y0123277D01*
X0235931Y0122543D01*
X0235197Y0121809D01*
X0233729Y0121809D02*
X0232995Y0121075D01*
X0232995Y0120341D01*
X0233729Y0119607D01*
X0235197Y0119607D01*
X0235931Y0120341D01*
X0231327Y0124011D02*
X0228391Y0119607D01*
X0226723Y0120341D02*
X0225989Y0119607D01*
X0224521Y0119607D01*
X0223787Y0120341D01*
X0223787Y0121809D02*
X0225255Y0122543D01*
X0225989Y0122543D01*
X0226723Y0121809D01*
X0226723Y0120341D01*
X0223787Y0121809D02*
X0223787Y0124011D01*
X0226723Y0124011D01*
X0231461Y0127841D02*
X0231461Y0130043D01*
X0224521Y0130043D02*
X0223787Y0130043D01*
X0222119Y0131511D02*
X0219183Y0131511D01*
X0220651Y0131511D02*
X0220651Y0127107D01*
X0221385Y0124011D02*
X0219183Y0121809D01*
X0222119Y0121809D01*
X0221385Y0119607D02*
X0221385Y0124011D01*
X0217515Y0124011D02*
X0214580Y0119607D01*
X0216047Y0127107D02*
X0216047Y0131511D01*
X0214580Y0131511D02*
X0217515Y0131511D01*
X0212911Y0130043D02*
X0212911Y0127107D01*
X0212911Y0129309D02*
X0209976Y0129309D01*
X0209976Y0130043D02*
X0211444Y0131511D01*
X0212911Y0130043D01*
X0209976Y0130043D02*
X0209976Y0127107D01*
X0186676Y0110307D02*
X0186676Y0104307D01*
X0186674Y0104247D01*
X0186669Y0104186D01*
X0186660Y0104127D01*
X0186647Y0104068D01*
X0186631Y0104009D01*
X0186611Y0103952D01*
X0186588Y0103897D01*
X0186561Y0103842D01*
X0186532Y0103790D01*
X0186499Y0103739D01*
X0186463Y0103690D01*
X0186425Y0103644D01*
X0186383Y0103600D01*
X0186339Y0103558D01*
X0186293Y0103520D01*
X0186244Y0103484D01*
X0186193Y0103451D01*
X0186141Y0103422D01*
X0186086Y0103395D01*
X0186031Y0103372D01*
X0185974Y0103352D01*
X0185915Y0103336D01*
X0185856Y0103323D01*
X0185797Y0103314D01*
X0185736Y0103309D01*
X0185676Y0103307D01*
X0184176Y0103307D01*
X0183676Y0103807D01*
X0169676Y0103807D01*
X0169176Y0103307D01*
X0167676Y0103307D01*
X0167616Y0103309D01*
X0167555Y0103314D01*
X0167496Y0103323D01*
X0167437Y0103336D01*
X0167378Y0103352D01*
X0167321Y0103372D01*
X0167266Y0103395D01*
X0167211Y0103422D01*
X0167159Y0103451D01*
X0167108Y0103484D01*
X0167059Y0103520D01*
X0167013Y0103558D01*
X0166969Y0103600D01*
X0166927Y0103644D01*
X0166889Y0103690D01*
X0166853Y0103739D01*
X0166820Y0103790D01*
X0166791Y0103842D01*
X0166764Y0103897D01*
X0166741Y0103952D01*
X0166721Y0104009D01*
X0166705Y0104068D01*
X0166692Y0104127D01*
X0166683Y0104186D01*
X0166678Y0104247D01*
X0166676Y0104307D01*
X0166676Y0110307D01*
X0166678Y0110367D01*
X0166683Y0110428D01*
X0166692Y0110487D01*
X0166705Y0110546D01*
X0166721Y0110605D01*
X0166741Y0110662D01*
X0166764Y0110717D01*
X0166791Y0110772D01*
X0166820Y0110824D01*
X0166853Y0110875D01*
X0166889Y0110924D01*
X0166927Y0110970D01*
X0166969Y0111014D01*
X0167013Y0111056D01*
X0167059Y0111094D01*
X0167108Y0111130D01*
X0167159Y0111163D01*
X0167211Y0111192D01*
X0167266Y0111219D01*
X0167321Y0111242D01*
X0167378Y0111262D01*
X0167437Y0111278D01*
X0167496Y0111291D01*
X0167555Y0111300D01*
X0167616Y0111305D01*
X0167676Y0111307D01*
X0169176Y0111307D01*
X0169676Y0110807D01*
X0183676Y0110807D01*
X0184176Y0111307D01*
X0185676Y0111307D01*
X0185736Y0111305D01*
X0185797Y0111300D01*
X0185856Y0111291D01*
X0185915Y0111278D01*
X0185974Y0111262D01*
X0186031Y0111242D01*
X0186086Y0111219D01*
X0186141Y0111192D01*
X0186193Y0111163D01*
X0186244Y0111130D01*
X0186293Y0111094D01*
X0186339Y0111056D01*
X0186383Y0111014D01*
X0186425Y0110970D01*
X0186463Y0110924D01*
X0186499Y0110875D01*
X0186532Y0110824D01*
X0186561Y0110772D01*
X0186588Y0110717D01*
X0186611Y0110662D01*
X0186631Y0110605D01*
X0186647Y0110546D01*
X0186660Y0110487D01*
X0186669Y0110428D01*
X0186674Y0110367D01*
X0186676Y0110307D01*
X0185676Y0097307D02*
X0184176Y0097307D01*
X0183676Y0096807D01*
X0169676Y0096807D01*
X0169176Y0097307D01*
X0167676Y0097307D01*
X0167616Y0097305D01*
X0167555Y0097300D01*
X0167496Y0097291D01*
X0167437Y0097278D01*
X0167378Y0097262D01*
X0167321Y0097242D01*
X0167266Y0097219D01*
X0167211Y0097192D01*
X0167159Y0097163D01*
X0167108Y0097130D01*
X0167059Y0097094D01*
X0167013Y0097056D01*
X0166969Y0097014D01*
X0166927Y0096970D01*
X0166889Y0096924D01*
X0166853Y0096875D01*
X0166820Y0096824D01*
X0166791Y0096772D01*
X0166764Y0096717D01*
X0166741Y0096662D01*
X0166721Y0096605D01*
X0166705Y0096546D01*
X0166692Y0096487D01*
X0166683Y0096428D01*
X0166678Y0096367D01*
X0166676Y0096307D01*
X0166676Y0090307D01*
X0166678Y0090247D01*
X0166683Y0090186D01*
X0166692Y0090127D01*
X0166705Y0090068D01*
X0166721Y0090009D01*
X0166741Y0089952D01*
X0166764Y0089897D01*
X0166791Y0089842D01*
X0166820Y0089790D01*
X0166853Y0089739D01*
X0166889Y0089690D01*
X0166927Y0089644D01*
X0166969Y0089600D01*
X0167013Y0089558D01*
X0167059Y0089520D01*
X0167108Y0089484D01*
X0167159Y0089451D01*
X0167211Y0089422D01*
X0167266Y0089395D01*
X0167321Y0089372D01*
X0167378Y0089352D01*
X0167437Y0089336D01*
X0167496Y0089323D01*
X0167555Y0089314D01*
X0167616Y0089309D01*
X0167676Y0089307D01*
X0169176Y0089307D01*
X0169676Y0089807D01*
X0183676Y0089807D01*
X0184176Y0089307D01*
X0185676Y0089307D01*
X0185736Y0089309D01*
X0185797Y0089314D01*
X0185856Y0089323D01*
X0185915Y0089336D01*
X0185974Y0089352D01*
X0186031Y0089372D01*
X0186086Y0089395D01*
X0186141Y0089422D01*
X0186193Y0089451D01*
X0186244Y0089484D01*
X0186293Y0089520D01*
X0186339Y0089558D01*
X0186383Y0089600D01*
X0186425Y0089644D01*
X0186463Y0089690D01*
X0186499Y0089739D01*
X0186532Y0089790D01*
X0186561Y0089842D01*
X0186588Y0089897D01*
X0186611Y0089952D01*
X0186631Y0090009D01*
X0186647Y0090068D01*
X0186660Y0090127D01*
X0186669Y0090186D01*
X0186674Y0090247D01*
X0186676Y0090307D01*
X0186676Y0096307D01*
X0186674Y0096367D01*
X0186669Y0096428D01*
X0186660Y0096487D01*
X0186647Y0096546D01*
X0186631Y0096605D01*
X0186611Y0096662D01*
X0186588Y0096717D01*
X0186561Y0096772D01*
X0186532Y0096824D01*
X0186499Y0096875D01*
X0186463Y0096924D01*
X0186425Y0096970D01*
X0186383Y0097014D01*
X0186339Y0097056D01*
X0186293Y0097094D01*
X0186244Y0097130D01*
X0186193Y0097163D01*
X0186141Y0097192D01*
X0186086Y0097219D01*
X0186031Y0097242D01*
X0185974Y0097262D01*
X0185915Y0097278D01*
X0185856Y0097291D01*
X0185797Y0097300D01*
X0185736Y0097305D01*
X0185676Y0097307D01*
X0177199Y0078307D02*
X0172199Y0078307D01*
X0169699Y0075807D01*
X0169699Y0070807D01*
X0172199Y0068307D01*
X0177199Y0068307D01*
X0179699Y0070807D01*
X0179699Y0075807D01*
X0177199Y0078307D01*
X0169699Y0075807D02*
X0167199Y0078307D01*
X0162199Y0078307D01*
X0159699Y0075807D01*
X0159699Y0070807D02*
X0162199Y0068307D01*
X0167199Y0068307D01*
X0169699Y0070807D01*
X0212176Y0089807D02*
X0212176Y0096807D01*
X0212178Y0096867D01*
X0212183Y0096928D01*
X0212192Y0096987D01*
X0212205Y0097046D01*
X0212221Y0097105D01*
X0212241Y0097162D01*
X0212264Y0097217D01*
X0212291Y0097272D01*
X0212320Y0097324D01*
X0212353Y0097375D01*
X0212389Y0097424D01*
X0212427Y0097470D01*
X0212469Y0097514D01*
X0212513Y0097556D01*
X0212559Y0097594D01*
X0212608Y0097630D01*
X0212659Y0097663D01*
X0212711Y0097692D01*
X0212766Y0097719D01*
X0212821Y0097742D01*
X0212878Y0097762D01*
X0212937Y0097778D01*
X0212996Y0097791D01*
X0213055Y0097800D01*
X0213116Y0097805D01*
X0213176Y0097807D01*
X0214676Y0097807D01*
X0215176Y0097307D01*
X0234176Y0097307D01*
X0234676Y0097807D01*
X0236176Y0097807D01*
X0236236Y0097805D01*
X0236297Y0097800D01*
X0236356Y0097791D01*
X0236415Y0097778D01*
X0236474Y0097762D01*
X0236531Y0097742D01*
X0236586Y0097719D01*
X0236641Y0097692D01*
X0236693Y0097663D01*
X0236744Y0097630D01*
X0236793Y0097594D01*
X0236839Y0097556D01*
X0236883Y0097514D01*
X0236925Y0097470D01*
X0236963Y0097424D01*
X0236999Y0097375D01*
X0237032Y0097324D01*
X0237061Y0097272D01*
X0237088Y0097217D01*
X0237111Y0097162D01*
X0237131Y0097105D01*
X0237147Y0097046D01*
X0237160Y0096987D01*
X0237169Y0096928D01*
X0237174Y0096867D01*
X0237176Y0096807D01*
X0237176Y0089807D01*
X0237174Y0089747D01*
X0237169Y0089686D01*
X0237160Y0089627D01*
X0237147Y0089568D01*
X0237131Y0089509D01*
X0237111Y0089452D01*
X0237088Y0089397D01*
X0237061Y0089342D01*
X0237032Y0089290D01*
X0236999Y0089239D01*
X0236963Y0089190D01*
X0236925Y0089144D01*
X0236883Y0089100D01*
X0236839Y0089058D01*
X0236793Y0089020D01*
X0236744Y0088984D01*
X0236693Y0088951D01*
X0236641Y0088922D01*
X0236586Y0088895D01*
X0236531Y0088872D01*
X0236474Y0088852D01*
X0236415Y0088836D01*
X0236356Y0088823D01*
X0236297Y0088814D01*
X0236236Y0088809D01*
X0236176Y0088807D01*
X0234676Y0088807D01*
X0234176Y0089307D01*
X0215176Y0089307D01*
X0214676Y0088807D01*
X0213176Y0088807D01*
X0213116Y0088809D01*
X0213055Y0088814D01*
X0212996Y0088823D01*
X0212937Y0088836D01*
X0212878Y0088852D01*
X0212821Y0088872D01*
X0212766Y0088895D01*
X0212711Y0088922D01*
X0212659Y0088951D01*
X0212608Y0088984D01*
X0212559Y0089020D01*
X0212513Y0089058D01*
X0212469Y0089100D01*
X0212427Y0089144D01*
X0212389Y0089190D01*
X0212353Y0089239D01*
X0212320Y0089290D01*
X0212291Y0089342D01*
X0212264Y0089397D01*
X0212241Y0089452D01*
X0212221Y0089509D01*
X0212205Y0089568D01*
X0212192Y0089627D01*
X0212183Y0089686D01*
X0212178Y0089747D01*
X0212176Y0089807D01*
X0206970Y0223607D02*
X0204034Y0223607D01*
X0206970Y0226543D01*
D15*
X0205209Y0252407D02*
X0203741Y0253875D01*
X0205209Y0253875D01*
X0205576Y0253508D01*
X0205576Y0252774D01*
X0205209Y0252407D01*
X0203741Y0252407D01*
X0203374Y0252774D01*
X0203374Y0253508D01*
X0203741Y0253875D01*
X0204475Y0254617D02*
X0204475Y0256085D01*
X0205576Y0255718D02*
X0203374Y0255718D01*
X0204475Y0254617D01*
X0213374Y0254984D02*
X0213374Y0255718D01*
X0213741Y0256085D01*
X0214108Y0256085D01*
X0214475Y0255718D01*
X0214842Y0256085D01*
X0215209Y0256085D01*
X0215576Y0255718D01*
X0215576Y0254984D01*
X0215209Y0254617D01*
X0215209Y0253875D02*
X0215576Y0253508D01*
X0215576Y0252774D01*
X0215209Y0252407D01*
X0213741Y0253875D01*
X0215209Y0253875D01*
X0215209Y0252407D02*
X0213741Y0252407D01*
X0213374Y0252774D01*
X0213374Y0253508D01*
X0213741Y0253875D01*
X0213741Y0254617D02*
X0213374Y0254984D01*
X0214475Y0255351D02*
X0214475Y0255718D01*
X0223374Y0255718D02*
X0223374Y0254984D01*
X0223741Y0254617D01*
X0223741Y0253875D02*
X0225209Y0252407D01*
X0225576Y0252774D01*
X0225576Y0253508D01*
X0225209Y0253875D01*
X0223741Y0253875D01*
X0223374Y0253508D01*
X0223374Y0252774D01*
X0223741Y0252407D01*
X0225209Y0252407D01*
X0225576Y0254617D02*
X0224108Y0256085D01*
X0223741Y0256085D01*
X0223374Y0255718D01*
X0225576Y0256085D02*
X0225576Y0254617D01*
X0233374Y0255351D02*
X0235576Y0255351D01*
X0235576Y0254617D02*
X0235576Y0256085D01*
X0234108Y0254617D02*
X0233374Y0255351D01*
X0233741Y0253875D02*
X0235209Y0252407D01*
X0235576Y0252774D01*
X0235576Y0253508D01*
X0235209Y0253875D01*
X0233741Y0253875D01*
X0233374Y0253508D01*
X0233374Y0252774D01*
X0233741Y0252407D01*
X0235209Y0252407D01*
X0243374Y0252774D02*
X0243374Y0253508D01*
X0243741Y0253875D01*
X0245209Y0252407D01*
X0245576Y0252774D01*
X0245576Y0253508D01*
X0245209Y0253875D01*
X0243741Y0253875D01*
X0243741Y0254617D02*
X0243374Y0254984D01*
X0243374Y0255718D01*
X0243741Y0256085D01*
X0245209Y0254617D01*
X0245576Y0254984D01*
X0245576Y0255718D01*
X0245209Y0256085D01*
X0243741Y0256085D01*
X0243741Y0254617D02*
X0245209Y0254617D01*
X0245209Y0252407D02*
X0243741Y0252407D01*
X0243374Y0252774D01*
X0195576Y0252774D02*
X0195209Y0252407D01*
X0193741Y0253875D01*
X0195209Y0253875D01*
X0195576Y0253508D01*
X0195576Y0252774D01*
X0195209Y0252407D02*
X0193741Y0252407D01*
X0193374Y0252774D01*
X0193374Y0253508D01*
X0193741Y0253875D01*
X0193374Y0254617D02*
X0194475Y0254617D01*
X0194108Y0255351D01*
X0194108Y0255718D01*
X0194475Y0256085D01*
X0195209Y0256085D01*
X0195576Y0255718D01*
X0195576Y0254984D01*
X0195209Y0254617D01*
X0193374Y0254617D02*
X0193374Y0256085D01*
X0185576Y0255718D02*
X0185576Y0254984D01*
X0185209Y0254617D01*
X0184475Y0254617D01*
X0184475Y0255718D01*
X0184842Y0256085D01*
X0185209Y0256085D01*
X0185576Y0255718D01*
X0184475Y0254617D02*
X0183741Y0255351D01*
X0183374Y0256085D01*
X0183741Y0253875D02*
X0185209Y0252407D01*
X0185576Y0252774D01*
X0185576Y0253508D01*
X0185209Y0253875D01*
X0183741Y0253875D01*
X0183374Y0253508D01*
X0183374Y0252774D01*
X0183741Y0252407D01*
X0185209Y0252407D01*
X0175576Y0252774D02*
X0175209Y0252407D01*
X0173741Y0253875D01*
X0175209Y0253875D01*
X0175576Y0253508D01*
X0175576Y0252774D01*
X0175209Y0252407D02*
X0173741Y0252407D01*
X0173374Y0252774D01*
X0173374Y0253508D01*
X0173741Y0253875D01*
X0173374Y0254617D02*
X0173374Y0256085D01*
X0173741Y0256085D01*
X0175209Y0254617D01*
X0175576Y0254617D01*
X0159576Y0254984D02*
X0159209Y0254617D01*
X0158842Y0254617D01*
X0158475Y0254984D01*
X0158475Y0255718D01*
X0158842Y0256085D01*
X0159209Y0256085D01*
X0159576Y0255718D01*
X0159576Y0254984D01*
X0158475Y0254984D02*
X0158108Y0254617D01*
X0157741Y0254617D01*
X0157374Y0254984D01*
X0157374Y0255718D01*
X0157741Y0256085D01*
X0158108Y0256085D01*
X0158475Y0255718D01*
X0159209Y0253875D02*
X0159576Y0253508D01*
X0159576Y0252774D01*
X0159209Y0252407D01*
X0157741Y0253875D01*
X0159209Y0253875D01*
X0159209Y0252407D02*
X0157741Y0252407D01*
X0157374Y0252774D01*
X0157374Y0253508D01*
X0157741Y0253875D01*
X0149576Y0253508D02*
X0149576Y0252774D01*
X0149209Y0252407D01*
X0147741Y0253875D01*
X0149209Y0253875D01*
X0149576Y0253508D01*
X0149209Y0252407D02*
X0147741Y0252407D01*
X0147374Y0252774D01*
X0147374Y0253508D01*
X0147741Y0253875D01*
X0147741Y0254617D02*
X0148108Y0254617D01*
X0148475Y0254984D01*
X0148475Y0256085D01*
X0149209Y0256085D02*
X0147741Y0256085D01*
X0147374Y0255718D01*
X0147374Y0254984D01*
X0147741Y0254617D01*
X0149209Y0254617D02*
X0149576Y0254984D01*
X0149576Y0255718D01*
X0149209Y0256085D01*
X0139576Y0255718D02*
X0139576Y0254984D01*
X0139209Y0254617D01*
X0137741Y0256085D01*
X0139209Y0256085D01*
X0139576Y0255718D01*
X0139209Y0254617D02*
X0137741Y0254617D01*
X0137374Y0254984D01*
X0137374Y0255718D01*
X0137741Y0256085D01*
X0139576Y0253875D02*
X0139576Y0252407D01*
X0139576Y0253141D02*
X0137374Y0253141D01*
X0138108Y0252407D01*
X0129576Y0252407D02*
X0129576Y0253875D01*
X0129576Y0253141D02*
X0127374Y0253141D01*
X0128108Y0252407D01*
X0128108Y0254617D02*
X0127374Y0255351D01*
X0129576Y0255351D01*
X0129576Y0254617D02*
X0129576Y0256085D01*
X0119576Y0256085D02*
X0119576Y0254617D01*
X0118108Y0256085D01*
X0117741Y0256085D01*
X0117374Y0255718D01*
X0117374Y0254984D01*
X0117741Y0254617D01*
X0117374Y0253141D02*
X0119576Y0253141D01*
X0119576Y0252407D02*
X0119576Y0253875D01*
X0118108Y0252407D02*
X0117374Y0253141D01*
X0109576Y0253141D02*
X0107374Y0253141D01*
X0108108Y0252407D01*
X0109576Y0252407D02*
X0109576Y0253875D01*
X0109209Y0254617D02*
X0109576Y0254984D01*
X0109576Y0255718D01*
X0109209Y0256085D01*
X0108842Y0256085D01*
X0108475Y0255718D01*
X0108475Y0255351D01*
X0108475Y0255718D02*
X0108108Y0256085D01*
X0107741Y0256085D01*
X0107374Y0255718D01*
X0107374Y0254984D01*
X0107741Y0254617D01*
X0099576Y0254827D02*
X0099576Y0255928D01*
X0099209Y0256295D01*
X0097741Y0256295D01*
X0097374Y0255928D01*
X0097374Y0254827D01*
X0099576Y0254827D01*
X0099576Y0254085D02*
X0097374Y0254085D01*
X0097374Y0252617D02*
X0099576Y0254085D01*
X0099576Y0252617D02*
X0097374Y0252617D01*
X0097741Y0251875D02*
X0097374Y0251508D01*
X0097374Y0250774D01*
X0097741Y0250407D01*
X0099209Y0250407D01*
X0099576Y0250774D01*
X0099576Y0251508D01*
X0099209Y0251875D01*
X0098475Y0251875D01*
X0098475Y0251141D01*
X0089576Y0250617D02*
X0087374Y0250617D01*
X0087374Y0251718D01*
X0087741Y0252085D01*
X0088475Y0252085D01*
X0088842Y0251718D01*
X0088842Y0250617D01*
X0088842Y0251351D02*
X0089576Y0252085D01*
X0089576Y0252827D02*
X0089576Y0254295D01*
X0089576Y0255037D02*
X0087374Y0255037D01*
X0087374Y0256505D01*
X0088475Y0255771D02*
X0088475Y0255037D01*
X0087374Y0254295D02*
X0087374Y0252827D01*
X0089576Y0252827D01*
X0088475Y0252827D02*
X0088475Y0253561D01*
X0088475Y0249875D02*
X0088475Y0248407D01*
X0088108Y0248407D02*
X0087374Y0249141D01*
X0088108Y0249875D01*
X0089576Y0249875D01*
X0089576Y0248407D02*
X0088108Y0248407D01*
X0113374Y0089978D02*
X0113374Y0088510D01*
X0115576Y0088510D01*
X0115576Y0087768D02*
X0115576Y0086300D01*
X0113374Y0086300D01*
X0113374Y0087768D01*
X0114475Y0087034D02*
X0114475Y0086300D01*
X0114475Y0085558D02*
X0114842Y0085191D01*
X0114842Y0084090D01*
X0115576Y0084090D02*
X0113374Y0084090D01*
X0113374Y0085191D01*
X0113741Y0085558D01*
X0114475Y0085558D01*
X0114842Y0084824D02*
X0115576Y0085558D01*
X0115209Y0083348D02*
X0113741Y0083348D01*
X0113374Y0082981D01*
X0113374Y0082247D01*
X0113741Y0081880D01*
X0115209Y0081880D01*
X0115576Y0082247D01*
X0115576Y0082981D01*
X0115209Y0083348D01*
X0115576Y0081141D02*
X0115576Y0080407D01*
X0115576Y0080774D02*
X0113374Y0080774D01*
X0113374Y0080407D02*
X0113374Y0081141D01*
X0114475Y0088510D02*
X0114475Y0089244D01*
X0123374Y0089247D02*
X0123374Y0090715D01*
X0123374Y0089981D02*
X0125576Y0089981D01*
X0125576Y0088505D02*
X0125576Y0087037D01*
X0123374Y0087037D01*
X0123374Y0088505D01*
X0124475Y0087771D02*
X0124475Y0087037D01*
X0124842Y0086295D02*
X0125209Y0086295D01*
X0125576Y0085928D01*
X0125576Y0085194D01*
X0125209Y0084827D01*
X0124475Y0085194D02*
X0124475Y0085928D01*
X0124842Y0086295D01*
X0123741Y0086295D02*
X0123374Y0085928D01*
X0123374Y0085194D01*
X0123741Y0084827D01*
X0124108Y0084827D01*
X0124475Y0085194D01*
X0125576Y0084085D02*
X0125576Y0082617D01*
X0123374Y0082617D01*
X0123374Y0084085D01*
X0124475Y0083351D02*
X0124475Y0082617D01*
X0124475Y0081875D02*
X0124842Y0081508D01*
X0124842Y0080407D01*
X0125576Y0080407D02*
X0123374Y0080407D01*
X0123374Y0081508D01*
X0123741Y0081875D01*
X0124475Y0081875D01*
X0124842Y0081141D02*
X0125576Y0081875D01*
X0133374Y0081508D02*
X0133741Y0081875D01*
X0134108Y0081875D01*
X0134475Y0081508D01*
X0134842Y0081875D01*
X0135209Y0081875D01*
X0135576Y0081508D01*
X0135576Y0080774D01*
X0135209Y0080407D01*
X0134475Y0081141D02*
X0134475Y0081508D01*
X0133374Y0081508D02*
X0133374Y0080774D01*
X0133741Y0080407D01*
X0135209Y0082617D02*
X0135209Y0082984D01*
X0135576Y0082984D01*
X0135576Y0082617D01*
X0135209Y0082617D01*
X0135209Y0083722D02*
X0135576Y0084089D01*
X0135576Y0084823D01*
X0135209Y0085190D01*
X0134842Y0085190D01*
X0134475Y0084823D01*
X0134475Y0084456D01*
X0134475Y0084823D02*
X0134108Y0085190D01*
X0133741Y0085190D01*
X0133374Y0084823D01*
X0133374Y0084089D01*
X0133741Y0083722D01*
X0133374Y0085932D02*
X0134842Y0085932D01*
X0135576Y0086666D01*
X0134842Y0087400D01*
X0133374Y0087400D01*
X0143374Y0084085D02*
X0144842Y0084085D01*
X0145576Y0083351D01*
X0144842Y0082617D01*
X0143374Y0082617D01*
X0143374Y0081875D02*
X0143374Y0080407D01*
X0144475Y0080407D01*
X0144108Y0081141D01*
X0144108Y0081508D01*
X0144475Y0081875D01*
X0145209Y0081875D01*
X0145576Y0081508D01*
X0145576Y0080774D01*
X0145209Y0080407D01*
X0153374Y0080774D02*
X0153741Y0080407D01*
X0155209Y0080407D01*
X0155576Y0080774D01*
X0155576Y0081508D01*
X0155209Y0081875D01*
X0154475Y0081875D01*
X0154475Y0081141D01*
X0153741Y0081875D02*
X0153374Y0081508D01*
X0153374Y0080774D01*
X0153374Y0082617D02*
X0155576Y0084085D01*
X0153374Y0084085D01*
X0153374Y0084827D02*
X0153374Y0085928D01*
X0153741Y0086295D01*
X0155209Y0086295D01*
X0155576Y0085928D01*
X0155576Y0084827D01*
X0153374Y0084827D01*
X0153374Y0082617D02*
X0155576Y0082617D01*
X0163374Y0082617D02*
X0165576Y0084085D01*
X0163374Y0084085D01*
X0163374Y0084827D02*
X0163374Y0085928D01*
X0163741Y0086295D01*
X0165209Y0086295D01*
X0165576Y0085928D01*
X0165576Y0084827D01*
X0163374Y0084827D01*
X0163374Y0082617D02*
X0165576Y0082617D01*
X0165209Y0081875D02*
X0164475Y0081875D01*
X0164475Y0081141D01*
X0165209Y0080407D02*
X0165576Y0080774D01*
X0165576Y0081508D01*
X0165209Y0081875D01*
X0165209Y0080407D02*
X0163741Y0080407D01*
X0163374Y0080774D01*
X0163374Y0081508D01*
X0163741Y0081875D01*
X0173374Y0081875D02*
X0174842Y0081875D01*
X0175576Y0081141D01*
X0174842Y0080407D01*
X0173374Y0080407D01*
X0173374Y0082617D02*
X0173374Y0083351D01*
X0173374Y0082984D02*
X0175576Y0082984D01*
X0175576Y0082617D02*
X0175576Y0083351D01*
X0175576Y0084090D02*
X0173374Y0084090D01*
X0175576Y0085558D01*
X0173374Y0085558D01*
X0193374Y0083718D02*
X0193741Y0084085D01*
X0195209Y0082617D01*
X0195576Y0082984D01*
X0195576Y0083718D01*
X0195209Y0084085D01*
X0193741Y0084085D01*
X0193374Y0083718D02*
X0193374Y0082984D01*
X0193741Y0082617D01*
X0195209Y0082617D01*
X0195576Y0081875D02*
X0194108Y0081875D01*
X0193374Y0081141D01*
X0194108Y0080407D01*
X0195576Y0080407D01*
X0194475Y0080407D02*
X0194475Y0081875D01*
X0203374Y0081141D02*
X0204108Y0081875D01*
X0205576Y0081875D01*
X0205576Y0082617D02*
X0205576Y0084085D01*
X0205576Y0083351D02*
X0203374Y0083351D01*
X0204108Y0082617D01*
X0204475Y0081875D02*
X0204475Y0080407D01*
X0204108Y0080407D02*
X0203374Y0081141D01*
X0204108Y0080407D02*
X0205576Y0080407D01*
X0213374Y0081141D02*
X0214108Y0081875D01*
X0215576Y0081875D01*
X0215576Y0082617D02*
X0214108Y0084085D01*
X0213741Y0084085D01*
X0213374Y0083718D01*
X0213374Y0082984D01*
X0213741Y0082617D01*
X0214475Y0081875D02*
X0214475Y0080407D01*
X0214108Y0080407D02*
X0215576Y0080407D01*
X0214108Y0080407D02*
X0213374Y0081141D01*
X0215576Y0082617D02*
X0215576Y0084085D01*
X0223374Y0083718D02*
X0223741Y0084085D01*
X0224108Y0084085D01*
X0224475Y0083718D01*
X0224842Y0084085D01*
X0225209Y0084085D01*
X0225576Y0083718D01*
X0225576Y0082984D01*
X0225209Y0082617D01*
X0225576Y0081875D02*
X0224108Y0081875D01*
X0223374Y0081141D01*
X0224108Y0080407D01*
X0225576Y0080407D01*
X0224475Y0080407D02*
X0224475Y0081875D01*
X0223741Y0082617D02*
X0223374Y0082984D01*
X0223374Y0083718D01*
X0224475Y0083718D02*
X0224475Y0083351D01*
X0233374Y0083718D02*
X0234475Y0082617D01*
X0234475Y0084085D01*
X0235576Y0083718D02*
X0233374Y0083718D01*
X0234108Y0081875D02*
X0235576Y0081875D01*
X0234475Y0081875D02*
X0234475Y0080407D01*
X0234108Y0080407D02*
X0233374Y0081141D01*
X0234108Y0081875D01*
X0234108Y0080407D02*
X0235576Y0080407D01*
X0243374Y0081141D02*
X0244108Y0081875D01*
X0245576Y0081875D01*
X0245209Y0082617D02*
X0245576Y0082984D01*
X0245576Y0083718D01*
X0245209Y0084085D01*
X0244475Y0084085D01*
X0244108Y0083718D01*
X0244108Y0083351D01*
X0244475Y0082617D01*
X0243374Y0082617D01*
X0243374Y0084085D01*
X0244475Y0081875D02*
X0244475Y0080407D01*
X0244108Y0080407D02*
X0243374Y0081141D01*
X0244108Y0080407D02*
X0245576Y0080407D01*
D16*
X0222532Y0091557D02*
X0219530Y0091557D01*
X0222532Y0094560D01*
X0222532Y0095310D01*
X0221781Y0096061D01*
X0220280Y0096061D01*
X0219530Y0095310D01*
X0217928Y0095310D02*
X0217928Y0093809D01*
X0217178Y0093058D01*
X0214926Y0093058D01*
X0216427Y0093058D02*
X0217928Y0091557D01*
X0214926Y0091557D02*
X0214926Y0096061D01*
X0217178Y0096061D01*
X0217928Y0095310D01*
X0201926Y0110557D02*
X0197422Y0110557D01*
X0198923Y0112058D01*
X0197422Y0113560D01*
X0201926Y0113560D01*
X0201175Y0115161D02*
X0201926Y0115912D01*
X0201926Y0117413D01*
X0201175Y0118164D01*
X0201175Y0119765D02*
X0197422Y0119765D01*
X0198172Y0118164D02*
X0197422Y0117413D01*
X0197422Y0115912D01*
X0198172Y0115161D01*
X0201175Y0115161D01*
X0201175Y0119765D02*
X0201926Y0120516D01*
X0201926Y0122017D01*
X0201175Y0122767D01*
X0197422Y0122767D01*
X0198172Y0124369D02*
X0197422Y0125120D01*
X0197422Y0126621D01*
X0198172Y0127371D01*
X0198923Y0127371D01*
X0199674Y0126621D01*
X0200424Y0127371D01*
X0201175Y0127371D01*
X0201926Y0126621D01*
X0201926Y0125120D01*
X0201175Y0124369D01*
X0199674Y0125870D02*
X0199674Y0126621D01*
X0157926Y0168808D02*
X0157175Y0168057D01*
X0154172Y0168057D01*
X0153422Y0168808D01*
X0153422Y0170309D01*
X0154172Y0171060D01*
X0154923Y0172661D02*
X0153422Y0174162D01*
X0157926Y0174162D01*
X0157926Y0172661D02*
X0157926Y0175664D01*
X0157175Y0171060D02*
X0157926Y0170309D01*
X0157926Y0168808D01*
X0136032Y0153810D02*
X0136032Y0153060D01*
X0135281Y0152309D01*
X0136032Y0151558D01*
X0136032Y0150808D01*
X0135281Y0150057D01*
X0133780Y0150057D01*
X0133030Y0150808D01*
X0131428Y0150057D02*
X0129927Y0151558D01*
X0130678Y0151558D02*
X0128426Y0151558D01*
X0128426Y0150057D02*
X0128426Y0154561D01*
X0130678Y0154561D01*
X0131428Y0153810D01*
X0131428Y0152309D01*
X0130678Y0151558D01*
X0133030Y0153810D02*
X0133780Y0154561D01*
X0135281Y0154561D01*
X0136032Y0153810D01*
X0135281Y0152309D02*
X0134531Y0152309D01*
X0136074Y0139561D02*
X0133822Y0137309D01*
X0136824Y0137309D01*
X0136074Y0135057D02*
X0136074Y0139561D01*
X0132220Y0138810D02*
X0132220Y0137309D01*
X0131470Y0136558D01*
X0129218Y0136558D01*
X0129218Y0135057D02*
X0129218Y0139561D01*
X0131470Y0139561D01*
X0132220Y0138810D01*
X0130719Y0136558D02*
X0132220Y0135057D01*
X0130678Y0123561D02*
X0128426Y0123561D01*
X0128426Y0119057D01*
X0128426Y0120558D02*
X0130678Y0120558D01*
X0131428Y0121309D01*
X0131428Y0122810D01*
X0130678Y0123561D01*
X0129927Y0120558D02*
X0131428Y0119057D01*
X0133030Y0119808D02*
X0133030Y0121309D01*
X0135281Y0121309D01*
X0136032Y0120558D01*
X0136032Y0119808D01*
X0135281Y0119057D01*
X0133780Y0119057D01*
X0133030Y0119808D01*
X0133030Y0121309D02*
X0134531Y0122810D01*
X0136032Y0123561D01*
X0094882Y0147892D02*
X0094882Y0150561D01*
X0092213Y0150561D02*
X0092213Y0147892D01*
X0093547Y0146557D01*
X0094882Y0147892D01*
X0090738Y0149226D02*
X0090738Y0149893D01*
X0090071Y0150561D01*
X0088736Y0150561D01*
X0088069Y0149893D01*
X0090738Y0149226D02*
X0088069Y0146557D01*
X0090738Y0146557D01*
X0086595Y0146557D02*
X0083926Y0146557D01*
X0085260Y0146557D02*
X0085260Y0150561D01*
X0083926Y0149226D01*
X0083195Y0174102D02*
X0083195Y0198512D01*
X0084770Y0198512D01*
X0096581Y0198512D02*
X0098156Y0198512D01*
X0098156Y0174102D01*
X0096581Y0174102D01*
X0084770Y0174102D02*
X0083195Y0174102D01*
D17*
X0123976Y0152307D03*
X0123976Y0137307D03*
X0123976Y0121307D03*
X0161376Y0121307D03*
X0161376Y0137307D03*
X0161376Y0152307D03*
X0210476Y0093307D03*
X0238876Y0093307D03*
D18*
X0187426Y0093307D03*
X0187426Y0107307D03*
X0165926Y0107307D03*
X0165926Y0093307D03*
D19*
X0125726Y0102242D02*
X0125943Y0101747D01*
X0125942Y0101748D02*
X0125737Y0101654D01*
X0125534Y0101555D01*
X0125334Y0101451D01*
X0125136Y0101343D01*
X0124941Y0101230D01*
X0124749Y0101111D01*
X0124560Y0100989D01*
X0124374Y0100861D01*
X0124191Y0100730D01*
X0124011Y0100593D01*
X0123835Y0100453D01*
X0123662Y0100308D01*
X0123493Y0100159D01*
X0123327Y0100006D01*
X0123165Y0099848D01*
X0123007Y0099687D01*
X0122853Y0099522D01*
X0122704Y0099354D01*
X0122558Y0099182D01*
X0122417Y0099006D01*
X0122279Y0098827D01*
X0122147Y0098644D01*
X0122019Y0098459D01*
X0121895Y0098270D01*
X0121776Y0098079D01*
X0121662Y0097884D01*
X0121552Y0097687D01*
X0121448Y0097487D01*
X0121348Y0097285D01*
X0121253Y0097080D01*
X0121164Y0096873D01*
X0121079Y0096664D01*
X0121000Y0096453D01*
X0120925Y0096240D01*
X0120856Y0096025D01*
X0120793Y0095809D01*
X0120734Y0095591D01*
X0120681Y0095372D01*
X0120633Y0095151D01*
X0120591Y0094930D01*
X0120554Y0094707D01*
X0120522Y0094484D01*
X0120496Y0094260D01*
X0120476Y0094035D01*
X0120461Y0093810D01*
X0120451Y0093585D01*
X0120447Y0093360D01*
X0120449Y0093134D01*
X0120456Y0092909D01*
X0120468Y0092683D01*
X0120486Y0092459D01*
X0120510Y0092234D01*
X0120539Y0092011D01*
X0120573Y0091788D01*
X0120613Y0091566D01*
X0120658Y0091345D01*
X0120709Y0091125D01*
X0120765Y0090906D01*
X0120826Y0090689D01*
X0120893Y0090474D01*
X0120964Y0090260D01*
X0121041Y0090048D01*
X0121124Y0089838D01*
X0121211Y0089630D01*
X0121303Y0089424D01*
X0121401Y0089221D01*
X0121503Y0089020D01*
X0121610Y0088821D01*
X0121722Y0088626D01*
X0121839Y0088433D01*
X0121960Y0088243D01*
X0122086Y0088056D01*
X0122217Y0087872D01*
X0122352Y0087691D01*
X0122492Y0087514D01*
X0122635Y0087340D01*
X0122783Y0087170D01*
X0122935Y0087003D01*
X0123091Y0086840D01*
X0123251Y0086681D01*
X0123415Y0086526D01*
X0123050Y0086129D01*
X0123050Y0086128D01*
X0122876Y0086292D01*
X0122707Y0086461D01*
X0122542Y0086633D01*
X0122381Y0086809D01*
X0122224Y0086990D01*
X0122072Y0087174D01*
X0121924Y0087361D01*
X0121781Y0087553D01*
X0121643Y0087747D01*
X0121510Y0087945D01*
X0121381Y0088146D01*
X0121257Y0088351D01*
X0121139Y0088558D01*
X0121025Y0088768D01*
X0120917Y0088981D01*
X0120814Y0089196D01*
X0120716Y0089414D01*
X0120624Y0089634D01*
X0120537Y0089857D01*
X0120455Y0090081D01*
X0120379Y0090307D01*
X0120308Y0090535D01*
X0120243Y0090765D01*
X0120184Y0090997D01*
X0120130Y0091229D01*
X0120083Y0091463D01*
X0120040Y0091698D01*
X0120004Y0091934D01*
X0119973Y0092171D01*
X0119948Y0092408D01*
X0119929Y0092646D01*
X0119916Y0092885D01*
X0119909Y0093124D01*
X0119907Y0093362D01*
X0119911Y0093601D01*
X0119922Y0093840D01*
X0119937Y0094078D01*
X0119959Y0094316D01*
X0119987Y0094553D01*
X0120020Y0094789D01*
X0120059Y0095025D01*
X0120104Y0095259D01*
X0120155Y0095493D01*
X0120211Y0095725D01*
X0120273Y0095955D01*
X0120340Y0096184D01*
X0120413Y0096412D01*
X0120492Y0096637D01*
X0120576Y0096861D01*
X0120666Y0097082D01*
X0120761Y0097301D01*
X0120861Y0097518D01*
X0120967Y0097732D01*
X0121077Y0097944D01*
X0121193Y0098152D01*
X0121314Y0098358D01*
X0121440Y0098561D01*
X0121571Y0098761D01*
X0121707Y0098957D01*
X0121847Y0099150D01*
X0121992Y0099340D01*
X0122142Y0099526D01*
X0122296Y0099708D01*
X0122455Y0099887D01*
X0122618Y0100061D01*
X0122785Y0100232D01*
X0122956Y0100398D01*
X0123132Y0100560D01*
X0123311Y0100718D01*
X0123494Y0100872D01*
X0123681Y0101020D01*
X0123871Y0101165D01*
X0124065Y0101304D01*
X0124262Y0101439D01*
X0124462Y0101569D01*
X0124666Y0101694D01*
X0124872Y0101814D01*
X0125081Y0101929D01*
X0125293Y0102038D01*
X0125508Y0102143D01*
X0125725Y0102242D01*
X0125748Y0102191D01*
X0125532Y0102092D01*
X0125318Y0101988D01*
X0125108Y0101879D01*
X0124899Y0101765D01*
X0124694Y0101646D01*
X0124492Y0101521D01*
X0124293Y0101392D01*
X0124097Y0101258D01*
X0123904Y0101119D01*
X0123715Y0100976D01*
X0123529Y0100828D01*
X0123347Y0100676D01*
X0123169Y0100519D01*
X0122995Y0100358D01*
X0122824Y0100192D01*
X0122658Y0100023D01*
X0122496Y0099849D01*
X0122338Y0099672D01*
X0122185Y0099490D01*
X0122036Y0099305D01*
X0121892Y0099117D01*
X0121752Y0098925D01*
X0121617Y0098730D01*
X0121487Y0098531D01*
X0121362Y0098329D01*
X0121242Y0098125D01*
X0121127Y0097917D01*
X0121016Y0097707D01*
X0120912Y0097494D01*
X0120812Y0097278D01*
X0120717Y0097060D01*
X0120628Y0096840D01*
X0120545Y0096618D01*
X0120467Y0096394D01*
X0120394Y0096168D01*
X0120327Y0095940D01*
X0120265Y0095711D01*
X0120209Y0095480D01*
X0120159Y0095248D01*
X0120114Y0095015D01*
X0120075Y0094781D01*
X0120042Y0094546D01*
X0120015Y0094310D01*
X0119993Y0094073D01*
X0119977Y0093837D01*
X0119967Y0093599D01*
X0119963Y0093362D01*
X0119965Y0093125D01*
X0119972Y0092887D01*
X0119985Y0092650D01*
X0120004Y0092414D01*
X0120029Y0092178D01*
X0120059Y0091942D01*
X0120096Y0091707D01*
X0120138Y0091474D01*
X0120185Y0091241D01*
X0120239Y0091010D01*
X0120297Y0090780D01*
X0120362Y0090551D01*
X0120432Y0090325D01*
X0120508Y0090100D01*
X0120589Y0089876D01*
X0120675Y0089655D01*
X0120767Y0089436D01*
X0120865Y0089220D01*
X0120967Y0089006D01*
X0121075Y0088794D01*
X0121188Y0088585D01*
X0121306Y0088379D01*
X0121429Y0088176D01*
X0121556Y0087976D01*
X0121689Y0087779D01*
X0121827Y0087586D01*
X0121969Y0087396D01*
X0122116Y0087209D01*
X0122267Y0087026D01*
X0122423Y0086847D01*
X0122583Y0086671D01*
X0122747Y0086500D01*
X0122915Y0086333D01*
X0123088Y0086170D01*
X0123126Y0086211D01*
X0122954Y0086373D01*
X0122787Y0086539D01*
X0122623Y0086710D01*
X0122464Y0086884D01*
X0122309Y0087062D01*
X0122159Y0087244D01*
X0122013Y0087430D01*
X0121872Y0087619D01*
X0121735Y0087811D01*
X0121603Y0088007D01*
X0121476Y0088206D01*
X0121354Y0088408D01*
X0121237Y0088613D01*
X0121124Y0088820D01*
X0121017Y0089031D01*
X0120915Y0089244D01*
X0120819Y0089459D01*
X0120727Y0089676D01*
X0120641Y0089896D01*
X0120561Y0090118D01*
X0120485Y0090342D01*
X0120416Y0090567D01*
X0120352Y0090795D01*
X0120293Y0091023D01*
X0120240Y0091253D01*
X0120193Y0091484D01*
X0120151Y0091717D01*
X0120115Y0091950D01*
X0120085Y0092184D01*
X0120060Y0092419D01*
X0120041Y0092654D01*
X0120028Y0092890D01*
X0120021Y0093126D01*
X0120019Y0093362D01*
X0120023Y0093598D01*
X0120033Y0093834D01*
X0120049Y0094069D01*
X0120071Y0094304D01*
X0120098Y0094539D01*
X0120131Y0094772D01*
X0120169Y0095005D01*
X0120214Y0095237D01*
X0120264Y0095468D01*
X0120319Y0095697D01*
X0120381Y0095925D01*
X0120447Y0096151D01*
X0120520Y0096376D01*
X0120597Y0096599D01*
X0120681Y0096820D01*
X0120769Y0097039D01*
X0120863Y0097255D01*
X0120962Y0097470D01*
X0121066Y0097681D01*
X0121176Y0097890D01*
X0121290Y0098097D01*
X0121410Y0098300D01*
X0121534Y0098501D01*
X0121664Y0098698D01*
X0121798Y0098892D01*
X0121937Y0099083D01*
X0122080Y0099271D01*
X0122228Y0099455D01*
X0122381Y0099635D01*
X0122538Y0099811D01*
X0122699Y0099984D01*
X0122864Y0100152D01*
X0123033Y0100317D01*
X0123206Y0100477D01*
X0123384Y0100633D01*
X0123565Y0100785D01*
X0123749Y0100932D01*
X0123937Y0101074D01*
X0124129Y0101212D01*
X0124324Y0101346D01*
X0124522Y0101474D01*
X0124723Y0101598D01*
X0124927Y0101716D01*
X0125134Y0101830D01*
X0125343Y0101938D01*
X0125556Y0102041D01*
X0125770Y0102140D01*
X0125793Y0102088D01*
X0125579Y0101991D01*
X0125368Y0101888D01*
X0125160Y0101780D01*
X0124954Y0101667D01*
X0124751Y0101549D01*
X0124551Y0101427D01*
X0124355Y0101299D01*
X0124161Y0101166D01*
X0123970Y0101029D01*
X0123783Y0100887D01*
X0123600Y0100741D01*
X0123420Y0100590D01*
X0123244Y0100435D01*
X0123072Y0100276D01*
X0122903Y0100113D01*
X0122739Y0099945D01*
X0122579Y0099773D01*
X0122423Y0099598D01*
X0122271Y0099419D01*
X0122124Y0099236D01*
X0121982Y0099050D01*
X0121844Y0098860D01*
X0121710Y0098667D01*
X0121582Y0098471D01*
X0121458Y0098271D01*
X0121339Y0098069D01*
X0121225Y0097864D01*
X0121116Y0097656D01*
X0121013Y0097445D01*
X0120914Y0097232D01*
X0120821Y0097017D01*
X0120733Y0096800D01*
X0120650Y0096580D01*
X0120573Y0096358D01*
X0120501Y0096135D01*
X0120435Y0095910D01*
X0120374Y0095683D01*
X0120318Y0095455D01*
X0120269Y0095226D01*
X0120225Y0094995D01*
X0120186Y0094764D01*
X0120153Y0094531D01*
X0120126Y0094298D01*
X0120105Y0094065D01*
X0120089Y0093831D01*
X0120079Y0093596D01*
X0120075Y0093361D01*
X0120077Y0093127D01*
X0120084Y0092892D01*
X0120097Y0092658D01*
X0120116Y0092424D01*
X0120140Y0092191D01*
X0120170Y0091958D01*
X0120206Y0091726D01*
X0120248Y0091495D01*
X0120295Y0091265D01*
X0120347Y0091036D01*
X0120406Y0090809D01*
X0120469Y0090583D01*
X0120539Y0090359D01*
X0120613Y0090137D01*
X0120694Y0089916D01*
X0120779Y0089698D01*
X0120870Y0089481D01*
X0120966Y0089267D01*
X0121068Y0089056D01*
X0121174Y0088846D01*
X0121286Y0088640D01*
X0121402Y0088436D01*
X0121524Y0088236D01*
X0121650Y0088038D01*
X0121781Y0087843D01*
X0121917Y0087652D01*
X0122057Y0087464D01*
X0122203Y0087279D01*
X0122352Y0087099D01*
X0122506Y0086921D01*
X0122664Y0086748D01*
X0122827Y0086579D01*
X0122993Y0086413D01*
X0123163Y0086252D01*
X0123201Y0086293D01*
X0123032Y0086454D01*
X0122866Y0086618D01*
X0122705Y0086787D01*
X0122548Y0086959D01*
X0122395Y0087135D01*
X0122246Y0087315D01*
X0122102Y0087498D01*
X0121962Y0087685D01*
X0121827Y0087875D01*
X0121697Y0088069D01*
X0121571Y0088265D01*
X0121450Y0088465D01*
X0121334Y0088667D01*
X0121224Y0088873D01*
X0121118Y0089080D01*
X0121017Y0089291D01*
X0120921Y0089504D01*
X0120831Y0089719D01*
X0120746Y0089936D01*
X0120666Y0090155D01*
X0120592Y0090376D01*
X0120523Y0090599D01*
X0120460Y0090824D01*
X0120402Y0091050D01*
X0120349Y0091277D01*
X0120302Y0091506D01*
X0120261Y0091735D01*
X0120226Y0091966D01*
X0120196Y0092197D01*
X0120171Y0092429D01*
X0120153Y0092662D01*
X0120140Y0092895D01*
X0120133Y0093128D01*
X0120131Y0093361D01*
X0120135Y0093594D01*
X0120145Y0093828D01*
X0120161Y0094060D01*
X0120182Y0094293D01*
X0120209Y0094524D01*
X0120242Y0094755D01*
X0120280Y0094985D01*
X0120324Y0095215D01*
X0120373Y0095443D01*
X0120428Y0095669D01*
X0120488Y0095895D01*
X0120554Y0096118D01*
X0120626Y0096341D01*
X0120703Y0096561D01*
X0120785Y0096779D01*
X0120872Y0096995D01*
X0120965Y0097209D01*
X0121063Y0097421D01*
X0121166Y0097630D01*
X0121274Y0097837D01*
X0121388Y0098041D01*
X0121506Y0098242D01*
X0121629Y0098440D01*
X0121757Y0098636D01*
X0121889Y0098828D01*
X0122026Y0099016D01*
X0122168Y0099201D01*
X0122315Y0099383D01*
X0122465Y0099561D01*
X0122620Y0099736D01*
X0122779Y0099906D01*
X0122943Y0100073D01*
X0123110Y0100235D01*
X0123281Y0100394D01*
X0123456Y0100548D01*
X0123635Y0100698D01*
X0123818Y0100843D01*
X0124004Y0100984D01*
X0124193Y0101120D01*
X0124385Y0101252D01*
X0124581Y0101379D01*
X0124780Y0101501D01*
X0124982Y0101618D01*
X0125186Y0101731D01*
X0125393Y0101838D01*
X0125603Y0101940D01*
X0125815Y0102037D01*
X0125838Y0101986D01*
X0125627Y0101889D01*
X0125418Y0101788D01*
X0125212Y0101681D01*
X0125009Y0101570D01*
X0124809Y0101453D01*
X0124611Y0101332D01*
X0124416Y0101205D01*
X0124225Y0101075D01*
X0124037Y0100939D01*
X0123852Y0100799D01*
X0123671Y0100654D01*
X0123493Y0100505D01*
X0123319Y0100352D01*
X0123149Y0100195D01*
X0122982Y0100033D01*
X0122820Y0099867D01*
X0122662Y0099698D01*
X0122507Y0099525D01*
X0122358Y0099347D01*
X0122212Y0099167D01*
X0122071Y0098983D01*
X0121935Y0098795D01*
X0121803Y0098604D01*
X0121676Y0098410D01*
X0121554Y0098213D01*
X0121436Y0098013D01*
X0121324Y0097811D01*
X0121216Y0097605D01*
X0121114Y0097397D01*
X0121016Y0097187D01*
X0120924Y0096974D01*
X0120837Y0096759D01*
X0120755Y0096542D01*
X0120679Y0096323D01*
X0120608Y0096102D01*
X0120542Y0095879D01*
X0120482Y0095655D01*
X0120428Y0095430D01*
X0120378Y0095203D01*
X0120335Y0094976D01*
X0120297Y0094747D01*
X0120264Y0094517D01*
X0120238Y0094287D01*
X0120217Y0094056D01*
X0120201Y0093824D01*
X0120191Y0093593D01*
X0120187Y0093361D01*
X0120189Y0093129D01*
X0120196Y0092897D01*
X0120209Y0092666D01*
X0120227Y0092434D01*
X0120251Y0092204D01*
X0120281Y0091974D01*
X0120317Y0091745D01*
X0120357Y0091516D01*
X0120404Y0091289D01*
X0120456Y0091063D01*
X0120514Y0090838D01*
X0120577Y0090615D01*
X0120645Y0090394D01*
X0120719Y0090174D01*
X0120798Y0089956D01*
X0120883Y0089740D01*
X0120973Y0089526D01*
X0121068Y0089315D01*
X0121168Y0089105D01*
X0121273Y0088899D01*
X0121383Y0088695D01*
X0121498Y0088493D01*
X0121619Y0088295D01*
X0121743Y0088099D01*
X0121873Y0087907D01*
X0122007Y0087718D01*
X0122146Y0087532D01*
X0122290Y0087350D01*
X0122437Y0087171D01*
X0122589Y0086996D01*
X0122746Y0086825D01*
X0122906Y0086657D01*
X0123071Y0086494D01*
X0123239Y0086335D01*
X0123277Y0086376D01*
X0123110Y0086534D01*
X0122946Y0086697D01*
X0122787Y0086863D01*
X0122631Y0087034D01*
X0122480Y0087208D01*
X0122333Y0087385D01*
X0122191Y0087567D01*
X0122053Y0087751D01*
X0121919Y0087939D01*
X0121790Y0088130D01*
X0121666Y0088325D01*
X0121547Y0088522D01*
X0121432Y0088722D01*
X0121323Y0088925D01*
X0121218Y0089130D01*
X0121118Y0089338D01*
X0121024Y0089548D01*
X0120935Y0089761D01*
X0120851Y0089976D01*
X0120772Y0090192D01*
X0120699Y0090411D01*
X0120630Y0090631D01*
X0120568Y0090853D01*
X0120510Y0091076D01*
X0120459Y0091301D01*
X0120412Y0091527D01*
X0120372Y0091754D01*
X0120337Y0091982D01*
X0120307Y0092210D01*
X0120283Y0092440D01*
X0120265Y0092669D01*
X0120252Y0092900D01*
X0120245Y0093130D01*
X0120243Y0093361D01*
X0120247Y0093591D01*
X0120257Y0093821D01*
X0120272Y0094051D01*
X0120293Y0094281D01*
X0120320Y0094510D01*
X0120352Y0094738D01*
X0120390Y0094966D01*
X0120433Y0095192D01*
X0120482Y0095418D01*
X0120536Y0095642D01*
X0120596Y0095864D01*
X0120661Y0096085D01*
X0120732Y0096305D01*
X0120808Y0096523D01*
X0120889Y0096738D01*
X0120976Y0096952D01*
X0121067Y0097164D01*
X0121164Y0097373D01*
X0121266Y0097580D01*
X0121373Y0097784D01*
X0121485Y0097985D01*
X0121602Y0098184D01*
X0121723Y0098380D01*
X0121849Y0098573D01*
X0121981Y0098763D01*
X0122116Y0098949D01*
X0122256Y0099132D01*
X0122401Y0099312D01*
X0122550Y0099488D01*
X0122703Y0099660D01*
X0122860Y0099829D01*
X0123022Y0099993D01*
X0123187Y0100154D01*
X0123356Y0100310D01*
X0123529Y0100463D01*
X0123706Y0100611D01*
X0123886Y0100755D01*
X0124070Y0100894D01*
X0124257Y0101029D01*
X0124447Y0101159D01*
X0124641Y0101284D01*
X0124837Y0101405D01*
X0125036Y0101521D01*
X0125239Y0101632D01*
X0125443Y0101738D01*
X0125651Y0101839D01*
X0125860Y0101934D01*
X0125883Y0101883D01*
X0125674Y0101788D01*
X0125468Y0101688D01*
X0125265Y0101582D01*
X0125064Y0101472D01*
X0124866Y0101357D01*
X0124670Y0101237D01*
X0124478Y0101112D01*
X0124289Y0100983D01*
X0124103Y0100849D01*
X0123920Y0100710D01*
X0123741Y0100567D01*
X0123566Y0100420D01*
X0123394Y0100269D01*
X0123225Y0100113D01*
X0123061Y0099953D01*
X0122901Y0099790D01*
X0122744Y0099622D01*
X0122592Y0099451D01*
X0122444Y0099276D01*
X0122300Y0099098D01*
X0122161Y0098916D01*
X0122026Y0098730D01*
X0121896Y0098542D01*
X0121770Y0098350D01*
X0121649Y0098155D01*
X0121533Y0097958D01*
X0121422Y0097757D01*
X0121316Y0097554D01*
X0121215Y0097349D01*
X0121118Y0097141D01*
X0121027Y0096930D01*
X0120941Y0096718D01*
X0120861Y0096503D01*
X0120785Y0096287D01*
X0120715Y0096069D01*
X0120650Y0095849D01*
X0120591Y0095628D01*
X0120537Y0095405D01*
X0120488Y0095181D01*
X0120445Y0094956D01*
X0120408Y0094730D01*
X0120376Y0094503D01*
X0120349Y0094275D01*
X0120328Y0094047D01*
X0120313Y0093818D01*
X0120303Y0093589D01*
X0120299Y0093360D01*
X0120301Y0093131D01*
X0120308Y0092902D01*
X0120320Y0092673D01*
X0120339Y0092445D01*
X0120363Y0092217D01*
X0120392Y0091990D01*
X0120427Y0091763D01*
X0120467Y0091538D01*
X0120513Y0091313D01*
X0120565Y0091090D01*
X0120622Y0090868D01*
X0120684Y0090647D01*
X0120752Y0090428D01*
X0120825Y0090211D01*
X0120903Y0089996D01*
X0120987Y0089782D01*
X0121075Y0089571D01*
X0121169Y0089362D01*
X0121268Y0089155D01*
X0121372Y0088951D01*
X0121481Y0088749D01*
X0121595Y0088550D01*
X0121714Y0088354D01*
X0121837Y0088161D01*
X0121965Y0087971D01*
X0122098Y0087784D01*
X0122235Y0087601D01*
X0122377Y0087421D01*
X0122523Y0087244D01*
X0122673Y0087071D01*
X0122827Y0086902D01*
X0122986Y0086736D01*
X0123148Y0086575D01*
X0123315Y0086417D01*
X0123353Y0086458D01*
X0123187Y0086615D01*
X0123026Y0086776D01*
X0122868Y0086940D01*
X0122715Y0087108D01*
X0122565Y0087280D01*
X0122420Y0087456D01*
X0122279Y0087635D01*
X0122143Y0087817D01*
X0122011Y0088003D01*
X0121884Y0088192D01*
X0121761Y0088384D01*
X0121643Y0088579D01*
X0121530Y0088777D01*
X0121422Y0088977D01*
X0121318Y0089180D01*
X0121220Y0089385D01*
X0121127Y0089593D01*
X0121038Y0089803D01*
X0120955Y0090015D01*
X0120878Y0090230D01*
X0120805Y0090445D01*
X0120738Y0090663D01*
X0120676Y0090882D01*
X0120619Y0091103D01*
X0120568Y0091325D01*
X0120522Y0091548D01*
X0120482Y0091772D01*
X0120447Y0091998D01*
X0120418Y0092223D01*
X0120394Y0092450D01*
X0120376Y0092677D01*
X0120364Y0092905D01*
X0120357Y0093132D01*
X0120355Y0093360D01*
X0120359Y0093588D01*
X0120369Y0093815D01*
X0120384Y0094043D01*
X0120405Y0094270D01*
X0120431Y0094496D01*
X0120463Y0094721D01*
X0120500Y0094946D01*
X0120543Y0095170D01*
X0120591Y0095392D01*
X0120645Y0095614D01*
X0120704Y0095834D01*
X0120768Y0096052D01*
X0120838Y0096269D01*
X0120913Y0096484D01*
X0120993Y0096698D01*
X0121079Y0096909D01*
X0121169Y0097118D01*
X0121265Y0097324D01*
X0121366Y0097529D01*
X0121471Y0097731D01*
X0121582Y0097930D01*
X0121697Y0098126D01*
X0121817Y0098320D01*
X0121942Y0098510D01*
X0122072Y0098698D01*
X0122206Y0098882D01*
X0122344Y0099063D01*
X0122487Y0099240D01*
X0122634Y0099414D01*
X0122786Y0099585D01*
X0122941Y0099751D01*
X0123100Y0099914D01*
X0123264Y0100072D01*
X0123431Y0100227D01*
X0123602Y0100378D01*
X0123777Y0100524D01*
X0123955Y0100666D01*
X0124136Y0100804D01*
X0124321Y0100937D01*
X0124509Y0101065D01*
X0124700Y0101189D01*
X0124894Y0101309D01*
X0125091Y0101423D01*
X0125291Y0101533D01*
X0125493Y0101637D01*
X0125698Y0101737D01*
X0125905Y0101832D01*
X0125928Y0101781D01*
X0125722Y0101686D01*
X0125518Y0101587D01*
X0125317Y0101483D01*
X0125119Y0101374D01*
X0124923Y0101260D01*
X0124730Y0101142D01*
X0124540Y0101019D01*
X0124353Y0100891D01*
X0124169Y0100759D01*
X0123989Y0100622D01*
X0123812Y0100481D01*
X0123638Y0100335D01*
X0123469Y0100185D01*
X0123302Y0100032D01*
X0123140Y0099874D01*
X0122981Y0099712D01*
X0122827Y0099547D01*
X0122676Y0099377D01*
X0122530Y0099205D01*
X0122388Y0099028D01*
X0122251Y0098848D01*
X0122117Y0098665D01*
X0121989Y0098479D01*
X0121865Y0098290D01*
X0121745Y0098097D01*
X0121631Y0097902D01*
X0121521Y0097704D01*
X0121416Y0097503D01*
X0121316Y0097300D01*
X0121221Y0097095D01*
X0121131Y0096887D01*
X0121046Y0096677D01*
X0120966Y0096465D01*
X0120891Y0096251D01*
X0120822Y0096036D01*
X0120758Y0095819D01*
X0120699Y0095600D01*
X0120646Y0095380D01*
X0120598Y0095159D01*
X0120555Y0094936D01*
X0120518Y0094713D01*
X0120487Y0094489D01*
X0120461Y0094264D01*
X0120440Y0094038D01*
X0120425Y0093812D01*
X0120415Y0093586D01*
X0120411Y0093360D01*
X0120413Y0093133D01*
X0120420Y0092907D01*
X0120432Y0092681D01*
X0120450Y0092455D01*
X0120474Y0092230D01*
X0120503Y0092005D01*
X0120537Y0091782D01*
X0120577Y0091559D01*
X0120623Y0091337D01*
X0120674Y0091116D01*
X0120730Y0090897D01*
X0120791Y0090679D01*
X0120858Y0090463D01*
X0120930Y0090248D01*
X0121008Y0090035D01*
X0121090Y0089824D01*
X0121178Y0089616D01*
X0121271Y0089409D01*
X0121368Y0089205D01*
X0121471Y0089003D01*
X0121579Y0088804D01*
X0121691Y0088607D01*
X0121808Y0088414D01*
X0121930Y0088223D01*
X0122057Y0088035D01*
X0122188Y0087850D01*
X0122324Y0087669D01*
X0122464Y0087491D01*
X0122608Y0087317D01*
X0122756Y0087146D01*
X0122909Y0086978D01*
X0123066Y0086815D01*
X0123226Y0086655D01*
X0123391Y0086500D01*
X0136301Y0086129D02*
X0135936Y0086527D01*
X0135936Y0086526D02*
X0136100Y0086681D01*
X0136260Y0086840D01*
X0136416Y0087003D01*
X0136568Y0087170D01*
X0136716Y0087340D01*
X0136859Y0087514D01*
X0136999Y0087691D01*
X0137134Y0087872D01*
X0137265Y0088056D01*
X0137391Y0088243D01*
X0137512Y0088433D01*
X0137629Y0088626D01*
X0137741Y0088821D01*
X0137848Y0089020D01*
X0137950Y0089221D01*
X0138048Y0089424D01*
X0138140Y0089630D01*
X0138227Y0089838D01*
X0138310Y0090048D01*
X0138387Y0090260D01*
X0138458Y0090474D01*
X0138525Y0090689D01*
X0138586Y0090906D01*
X0138642Y0091125D01*
X0138693Y0091345D01*
X0138738Y0091566D01*
X0138778Y0091788D01*
X0138812Y0092011D01*
X0138841Y0092234D01*
X0138865Y0092459D01*
X0138883Y0092683D01*
X0138895Y0092909D01*
X0138902Y0093134D01*
X0138904Y0093360D01*
X0138900Y0093585D01*
X0138890Y0093810D01*
X0138875Y0094035D01*
X0138855Y0094260D01*
X0138829Y0094484D01*
X0138797Y0094707D01*
X0138760Y0094930D01*
X0138718Y0095151D01*
X0138670Y0095372D01*
X0138617Y0095591D01*
X0138558Y0095809D01*
X0138495Y0096025D01*
X0138426Y0096240D01*
X0138351Y0096453D01*
X0138272Y0096664D01*
X0138187Y0096873D01*
X0138098Y0097080D01*
X0138003Y0097285D01*
X0137903Y0097487D01*
X0137799Y0097687D01*
X0137689Y0097884D01*
X0137575Y0098079D01*
X0137456Y0098270D01*
X0137332Y0098459D01*
X0137204Y0098644D01*
X0137072Y0098827D01*
X0136934Y0099006D01*
X0136793Y0099182D01*
X0136647Y0099354D01*
X0136498Y0099522D01*
X0136344Y0099687D01*
X0136186Y0099848D01*
X0136024Y0100006D01*
X0135858Y0100159D01*
X0135689Y0100308D01*
X0135516Y0100453D01*
X0135340Y0100593D01*
X0135160Y0100730D01*
X0134977Y0100861D01*
X0134791Y0100989D01*
X0134602Y0101111D01*
X0134410Y0101230D01*
X0134215Y0101343D01*
X0134017Y0101451D01*
X0133817Y0101555D01*
X0133614Y0101654D01*
X0133409Y0101748D01*
X0133625Y0102242D01*
X0133626Y0102242D01*
X0133843Y0102143D01*
X0134058Y0102038D01*
X0134270Y0101929D01*
X0134479Y0101814D01*
X0134685Y0101694D01*
X0134889Y0101569D01*
X0135089Y0101439D01*
X0135286Y0101304D01*
X0135480Y0101165D01*
X0135670Y0101020D01*
X0135857Y0100872D01*
X0136040Y0100718D01*
X0136219Y0100560D01*
X0136395Y0100398D01*
X0136566Y0100232D01*
X0136733Y0100061D01*
X0136896Y0099887D01*
X0137055Y0099708D01*
X0137209Y0099526D01*
X0137359Y0099340D01*
X0137504Y0099150D01*
X0137644Y0098957D01*
X0137780Y0098761D01*
X0137911Y0098561D01*
X0138037Y0098358D01*
X0138158Y0098152D01*
X0138274Y0097944D01*
X0138384Y0097732D01*
X0138490Y0097518D01*
X0138590Y0097301D01*
X0138685Y0097082D01*
X0138775Y0096861D01*
X0138859Y0096637D01*
X0138938Y0096412D01*
X0139011Y0096184D01*
X0139078Y0095955D01*
X0139140Y0095725D01*
X0139196Y0095493D01*
X0139247Y0095259D01*
X0139292Y0095025D01*
X0139331Y0094789D01*
X0139364Y0094553D01*
X0139392Y0094316D01*
X0139414Y0094078D01*
X0139429Y0093840D01*
X0139440Y0093601D01*
X0139444Y0093362D01*
X0139442Y0093124D01*
X0139435Y0092885D01*
X0139422Y0092646D01*
X0139403Y0092408D01*
X0139378Y0092171D01*
X0139347Y0091934D01*
X0139311Y0091698D01*
X0139268Y0091463D01*
X0139221Y0091229D01*
X0139167Y0090997D01*
X0139108Y0090765D01*
X0139043Y0090535D01*
X0138972Y0090307D01*
X0138896Y0090081D01*
X0138814Y0089857D01*
X0138727Y0089634D01*
X0138635Y0089414D01*
X0138537Y0089196D01*
X0138434Y0088981D01*
X0138326Y0088768D01*
X0138212Y0088558D01*
X0138094Y0088351D01*
X0137970Y0088146D01*
X0137841Y0087945D01*
X0137708Y0087747D01*
X0137570Y0087553D01*
X0137427Y0087361D01*
X0137279Y0087174D01*
X0137127Y0086990D01*
X0136970Y0086809D01*
X0136809Y0086633D01*
X0136644Y0086461D01*
X0136475Y0086292D01*
X0136301Y0086128D01*
X0136263Y0086170D01*
X0136436Y0086333D01*
X0136604Y0086500D01*
X0136768Y0086671D01*
X0136928Y0086847D01*
X0137084Y0087026D01*
X0137235Y0087209D01*
X0137382Y0087396D01*
X0137524Y0087586D01*
X0137662Y0087779D01*
X0137795Y0087976D01*
X0137922Y0088176D01*
X0138045Y0088379D01*
X0138163Y0088585D01*
X0138276Y0088794D01*
X0138384Y0089006D01*
X0138486Y0089220D01*
X0138584Y0089436D01*
X0138676Y0089655D01*
X0138762Y0089876D01*
X0138843Y0090100D01*
X0138919Y0090325D01*
X0138989Y0090551D01*
X0139054Y0090780D01*
X0139112Y0091010D01*
X0139166Y0091241D01*
X0139213Y0091474D01*
X0139255Y0091707D01*
X0139292Y0091942D01*
X0139322Y0092178D01*
X0139347Y0092414D01*
X0139366Y0092650D01*
X0139379Y0092887D01*
X0139386Y0093125D01*
X0139388Y0093362D01*
X0139384Y0093599D01*
X0139374Y0093837D01*
X0139358Y0094073D01*
X0139336Y0094310D01*
X0139309Y0094546D01*
X0139276Y0094781D01*
X0139237Y0095015D01*
X0139192Y0095248D01*
X0139142Y0095480D01*
X0139086Y0095711D01*
X0139024Y0095940D01*
X0138957Y0096168D01*
X0138884Y0096394D01*
X0138806Y0096618D01*
X0138723Y0096840D01*
X0138634Y0097060D01*
X0138539Y0097278D01*
X0138439Y0097494D01*
X0138335Y0097707D01*
X0138224Y0097917D01*
X0138109Y0098125D01*
X0137989Y0098329D01*
X0137864Y0098531D01*
X0137734Y0098730D01*
X0137599Y0098925D01*
X0137459Y0099117D01*
X0137315Y0099305D01*
X0137166Y0099490D01*
X0137013Y0099672D01*
X0136855Y0099849D01*
X0136693Y0100023D01*
X0136527Y0100192D01*
X0136356Y0100358D01*
X0136182Y0100519D01*
X0136004Y0100676D01*
X0135822Y0100828D01*
X0135636Y0100976D01*
X0135447Y0101119D01*
X0135254Y0101258D01*
X0135058Y0101392D01*
X0134859Y0101521D01*
X0134657Y0101646D01*
X0134452Y0101765D01*
X0134243Y0101879D01*
X0134033Y0101988D01*
X0133819Y0102092D01*
X0133603Y0102191D01*
X0133581Y0102140D01*
X0133795Y0102041D01*
X0134008Y0101938D01*
X0134217Y0101830D01*
X0134424Y0101716D01*
X0134628Y0101598D01*
X0134829Y0101474D01*
X0135027Y0101346D01*
X0135222Y0101212D01*
X0135414Y0101074D01*
X0135602Y0100932D01*
X0135786Y0100785D01*
X0135967Y0100633D01*
X0136145Y0100477D01*
X0136318Y0100317D01*
X0136487Y0100152D01*
X0136652Y0099984D01*
X0136813Y0099811D01*
X0136970Y0099635D01*
X0137123Y0099455D01*
X0137271Y0099271D01*
X0137414Y0099083D01*
X0137553Y0098892D01*
X0137687Y0098698D01*
X0137817Y0098501D01*
X0137941Y0098300D01*
X0138061Y0098097D01*
X0138175Y0097890D01*
X0138285Y0097681D01*
X0138389Y0097470D01*
X0138488Y0097255D01*
X0138582Y0097039D01*
X0138670Y0096820D01*
X0138754Y0096599D01*
X0138831Y0096376D01*
X0138904Y0096151D01*
X0138970Y0095925D01*
X0139032Y0095697D01*
X0139087Y0095468D01*
X0139137Y0095237D01*
X0139182Y0095005D01*
X0139220Y0094772D01*
X0139253Y0094539D01*
X0139280Y0094304D01*
X0139302Y0094069D01*
X0139318Y0093834D01*
X0139328Y0093598D01*
X0139332Y0093362D01*
X0139330Y0093126D01*
X0139323Y0092890D01*
X0139310Y0092654D01*
X0139291Y0092419D01*
X0139266Y0092184D01*
X0139236Y0091950D01*
X0139200Y0091717D01*
X0139158Y0091484D01*
X0139111Y0091253D01*
X0139058Y0091023D01*
X0138999Y0090795D01*
X0138935Y0090567D01*
X0138866Y0090342D01*
X0138790Y0090118D01*
X0138710Y0089896D01*
X0138624Y0089676D01*
X0138532Y0089459D01*
X0138436Y0089244D01*
X0138334Y0089031D01*
X0138227Y0088820D01*
X0138114Y0088613D01*
X0137997Y0088408D01*
X0137875Y0088206D01*
X0137748Y0088007D01*
X0137616Y0087811D01*
X0137479Y0087619D01*
X0137338Y0087430D01*
X0137192Y0087244D01*
X0137042Y0087062D01*
X0136887Y0086884D01*
X0136728Y0086710D01*
X0136564Y0086539D01*
X0136397Y0086373D01*
X0136225Y0086211D01*
X0136188Y0086252D01*
X0136358Y0086413D01*
X0136524Y0086579D01*
X0136687Y0086748D01*
X0136845Y0086921D01*
X0136999Y0087099D01*
X0137148Y0087279D01*
X0137294Y0087464D01*
X0137434Y0087652D01*
X0137570Y0087843D01*
X0137701Y0088038D01*
X0137827Y0088236D01*
X0137949Y0088436D01*
X0138065Y0088640D01*
X0138177Y0088846D01*
X0138283Y0089056D01*
X0138385Y0089267D01*
X0138481Y0089481D01*
X0138572Y0089698D01*
X0138657Y0089916D01*
X0138738Y0090137D01*
X0138812Y0090359D01*
X0138882Y0090583D01*
X0138945Y0090809D01*
X0139004Y0091036D01*
X0139056Y0091265D01*
X0139103Y0091495D01*
X0139145Y0091726D01*
X0139181Y0091958D01*
X0139211Y0092191D01*
X0139235Y0092424D01*
X0139254Y0092658D01*
X0139267Y0092892D01*
X0139274Y0093127D01*
X0139276Y0093361D01*
X0139272Y0093596D01*
X0139262Y0093831D01*
X0139246Y0094065D01*
X0139225Y0094298D01*
X0139198Y0094531D01*
X0139165Y0094764D01*
X0139126Y0094995D01*
X0139082Y0095226D01*
X0139033Y0095455D01*
X0138977Y0095683D01*
X0138916Y0095910D01*
X0138850Y0096135D01*
X0138778Y0096358D01*
X0138701Y0096580D01*
X0138618Y0096800D01*
X0138530Y0097017D01*
X0138437Y0097232D01*
X0138338Y0097445D01*
X0138235Y0097656D01*
X0138126Y0097864D01*
X0138012Y0098069D01*
X0137893Y0098271D01*
X0137769Y0098471D01*
X0137641Y0098667D01*
X0137507Y0098860D01*
X0137369Y0099050D01*
X0137227Y0099236D01*
X0137080Y0099419D01*
X0136928Y0099598D01*
X0136772Y0099773D01*
X0136612Y0099945D01*
X0136448Y0100113D01*
X0136279Y0100276D01*
X0136107Y0100435D01*
X0135931Y0100590D01*
X0135751Y0100741D01*
X0135568Y0100887D01*
X0135381Y0101029D01*
X0135190Y0101166D01*
X0134996Y0101299D01*
X0134800Y0101427D01*
X0134600Y0101549D01*
X0134397Y0101667D01*
X0134191Y0101780D01*
X0133983Y0101888D01*
X0133772Y0101991D01*
X0133558Y0102088D01*
X0133536Y0102037D01*
X0133748Y0101940D01*
X0133958Y0101838D01*
X0134165Y0101731D01*
X0134369Y0101618D01*
X0134571Y0101501D01*
X0134770Y0101379D01*
X0134966Y0101252D01*
X0135158Y0101120D01*
X0135347Y0100984D01*
X0135533Y0100843D01*
X0135716Y0100698D01*
X0135895Y0100548D01*
X0136070Y0100394D01*
X0136241Y0100235D01*
X0136408Y0100073D01*
X0136572Y0099906D01*
X0136731Y0099736D01*
X0136886Y0099561D01*
X0137036Y0099383D01*
X0137183Y0099201D01*
X0137325Y0099016D01*
X0137462Y0098828D01*
X0137594Y0098636D01*
X0137722Y0098440D01*
X0137845Y0098242D01*
X0137963Y0098041D01*
X0138077Y0097837D01*
X0138185Y0097630D01*
X0138288Y0097421D01*
X0138386Y0097209D01*
X0138479Y0096995D01*
X0138566Y0096779D01*
X0138648Y0096561D01*
X0138725Y0096341D01*
X0138797Y0096118D01*
X0138863Y0095895D01*
X0138923Y0095669D01*
X0138978Y0095443D01*
X0139027Y0095215D01*
X0139071Y0094985D01*
X0139109Y0094755D01*
X0139142Y0094524D01*
X0139169Y0094293D01*
X0139190Y0094060D01*
X0139206Y0093828D01*
X0139216Y0093594D01*
X0139220Y0093361D01*
X0139218Y0093128D01*
X0139211Y0092895D01*
X0139198Y0092662D01*
X0139180Y0092429D01*
X0139155Y0092197D01*
X0139125Y0091966D01*
X0139090Y0091735D01*
X0139049Y0091506D01*
X0139002Y0091277D01*
X0138949Y0091050D01*
X0138891Y0090824D01*
X0138828Y0090599D01*
X0138759Y0090376D01*
X0138685Y0090155D01*
X0138605Y0089936D01*
X0138520Y0089719D01*
X0138430Y0089504D01*
X0138334Y0089291D01*
X0138233Y0089080D01*
X0138127Y0088873D01*
X0138017Y0088667D01*
X0137901Y0088465D01*
X0137780Y0088265D01*
X0137654Y0088069D01*
X0137524Y0087875D01*
X0137389Y0087685D01*
X0137249Y0087498D01*
X0137105Y0087315D01*
X0136956Y0087135D01*
X0136803Y0086959D01*
X0136646Y0086787D01*
X0136485Y0086618D01*
X0136319Y0086454D01*
X0136150Y0086293D01*
X0136112Y0086335D01*
X0136280Y0086494D01*
X0136445Y0086657D01*
X0136605Y0086825D01*
X0136762Y0086996D01*
X0136914Y0087171D01*
X0137061Y0087350D01*
X0137205Y0087532D01*
X0137344Y0087718D01*
X0137478Y0087907D01*
X0137608Y0088099D01*
X0137732Y0088295D01*
X0137853Y0088493D01*
X0137968Y0088695D01*
X0138078Y0088899D01*
X0138183Y0089105D01*
X0138283Y0089315D01*
X0138378Y0089526D01*
X0138468Y0089740D01*
X0138553Y0089956D01*
X0138632Y0090174D01*
X0138706Y0090394D01*
X0138774Y0090615D01*
X0138837Y0090838D01*
X0138895Y0091063D01*
X0138947Y0091289D01*
X0138994Y0091516D01*
X0139034Y0091745D01*
X0139070Y0091974D01*
X0139100Y0092204D01*
X0139124Y0092434D01*
X0139142Y0092666D01*
X0139155Y0092897D01*
X0139162Y0093129D01*
X0139164Y0093361D01*
X0139160Y0093593D01*
X0139150Y0093824D01*
X0139134Y0094056D01*
X0139113Y0094287D01*
X0139087Y0094517D01*
X0139054Y0094747D01*
X0139016Y0094976D01*
X0138973Y0095203D01*
X0138923Y0095430D01*
X0138869Y0095655D01*
X0138809Y0095879D01*
X0138743Y0096102D01*
X0138672Y0096323D01*
X0138596Y0096542D01*
X0138514Y0096759D01*
X0138427Y0096974D01*
X0138335Y0097187D01*
X0138237Y0097397D01*
X0138135Y0097605D01*
X0138027Y0097811D01*
X0137915Y0098013D01*
X0137797Y0098213D01*
X0137675Y0098410D01*
X0137548Y0098604D01*
X0137416Y0098795D01*
X0137280Y0098983D01*
X0137139Y0099167D01*
X0136993Y0099347D01*
X0136844Y0099525D01*
X0136689Y0099698D01*
X0136531Y0099867D01*
X0136369Y0100033D01*
X0136202Y0100195D01*
X0136032Y0100352D01*
X0135858Y0100505D01*
X0135680Y0100654D01*
X0135499Y0100799D01*
X0135314Y0100939D01*
X0135126Y0101075D01*
X0134935Y0101205D01*
X0134740Y0101332D01*
X0134542Y0101453D01*
X0134342Y0101570D01*
X0134139Y0101681D01*
X0133933Y0101788D01*
X0133724Y0101889D01*
X0133513Y0101986D01*
X0133491Y0101934D01*
X0133700Y0101839D01*
X0133908Y0101738D01*
X0134112Y0101632D01*
X0134315Y0101521D01*
X0134514Y0101405D01*
X0134710Y0101284D01*
X0134904Y0101159D01*
X0135094Y0101029D01*
X0135281Y0100894D01*
X0135465Y0100755D01*
X0135645Y0100611D01*
X0135822Y0100463D01*
X0135995Y0100310D01*
X0136164Y0100154D01*
X0136329Y0099993D01*
X0136491Y0099829D01*
X0136648Y0099660D01*
X0136801Y0099488D01*
X0136950Y0099312D01*
X0137095Y0099132D01*
X0137235Y0098949D01*
X0137370Y0098763D01*
X0137502Y0098573D01*
X0137628Y0098380D01*
X0137749Y0098184D01*
X0137866Y0097985D01*
X0137978Y0097784D01*
X0138085Y0097580D01*
X0138187Y0097373D01*
X0138284Y0097164D01*
X0138375Y0096952D01*
X0138462Y0096738D01*
X0138543Y0096523D01*
X0138619Y0096305D01*
X0138690Y0096085D01*
X0138755Y0095864D01*
X0138815Y0095642D01*
X0138869Y0095418D01*
X0138918Y0095192D01*
X0138961Y0094966D01*
X0138999Y0094738D01*
X0139031Y0094510D01*
X0139058Y0094281D01*
X0139079Y0094051D01*
X0139094Y0093821D01*
X0139104Y0093591D01*
X0139108Y0093361D01*
X0139106Y0093130D01*
X0139099Y0092900D01*
X0139086Y0092669D01*
X0139068Y0092440D01*
X0139044Y0092210D01*
X0139014Y0091982D01*
X0138979Y0091754D01*
X0138939Y0091527D01*
X0138892Y0091301D01*
X0138841Y0091076D01*
X0138783Y0090853D01*
X0138721Y0090631D01*
X0138652Y0090411D01*
X0138579Y0090192D01*
X0138500Y0089976D01*
X0138416Y0089761D01*
X0138327Y0089548D01*
X0138233Y0089338D01*
X0138133Y0089130D01*
X0138028Y0088925D01*
X0137919Y0088722D01*
X0137804Y0088522D01*
X0137685Y0088325D01*
X0137561Y0088130D01*
X0137432Y0087939D01*
X0137298Y0087751D01*
X0137160Y0087567D01*
X0137018Y0087385D01*
X0136871Y0087208D01*
X0136720Y0087034D01*
X0136564Y0086863D01*
X0136405Y0086697D01*
X0136241Y0086534D01*
X0136074Y0086376D01*
X0136036Y0086417D01*
X0136203Y0086575D01*
X0136365Y0086736D01*
X0136524Y0086902D01*
X0136678Y0087071D01*
X0136828Y0087244D01*
X0136974Y0087421D01*
X0137116Y0087601D01*
X0137253Y0087784D01*
X0137386Y0087971D01*
X0137514Y0088161D01*
X0137637Y0088354D01*
X0137756Y0088550D01*
X0137870Y0088749D01*
X0137979Y0088951D01*
X0138083Y0089155D01*
X0138182Y0089362D01*
X0138276Y0089571D01*
X0138364Y0089782D01*
X0138448Y0089996D01*
X0138526Y0090211D01*
X0138599Y0090428D01*
X0138667Y0090647D01*
X0138729Y0090868D01*
X0138786Y0091090D01*
X0138838Y0091313D01*
X0138884Y0091538D01*
X0138924Y0091763D01*
X0138959Y0091990D01*
X0138988Y0092217D01*
X0139012Y0092445D01*
X0139031Y0092673D01*
X0139043Y0092902D01*
X0139050Y0093131D01*
X0139052Y0093360D01*
X0139048Y0093589D01*
X0139038Y0093818D01*
X0139023Y0094047D01*
X0139002Y0094275D01*
X0138975Y0094503D01*
X0138943Y0094730D01*
X0138906Y0094956D01*
X0138863Y0095181D01*
X0138814Y0095405D01*
X0138760Y0095628D01*
X0138701Y0095849D01*
X0138636Y0096069D01*
X0138566Y0096287D01*
X0138490Y0096503D01*
X0138410Y0096718D01*
X0138324Y0096930D01*
X0138233Y0097141D01*
X0138136Y0097349D01*
X0138035Y0097554D01*
X0137929Y0097757D01*
X0137818Y0097958D01*
X0137702Y0098155D01*
X0137581Y0098350D01*
X0137455Y0098542D01*
X0137325Y0098730D01*
X0137190Y0098916D01*
X0137051Y0099098D01*
X0136907Y0099276D01*
X0136759Y0099451D01*
X0136607Y0099622D01*
X0136450Y0099790D01*
X0136290Y0099953D01*
X0136126Y0100113D01*
X0135957Y0100269D01*
X0135785Y0100420D01*
X0135610Y0100567D01*
X0135431Y0100710D01*
X0135248Y0100849D01*
X0135062Y0100983D01*
X0134873Y0101112D01*
X0134681Y0101237D01*
X0134485Y0101357D01*
X0134287Y0101472D01*
X0134086Y0101582D01*
X0133883Y0101688D01*
X0133677Y0101788D01*
X0133468Y0101883D01*
X0133446Y0101832D01*
X0133653Y0101737D01*
X0133858Y0101637D01*
X0134060Y0101533D01*
X0134260Y0101423D01*
X0134457Y0101309D01*
X0134651Y0101189D01*
X0134842Y0101065D01*
X0135030Y0100937D01*
X0135215Y0100804D01*
X0135396Y0100666D01*
X0135574Y0100524D01*
X0135749Y0100378D01*
X0135920Y0100227D01*
X0136087Y0100072D01*
X0136251Y0099914D01*
X0136410Y0099751D01*
X0136565Y0099585D01*
X0136717Y0099414D01*
X0136864Y0099240D01*
X0137007Y0099063D01*
X0137145Y0098882D01*
X0137279Y0098698D01*
X0137409Y0098510D01*
X0137534Y0098320D01*
X0137654Y0098126D01*
X0137769Y0097930D01*
X0137880Y0097731D01*
X0137985Y0097529D01*
X0138086Y0097324D01*
X0138182Y0097118D01*
X0138272Y0096909D01*
X0138358Y0096698D01*
X0138438Y0096484D01*
X0138513Y0096269D01*
X0138583Y0096052D01*
X0138647Y0095834D01*
X0138706Y0095614D01*
X0138760Y0095392D01*
X0138808Y0095170D01*
X0138851Y0094946D01*
X0138888Y0094721D01*
X0138920Y0094496D01*
X0138946Y0094270D01*
X0138967Y0094043D01*
X0138982Y0093815D01*
X0138992Y0093588D01*
X0138996Y0093360D01*
X0138994Y0093132D01*
X0138987Y0092905D01*
X0138975Y0092677D01*
X0138957Y0092450D01*
X0138933Y0092223D01*
X0138904Y0091998D01*
X0138869Y0091772D01*
X0138829Y0091548D01*
X0138783Y0091325D01*
X0138732Y0091103D01*
X0138675Y0090882D01*
X0138613Y0090663D01*
X0138546Y0090445D01*
X0138473Y0090230D01*
X0138396Y0090015D01*
X0138313Y0089803D01*
X0138224Y0089593D01*
X0138131Y0089385D01*
X0138033Y0089180D01*
X0137929Y0088977D01*
X0137821Y0088777D01*
X0137708Y0088579D01*
X0137590Y0088384D01*
X0137467Y0088192D01*
X0137340Y0088003D01*
X0137208Y0087817D01*
X0137072Y0087635D01*
X0136931Y0087456D01*
X0136786Y0087280D01*
X0136636Y0087108D01*
X0136483Y0086940D01*
X0136325Y0086776D01*
X0136164Y0086615D01*
X0135998Y0086458D01*
X0135960Y0086500D01*
X0136125Y0086655D01*
X0136285Y0086815D01*
X0136442Y0086978D01*
X0136595Y0087146D01*
X0136743Y0087317D01*
X0136887Y0087491D01*
X0137027Y0087669D01*
X0137163Y0087850D01*
X0137294Y0088035D01*
X0137421Y0088223D01*
X0137543Y0088414D01*
X0137660Y0088607D01*
X0137772Y0088804D01*
X0137880Y0089003D01*
X0137983Y0089205D01*
X0138080Y0089409D01*
X0138173Y0089616D01*
X0138261Y0089824D01*
X0138343Y0090035D01*
X0138421Y0090248D01*
X0138493Y0090463D01*
X0138560Y0090679D01*
X0138621Y0090897D01*
X0138677Y0091116D01*
X0138728Y0091337D01*
X0138774Y0091559D01*
X0138814Y0091782D01*
X0138848Y0092005D01*
X0138877Y0092230D01*
X0138901Y0092455D01*
X0138919Y0092681D01*
X0138931Y0092907D01*
X0138938Y0093133D01*
X0138940Y0093360D01*
X0138936Y0093586D01*
X0138926Y0093812D01*
X0138911Y0094038D01*
X0138890Y0094264D01*
X0138864Y0094489D01*
X0138833Y0094713D01*
X0138796Y0094936D01*
X0138753Y0095159D01*
X0138705Y0095380D01*
X0138652Y0095600D01*
X0138593Y0095819D01*
X0138529Y0096036D01*
X0138460Y0096251D01*
X0138385Y0096465D01*
X0138305Y0096677D01*
X0138220Y0096887D01*
X0138130Y0097095D01*
X0138035Y0097300D01*
X0137935Y0097503D01*
X0137830Y0097704D01*
X0137720Y0097902D01*
X0137606Y0098097D01*
X0137486Y0098290D01*
X0137362Y0098479D01*
X0137234Y0098665D01*
X0137100Y0098848D01*
X0136963Y0099028D01*
X0136821Y0099205D01*
X0136675Y0099377D01*
X0136524Y0099547D01*
X0136370Y0099712D01*
X0136211Y0099874D01*
X0136049Y0100032D01*
X0135882Y0100185D01*
X0135713Y0100335D01*
X0135539Y0100481D01*
X0135362Y0100622D01*
X0135182Y0100759D01*
X0134998Y0100891D01*
X0134811Y0101019D01*
X0134621Y0101142D01*
X0134428Y0101260D01*
X0134232Y0101374D01*
X0134034Y0101483D01*
X0133833Y0101587D01*
X0133629Y0101686D01*
X0133423Y0101781D01*
D20*
X0129676Y0094307D02*
X0129676Y0093307D01*
X0136676Y0093307D02*
X0139676Y0093307D01*
X0122676Y0093307D02*
X0119676Y0093307D01*
M02*
