%
M48
M72
T01C0.02756
T02C0.03200
T03C0.04000
T04C0.05118
%
T01
X139676Y93307
X129676Y93307
X119676Y93307
T02
X109676Y240307
X119676Y240307
X129676Y240307
X139676Y240307
X149676Y240307
X159676Y240307
X169676Y240307
X179676Y240307
X189676Y240307
X199676Y240307
X209676Y240307
X219676Y240307
X229676Y240307
X239676Y240307
X239676Y210307
X229676Y210307
X219676Y210307
X209676Y210307
X199676Y210307
X189676Y210307
X179676Y210307
X169676Y210307
X159676Y210307
X149676Y210307
X139676Y210307
X129676Y210307
X119676Y210307
X109676Y210307
X163676Y186307
X179676Y190307
X189676Y190307
X199676Y190307
X209676Y190307
X219676Y190307
X229676Y190307
X239676Y190307
X239676Y160307
X229676Y160307
X219676Y160307
X209676Y160307
X199676Y160307
X189676Y160307
X179676Y160307
X167676Y152307
X163676Y166307
X167676Y137307
X167676Y121307
X161676Y107307
X161676Y93307
X191676Y93307
X204676Y93307
X191676Y107307
X209676Y110307
X219676Y110307
X229676Y110307
X239676Y110307
X244676Y93307
X117676Y152307
X117676Y137307
X117676Y121307
X102676Y130307
X92676Y130307
X92676Y99307
X102676Y99307
X239676Y140307
X229676Y140307
X219676Y140307
X209676Y140307
T03
X88676Y263307
X98676Y263307
X108676Y263307
X118676Y263307
X128676Y263307
X138676Y263307
X148676Y263307
X158676Y263307
X174676Y263307
X184676Y263307
X194676Y263307
X204676Y263307
X214676Y263307
X224676Y263307
X234676Y263307
X244676Y263307
X89676Y156307
X114699Y73307
X124699Y73307
X134699Y73307
X144699Y73307
X154699Y73307
X164699Y73307
X174699Y73307
X194676Y73307
X204676Y73307
X214676Y73307
X224676Y73307
X234676Y73307
X244676Y73307
T04
X90676Y199102
X90676Y173512
M30
