G75*
%MOIN*%
%OFA0B0*%
%FSLAX25Y25*%
%IPPOS*%
%LPD*%
%AMOC8*
5,1,8,0,0,1.08239X$1,22.5*
%
%ADD10C,0.01000*%
%ADD11C,0.01200*%
%ADD12C,0.06400*%
%ADD13C,0.05600*%
%ADD14OC8,0.05600*%
%ADD15C,0.10400*%
%ADD16OC8,0.05156*%
%ADD17OC8,0.07200*%
D10*
X0078676Y0063307D02*
X0254676Y0063307D01*
X0254676Y0273307D01*
X0078676Y0273307D01*
D11*
X0078676Y0063307D01*
D12*
X0114699Y0070307D02*
X0114699Y0076307D01*
X0124699Y0076307D02*
X0124699Y0070307D01*
X0134699Y0070307D02*
X0134699Y0076307D01*
X0144699Y0076307D02*
X0144699Y0070307D01*
X0154699Y0070307D02*
X0154699Y0076307D01*
X0164699Y0076307D02*
X0164699Y0070307D01*
X0174699Y0070307D02*
X0174699Y0076307D01*
X0194676Y0076307D02*
X0194676Y0070307D01*
X0204676Y0070307D02*
X0204676Y0076307D01*
X0214676Y0076307D02*
X0214676Y0070307D01*
X0224676Y0070307D02*
X0224676Y0076307D01*
X0234676Y0076307D02*
X0234676Y0070307D01*
X0244676Y0070307D02*
X0244676Y0076307D01*
X0092676Y0156307D02*
X0086676Y0156307D01*
X0088676Y0260307D02*
X0088676Y0266307D01*
X0098676Y0266307D02*
X0098676Y0260307D01*
X0108676Y0260307D02*
X0108676Y0266307D01*
X0118676Y0266307D02*
X0118676Y0260307D01*
X0128676Y0260307D02*
X0128676Y0266307D01*
X0138676Y0266307D02*
X0138676Y0260307D01*
X0148676Y0260307D02*
X0148676Y0266307D01*
X0158676Y0266307D02*
X0158676Y0260307D01*
X0174676Y0260307D02*
X0174676Y0266307D01*
X0184676Y0266307D02*
X0184676Y0260307D01*
X0194676Y0260307D02*
X0194676Y0266307D01*
X0204676Y0266307D02*
X0204676Y0260307D01*
X0214676Y0260307D02*
X0214676Y0266307D01*
X0224676Y0266307D02*
X0224676Y0260307D01*
X0234676Y0260307D02*
X0234676Y0266307D01*
X0244676Y0266307D02*
X0244676Y0260307D01*
D13*
X0239676Y0242907D02*
X0239676Y0237707D01*
X0229676Y0237707D02*
X0229676Y0242907D01*
X0219676Y0242907D02*
X0219676Y0237707D01*
X0209676Y0237707D02*
X0209676Y0242907D01*
X0199676Y0242907D02*
X0199676Y0237707D01*
X0189676Y0237707D02*
X0189676Y0242907D01*
X0179676Y0242907D02*
X0179676Y0237707D01*
X0169676Y0237707D02*
X0169676Y0242907D01*
X0159676Y0242907D02*
X0159676Y0237707D01*
X0149676Y0237707D02*
X0149676Y0242907D01*
X0139676Y0242907D02*
X0139676Y0237707D01*
X0129676Y0237707D02*
X0129676Y0242907D01*
X0119676Y0242907D02*
X0119676Y0237707D01*
X0109676Y0237707D02*
X0109676Y0242907D01*
X0109676Y0212907D02*
X0109676Y0207707D01*
X0119676Y0207707D02*
X0119676Y0212907D01*
X0129676Y0212907D02*
X0129676Y0207707D01*
X0139676Y0207707D02*
X0139676Y0212907D01*
X0149676Y0212907D02*
X0149676Y0207707D01*
X0159676Y0207707D02*
X0159676Y0212907D01*
X0169676Y0212907D02*
X0169676Y0207707D01*
X0179676Y0207707D02*
X0179676Y0212907D01*
X0189676Y0212907D02*
X0189676Y0207707D01*
X0199676Y0207707D02*
X0199676Y0212907D01*
X0209676Y0212907D02*
X0209676Y0207707D01*
X0219676Y0207707D02*
X0219676Y0212907D01*
X0229676Y0212907D02*
X0229676Y0207707D01*
X0239676Y0207707D02*
X0239676Y0212907D01*
X0239676Y0192907D02*
X0239676Y0187707D01*
X0229676Y0187707D02*
X0229676Y0192907D01*
X0219676Y0192907D02*
X0219676Y0187707D01*
X0209676Y0187707D02*
X0209676Y0192907D01*
X0199676Y0192907D02*
X0199676Y0187707D01*
X0189676Y0187707D02*
X0189676Y0192907D01*
X0179676Y0192907D02*
X0179676Y0187707D01*
X0179676Y0162907D02*
X0179676Y0157707D01*
X0189676Y0157707D02*
X0189676Y0162907D01*
X0199676Y0162907D02*
X0199676Y0157707D01*
X0209676Y0157707D02*
X0209676Y0162907D01*
X0219676Y0162907D02*
X0219676Y0157707D01*
X0229676Y0157707D02*
X0229676Y0162907D01*
X0239676Y0162907D02*
X0239676Y0157707D01*
D14*
X0191676Y0107307D03*
X0191676Y0093307D03*
X0204676Y0093307D03*
X0167676Y0121307D03*
X0161676Y0107307D03*
X0161676Y0093307D03*
X0117676Y0121307D03*
X0117676Y0137307D03*
X0117676Y0152307D03*
X0102676Y0130307D03*
X0092676Y0130307D03*
X0092676Y0099307D03*
X0102676Y0099307D03*
X0167676Y0137307D03*
X0167676Y0152307D03*
X0163676Y0166307D03*
X0163676Y0186307D03*
X0244676Y0093307D03*
D15*
X0090676Y0173512D03*
X0090676Y0199102D03*
D16*
X0119676Y0093307D03*
X0129676Y0093307D03*
X0139676Y0093307D03*
D17*
X0209676Y0110307D03*
X0219676Y0110307D03*
X0229676Y0110307D03*
X0239676Y0110307D03*
X0239676Y0140307D03*
X0229676Y0140307D03*
X0219676Y0140307D03*
X0209676Y0140307D03*
M02*
