G75*
%MOIN*%
%OFA0B0*%
%FSLAX25Y25*%
%IPPOS*%
%LPD*%
%AMOC8*
5,1,8,0,0,1.08239X$1,22.5*
%
%ADD10C,0.01000*%
%ADD11C,0.01200*%
%ADD12C,0.06000*%
%ADD13C,0.05200*%
%ADD14OC8,0.05200*%
%ADD15C,0.10000*%
%ADD16OC8,0.04756*%
%ADD17OC8,0.06800*%
%ADD18C,0.01600*%
%ADD19C,0.01400*%
%ADD20C,0.02400*%
D10*
X0078676Y0063307D02*
X0254676Y0063307D01*
X0254676Y0273307D01*
X0078676Y0273307D01*
D11*
X0078676Y0063307D01*
X0106676Y0089307D02*
X0143676Y0089307D01*
X0161676Y0107307D01*
X0171676Y0093307D02*
X0171676Y0123307D01*
X0167676Y0127307D01*
X0167676Y0137307D01*
X0178176Y0153307D02*
X0167676Y0163807D01*
X0167676Y0172307D01*
X0129676Y0210307D01*
X0135676Y0222807D02*
X0145676Y0212807D01*
X0145676Y0205807D01*
X0148176Y0203307D01*
X0163676Y0203307D01*
X0163676Y0186307D01*
X0163676Y0185807D01*
X0179676Y0169807D01*
X0179676Y0160307D01*
X0183676Y0162807D02*
X0183676Y0155807D01*
X0181176Y0153307D01*
X0178176Y0153307D01*
X0183676Y0162807D02*
X0190176Y0169307D01*
X0207176Y0169307D01*
X0228176Y0190307D01*
X0229676Y0190307D01*
X0235676Y0185807D02*
X0239676Y0189807D01*
X0239676Y0190307D01*
X0232676Y0197307D01*
X0224176Y0197307D01*
X0211176Y0210307D01*
X0209676Y0210307D01*
X0209676Y0210807D01*
X0185676Y0234807D01*
X0185676Y0242807D01*
X0165176Y0263307D01*
X0158676Y0263307D01*
X0143676Y0258307D02*
X0138676Y0263307D01*
X0143676Y0258307D02*
X0143676Y0237807D01*
X0149676Y0231807D01*
X0149676Y0210307D01*
X0163676Y0204307D02*
X0163676Y0203307D01*
X0163676Y0204307D02*
X0169676Y0210307D01*
X0179676Y0210307D02*
X0179676Y0210807D01*
X0169676Y0220807D01*
X0169676Y0240307D01*
X0179676Y0210307D02*
X0179676Y0190307D01*
X0199676Y0190307D02*
X0209676Y0190307D01*
X0211176Y0167307D02*
X0196676Y0167307D01*
X0189676Y0160307D01*
X0211176Y0167307D02*
X0214676Y0163807D01*
X0214676Y0138307D01*
X0219676Y0133307D01*
X0219676Y0110307D01*
X0229676Y0140307D02*
X0229676Y0151807D01*
X0235676Y0157807D01*
X0235676Y0185807D01*
X0174676Y0093307D02*
X0171676Y0093307D01*
X0161676Y0093307D01*
X0174676Y0093307D02*
X0194676Y0073307D01*
X0119676Y0093307D02*
X0082176Y0130807D01*
X0082176Y0157807D01*
X0090676Y0166307D01*
X0090676Y0173512D01*
X0135676Y0222807D02*
X0135676Y0242807D01*
X0118676Y0259807D01*
X0118676Y0263307D01*
X0096676Y0099307D02*
X0092676Y0099307D01*
X0096676Y0099307D02*
X0106676Y0089307D01*
D12*
X0114699Y0076307D02*
X0114699Y0070307D01*
X0124699Y0070307D02*
X0124699Y0076307D01*
X0134699Y0076307D02*
X0134699Y0070307D01*
X0144699Y0070307D02*
X0144699Y0076307D01*
X0154699Y0076307D02*
X0154699Y0070307D01*
X0164699Y0070307D02*
X0164699Y0076307D01*
X0174699Y0076307D02*
X0174699Y0070307D01*
X0194676Y0070307D02*
X0194676Y0076307D01*
X0204676Y0076307D02*
X0204676Y0070307D01*
X0214676Y0070307D02*
X0214676Y0076307D01*
X0224676Y0076307D02*
X0224676Y0070307D01*
X0234676Y0070307D02*
X0234676Y0076307D01*
X0244676Y0076307D02*
X0244676Y0070307D01*
X0092676Y0156307D02*
X0086676Y0156307D01*
X0088676Y0260307D02*
X0088676Y0266307D01*
X0098676Y0266307D02*
X0098676Y0260307D01*
X0108676Y0260307D02*
X0108676Y0266307D01*
X0118676Y0266307D02*
X0118676Y0260307D01*
X0128676Y0260307D02*
X0128676Y0266307D01*
X0138676Y0266307D02*
X0138676Y0260307D01*
X0148676Y0260307D02*
X0148676Y0266307D01*
X0158676Y0266307D02*
X0158676Y0260307D01*
X0174676Y0260307D02*
X0174676Y0266307D01*
X0184676Y0266307D02*
X0184676Y0260307D01*
X0194676Y0260307D02*
X0194676Y0266307D01*
X0204676Y0266307D02*
X0204676Y0260307D01*
X0214676Y0260307D02*
X0214676Y0266307D01*
X0224676Y0266307D02*
X0224676Y0260307D01*
X0234676Y0260307D02*
X0234676Y0266307D01*
X0244676Y0266307D02*
X0244676Y0260307D01*
D13*
X0239676Y0242907D02*
X0239676Y0237707D01*
X0229676Y0237707D02*
X0229676Y0242907D01*
X0219676Y0242907D02*
X0219676Y0237707D01*
X0209676Y0237707D02*
X0209676Y0242907D01*
X0199676Y0242907D02*
X0199676Y0237707D01*
X0189676Y0237707D02*
X0189676Y0242907D01*
X0179676Y0242907D02*
X0179676Y0237707D01*
X0169676Y0237707D02*
X0169676Y0242907D01*
X0159676Y0242907D02*
X0159676Y0237707D01*
X0149676Y0237707D02*
X0149676Y0242907D01*
X0139676Y0242907D02*
X0139676Y0237707D01*
X0129676Y0237707D02*
X0129676Y0242907D01*
X0119676Y0242907D02*
X0119676Y0237707D01*
X0109676Y0237707D02*
X0109676Y0242907D01*
X0109676Y0212907D02*
X0109676Y0207707D01*
X0119676Y0207707D02*
X0119676Y0212907D01*
X0129676Y0212907D02*
X0129676Y0207707D01*
X0139676Y0207707D02*
X0139676Y0212907D01*
X0149676Y0212907D02*
X0149676Y0207707D01*
X0159676Y0207707D02*
X0159676Y0212907D01*
X0169676Y0212907D02*
X0169676Y0207707D01*
X0179676Y0207707D02*
X0179676Y0212907D01*
X0189676Y0212907D02*
X0189676Y0207707D01*
X0199676Y0207707D02*
X0199676Y0212907D01*
X0209676Y0212907D02*
X0209676Y0207707D01*
X0219676Y0207707D02*
X0219676Y0212907D01*
X0229676Y0212907D02*
X0229676Y0207707D01*
X0239676Y0207707D02*
X0239676Y0212907D01*
X0239676Y0192907D02*
X0239676Y0187707D01*
X0229676Y0187707D02*
X0229676Y0192907D01*
X0219676Y0192907D02*
X0219676Y0187707D01*
X0209676Y0187707D02*
X0209676Y0192907D01*
X0199676Y0192907D02*
X0199676Y0187707D01*
X0189676Y0187707D02*
X0189676Y0192907D01*
X0179676Y0192907D02*
X0179676Y0187707D01*
X0179676Y0162907D02*
X0179676Y0157707D01*
X0189676Y0157707D02*
X0189676Y0162907D01*
X0199676Y0162907D02*
X0199676Y0157707D01*
X0209676Y0157707D02*
X0209676Y0162907D01*
X0219676Y0162907D02*
X0219676Y0157707D01*
X0229676Y0157707D02*
X0229676Y0162907D01*
X0239676Y0162907D02*
X0239676Y0157707D01*
D14*
X0191676Y0107307D03*
X0191676Y0093307D03*
X0204676Y0093307D03*
X0167676Y0121307D03*
X0161676Y0107307D03*
X0161676Y0093307D03*
X0117676Y0121307D03*
X0117676Y0137307D03*
X0117676Y0152307D03*
X0102676Y0130307D03*
X0092676Y0130307D03*
X0092676Y0099307D03*
X0102676Y0099307D03*
X0167676Y0137307D03*
X0167676Y0152307D03*
X0163676Y0166307D03*
X0163676Y0186307D03*
X0244676Y0093307D03*
D15*
X0090676Y0173512D03*
X0090676Y0199102D03*
D16*
X0119676Y0093307D03*
X0129676Y0093307D03*
X0139676Y0093307D03*
D17*
X0209676Y0110307D03*
X0219676Y0110307D03*
X0229676Y0110307D03*
X0239676Y0110307D03*
X0239676Y0140307D03*
X0229676Y0140307D03*
X0219676Y0140307D03*
X0209676Y0140307D03*
D18*
X0203816Y0133642D02*
X0182867Y0133642D01*
X0184465Y0132043D02*
X0205414Y0132043D01*
X0206476Y0130982D02*
X0206476Y0114744D01*
X0204276Y0112544D01*
X0204276Y0112233D01*
X0172388Y0144120D01*
X0171488Y0145020D01*
X0170312Y0145507D01*
X0151539Y0145507D01*
X0150363Y0145020D01*
X0139926Y0134583D01*
X0122276Y0152233D01*
X0122276Y0154212D01*
X0119581Y0156907D01*
X0117101Y0156907D01*
X0114988Y0159020D01*
X0113812Y0159507D01*
X0096547Y0159507D01*
X0095508Y0160546D01*
X0093670Y0161307D01*
X0085681Y0161307D01*
X0083843Y0160546D01*
X0082437Y0159139D01*
X0081676Y0157302D01*
X0081676Y0155313D01*
X0082437Y0153475D01*
X0083843Y0152068D01*
X0085681Y0151307D01*
X0093670Y0151307D01*
X0095508Y0152068D01*
X0096547Y0153107D01*
X0111850Y0153107D01*
X0113076Y0151882D01*
X0113076Y0150402D01*
X0115770Y0147707D01*
X0117750Y0147707D01*
X0136476Y0128982D01*
X0136476Y0096298D01*
X0135298Y0095120D01*
X0135298Y0091907D01*
X0134054Y0091907D01*
X0134054Y0095120D01*
X0131489Y0097685D01*
X0127862Y0097685D01*
X0125298Y0095120D01*
X0125298Y0091907D01*
X0123854Y0091907D01*
X0123854Y0093307D01*
X0119676Y0093307D01*
X0119676Y0093307D01*
X0123854Y0093307D01*
X0123854Y0095038D01*
X0121406Y0097485D01*
X0119676Y0097485D01*
X0119676Y0093307D01*
X0119676Y0093307D01*
X0119676Y0097485D01*
X0117945Y0097485D01*
X0115498Y0095038D01*
X0115498Y0093307D01*
X0115498Y0091907D01*
X0107753Y0091907D01*
X0104767Y0094893D01*
X0107276Y0097402D01*
X0107276Y0101212D01*
X0104581Y0103907D01*
X0100770Y0103907D01*
X0098261Y0101398D01*
X0098148Y0101511D01*
X0097193Y0101907D01*
X0096581Y0101907D01*
X0094581Y0103907D01*
X0090770Y0103907D01*
X0088076Y0101212D01*
X0088076Y0097402D01*
X0090770Y0094707D01*
X0094581Y0094707D01*
X0096090Y0096216D01*
X0104471Y0087834D01*
X0105203Y0087103D01*
X0106158Y0086707D01*
X0143257Y0086707D01*
X0142887Y0086337D01*
X0142476Y0085344D01*
X0142476Y0080798D01*
X0141867Y0080546D01*
X0140460Y0079139D01*
X0139699Y0077302D01*
X0138938Y0079139D01*
X0137531Y0080546D01*
X0135694Y0081307D01*
X0133705Y0081307D01*
X0131867Y0080546D01*
X0130460Y0079139D01*
X0129699Y0077302D01*
X0128938Y0079139D01*
X0127531Y0080546D01*
X0125694Y0081307D01*
X0123705Y0081307D01*
X0121867Y0080546D01*
X0120460Y0079139D01*
X0119699Y0077302D01*
X0118938Y0079139D01*
X0117531Y0080546D01*
X0115694Y0081307D01*
X0113705Y0081307D01*
X0111867Y0080546D01*
X0110460Y0079139D01*
X0109699Y0077302D01*
X0109699Y0069313D01*
X0110460Y0067475D01*
X0111628Y0066307D01*
X0081276Y0066307D01*
X0081276Y0270807D01*
X0086474Y0270807D01*
X0085843Y0270546D01*
X0084437Y0269139D01*
X0083676Y0267302D01*
X0083676Y0259313D01*
X0084437Y0257475D01*
X0085843Y0256068D01*
X0087681Y0255307D01*
X0089670Y0255307D01*
X0091508Y0256068D01*
X0092914Y0257475D01*
X0093676Y0259313D01*
X0094437Y0257475D01*
X0095843Y0256068D01*
X0097681Y0255307D01*
X0099670Y0255307D01*
X0101508Y0256068D01*
X0102914Y0257475D01*
X0103676Y0259313D01*
X0104437Y0257475D01*
X0105843Y0256068D01*
X0107681Y0255307D01*
X0109670Y0255307D01*
X0111508Y0256068D01*
X0112914Y0257475D01*
X0113676Y0259313D01*
X0114437Y0257475D01*
X0115843Y0256068D01*
X0117681Y0255307D01*
X0119499Y0255307D01*
X0127727Y0247079D01*
X0127070Y0246807D01*
X0125776Y0245513D01*
X0125076Y0243822D01*
X0125076Y0236792D01*
X0125776Y0235101D01*
X0127070Y0233807D01*
X0128761Y0233107D01*
X0130591Y0233107D01*
X0132281Y0233807D01*
X0133076Y0234602D01*
X0133076Y0222290D01*
X0133471Y0221334D01*
X0137727Y0217079D01*
X0137070Y0216807D01*
X0135776Y0215513D01*
X0135076Y0213822D01*
X0135076Y0208584D01*
X0134276Y0209384D01*
X0134276Y0213822D01*
X0133575Y0215513D01*
X0132281Y0216807D01*
X0130591Y0217507D01*
X0128761Y0217507D01*
X0127070Y0216807D01*
X0125776Y0215513D01*
X0125076Y0213822D01*
X0125076Y0206792D01*
X0125776Y0205101D01*
X0127070Y0203807D01*
X0128761Y0203107D01*
X0130591Y0203107D01*
X0132281Y0203807D01*
X0132390Y0203916D01*
X0165076Y0171230D01*
X0165076Y0170907D01*
X0161770Y0170907D01*
X0159076Y0168212D01*
X0159076Y0164402D01*
X0161770Y0161707D01*
X0165581Y0161707D01*
X0165840Y0161966D01*
X0166203Y0161603D01*
X0174299Y0153507D01*
X0172276Y0153507D01*
X0172276Y0154212D01*
X0169581Y0156907D01*
X0165770Y0156907D01*
X0163076Y0154212D01*
X0163076Y0150402D01*
X0165770Y0147707D01*
X0167750Y0147707D01*
X0167863Y0147594D01*
X0169039Y0147107D01*
X0196976Y0147107D01*
X0196976Y0141171D01*
X0197463Y0139994D01*
X0198363Y0139094D01*
X0206476Y0130982D01*
X0206476Y0130445D02*
X0186064Y0130445D01*
X0187662Y0128846D02*
X0206476Y0128846D01*
X0206476Y0127248D02*
X0189261Y0127248D01*
X0190859Y0125649D02*
X0206476Y0125649D01*
X0206476Y0124051D02*
X0192458Y0124051D01*
X0194056Y0122452D02*
X0206476Y0122452D01*
X0206476Y0120853D02*
X0195655Y0120853D01*
X0197253Y0119255D02*
X0206476Y0119255D01*
X0206476Y0117656D02*
X0198852Y0117656D01*
X0200450Y0116058D02*
X0206476Y0116058D01*
X0206191Y0114459D02*
X0202049Y0114459D01*
X0203647Y0112861D02*
X0204593Y0112861D01*
X0199392Y0108065D02*
X0196276Y0108065D01*
X0196276Y0109212D02*
X0193581Y0111907D01*
X0189770Y0111907D01*
X0187076Y0109212D01*
X0187076Y0105402D01*
X0189770Y0102707D01*
X0193581Y0102707D01*
X0196276Y0105402D01*
X0196276Y0109212D01*
X0195824Y0109664D02*
X0197793Y0109664D01*
X0196195Y0111262D02*
X0194226Y0111262D01*
X0194596Y0112861D02*
X0174276Y0112861D01*
X0174276Y0114459D02*
X0192998Y0114459D01*
X0191399Y0116058D02*
X0174276Y0116058D01*
X0174276Y0117656D02*
X0189801Y0117656D01*
X0188202Y0119255D02*
X0174276Y0119255D01*
X0174276Y0120853D02*
X0186604Y0120853D01*
X0185005Y0122452D02*
X0174276Y0122452D01*
X0174276Y0123824D02*
X0173880Y0124780D01*
X0173148Y0125511D01*
X0170276Y0128384D01*
X0170276Y0133402D01*
X0172166Y0135292D01*
X0216863Y0090594D01*
X0218039Y0090107D01*
X0241370Y0090107D01*
X0242770Y0088707D01*
X0246581Y0088707D01*
X0249276Y0091402D01*
X0249276Y0095212D01*
X0246581Y0097907D01*
X0242770Y0097907D01*
X0241370Y0096507D01*
X0220001Y0096507D01*
X0211601Y0104907D01*
X0211912Y0104907D01*
X0214676Y0107670D01*
X0217439Y0104907D01*
X0221912Y0104907D01*
X0224676Y0107670D01*
X0227439Y0104907D01*
X0231912Y0104907D01*
X0234817Y0107812D01*
X0237522Y0105107D01*
X0239676Y0105107D01*
X0241829Y0105107D01*
X0244876Y0108153D01*
X0244876Y0110307D01*
X0239676Y0110307D01*
X0239676Y0110307D01*
X0244876Y0110307D01*
X0244876Y0112461D01*
X0241829Y0115507D01*
X0239676Y0115507D01*
X0239676Y0110307D01*
X0239676Y0105107D01*
X0239676Y0110307D01*
X0239676Y0110307D01*
X0239676Y0110307D01*
X0239676Y0115507D01*
X0237522Y0115507D01*
X0234817Y0112802D01*
X0231912Y0115707D01*
X0227439Y0115707D01*
X0224676Y0112944D01*
X0222276Y0115344D01*
X0222276Y0133824D01*
X0221880Y0134780D01*
X0221753Y0134907D01*
X0221912Y0134907D01*
X0224676Y0137670D01*
X0227439Y0134907D01*
X0231912Y0134907D01*
X0234676Y0137670D01*
X0237439Y0134907D01*
X0241912Y0134907D01*
X0245076Y0138070D01*
X0245076Y0142544D01*
X0241912Y0145707D01*
X0237439Y0145707D01*
X0234676Y0142944D01*
X0232276Y0145344D01*
X0232276Y0150730D01*
X0236211Y0154666D01*
X0237070Y0153807D01*
X0238761Y0153107D01*
X0240591Y0153107D01*
X0242281Y0153807D01*
X0243575Y0155101D01*
X0244276Y0156792D01*
X0244276Y0163822D01*
X0243575Y0165513D01*
X0242281Y0166807D01*
X0240591Y0167507D01*
X0238761Y0167507D01*
X0238276Y0167306D01*
X0238276Y0183308D01*
X0238761Y0183107D01*
X0240591Y0183107D01*
X0242281Y0183807D01*
X0243575Y0185101D01*
X0244276Y0186792D01*
X0244276Y0193822D01*
X0243575Y0195513D01*
X0242281Y0196807D01*
X0240591Y0197507D01*
X0238761Y0197507D01*
X0237070Y0196807D01*
X0236961Y0196698D01*
X0234148Y0199511D01*
X0233193Y0199907D01*
X0225253Y0199907D01*
X0221624Y0203535D01*
X0222281Y0203807D01*
X0223575Y0205101D01*
X0224276Y0206792D01*
X0224276Y0213822D01*
X0223575Y0215513D01*
X0222281Y0216807D01*
X0220591Y0217507D01*
X0218761Y0217507D01*
X0217070Y0216807D01*
X0215776Y0215513D01*
X0215076Y0213822D01*
X0215076Y0210084D01*
X0214276Y0210884D01*
X0214276Y0213822D01*
X0213575Y0215513D01*
X0212281Y0216807D01*
X0210591Y0217507D01*
X0208761Y0217507D01*
X0207270Y0216890D01*
X0190917Y0233242D01*
X0192281Y0233807D01*
X0193575Y0235101D01*
X0194276Y0236792D01*
X0194276Y0243822D01*
X0193575Y0245513D01*
X0192281Y0246807D01*
X0190591Y0247507D01*
X0188761Y0247507D01*
X0187070Y0246807D01*
X0186211Y0245948D01*
X0176506Y0255653D01*
X0177508Y0256068D01*
X0178914Y0257475D01*
X0179676Y0259313D01*
X0180437Y0257475D01*
X0181843Y0256068D01*
X0183681Y0255307D01*
X0185670Y0255307D01*
X0187508Y0256068D01*
X0188914Y0257475D01*
X0189676Y0259313D01*
X0190437Y0257475D01*
X0191843Y0256068D01*
X0193681Y0255307D01*
X0195670Y0255307D01*
X0197508Y0256068D01*
X0198914Y0257475D01*
X0199676Y0259313D01*
X0200437Y0257475D01*
X0201843Y0256068D01*
X0203681Y0255307D01*
X0205670Y0255307D01*
X0207508Y0256068D01*
X0208914Y0257475D01*
X0209676Y0259313D01*
X0210437Y0257475D01*
X0211843Y0256068D01*
X0213681Y0255307D01*
X0215670Y0255307D01*
X0217508Y0256068D01*
X0218914Y0257475D01*
X0219676Y0259313D01*
X0220437Y0257475D01*
X0221843Y0256068D01*
X0223681Y0255307D01*
X0225670Y0255307D01*
X0227508Y0256068D01*
X0228914Y0257475D01*
X0229676Y0259313D01*
X0230437Y0257475D01*
X0231843Y0256068D01*
X0233681Y0255307D01*
X0235670Y0255307D01*
X0237508Y0256068D01*
X0238914Y0257475D01*
X0239676Y0259313D01*
X0240437Y0257475D01*
X0241843Y0256068D01*
X0243681Y0255307D01*
X0245670Y0255307D01*
X0247508Y0256068D01*
X0248914Y0257475D01*
X0249676Y0259313D01*
X0249676Y0267302D01*
X0248914Y0269139D01*
X0247508Y0270546D01*
X0246877Y0270807D01*
X0252176Y0270807D01*
X0252176Y0066307D01*
X0247747Y0066307D01*
X0248914Y0067475D01*
X0249676Y0069313D01*
X0249676Y0077302D01*
X0248914Y0079139D01*
X0247508Y0080546D01*
X0245670Y0081307D01*
X0243681Y0081307D01*
X0241843Y0080546D01*
X0240437Y0079139D01*
X0239676Y0077302D01*
X0239676Y0069313D01*
X0240437Y0067475D01*
X0241605Y0066307D01*
X0237747Y0066307D01*
X0238914Y0067475D01*
X0239676Y0069313D01*
X0239676Y0077302D01*
X0238914Y0079139D01*
X0237508Y0080546D01*
X0235670Y0081307D01*
X0233681Y0081307D01*
X0231843Y0080546D01*
X0230437Y0079139D01*
X0229676Y0077302D01*
X0229676Y0069313D01*
X0230437Y0067475D01*
X0231605Y0066307D01*
X0227747Y0066307D01*
X0228914Y0067475D01*
X0229676Y0069313D01*
X0229676Y0077302D01*
X0228914Y0079139D01*
X0227508Y0080546D01*
X0225670Y0081307D01*
X0223681Y0081307D01*
X0221843Y0080546D01*
X0220437Y0079139D01*
X0219676Y0077302D01*
X0219676Y0069313D01*
X0220437Y0067475D01*
X0221605Y0066307D01*
X0217747Y0066307D01*
X0218914Y0067475D01*
X0219676Y0069313D01*
X0219676Y0077302D01*
X0218914Y0079139D01*
X0217508Y0080546D01*
X0215670Y0081307D01*
X0213681Y0081307D01*
X0211843Y0080546D01*
X0210437Y0079139D01*
X0209676Y0077302D01*
X0209676Y0069313D01*
X0210437Y0067475D01*
X0211605Y0066307D01*
X0207747Y0066307D01*
X0208914Y0067475D01*
X0209676Y0069313D01*
X0209676Y0077302D01*
X0208914Y0079139D01*
X0207508Y0080546D01*
X0205670Y0081307D01*
X0203681Y0081307D01*
X0201843Y0080546D01*
X0200437Y0079139D01*
X0199676Y0077302D01*
X0199676Y0069313D01*
X0200437Y0067475D01*
X0201605Y0066307D01*
X0197747Y0066307D01*
X0198914Y0067475D01*
X0199676Y0069313D01*
X0199676Y0077302D01*
X0198914Y0079139D01*
X0197508Y0080546D01*
X0195670Y0081307D01*
X0193681Y0081307D01*
X0191843Y0080546D01*
X0191479Y0080181D01*
X0176148Y0095511D01*
X0175193Y0095907D01*
X0174276Y0095907D01*
X0174276Y0123824D01*
X0174182Y0124051D02*
X0183407Y0124051D01*
X0181808Y0125649D02*
X0173011Y0125649D01*
X0171412Y0127248D02*
X0180210Y0127248D01*
X0178611Y0128846D02*
X0170276Y0128846D01*
X0170276Y0130445D02*
X0177013Y0130445D01*
X0175414Y0132043D02*
X0170276Y0132043D01*
X0170515Y0133642D02*
X0173816Y0133642D01*
X0172217Y0135240D02*
X0172114Y0135240D01*
X0176473Y0140036D02*
X0197446Y0140036D01*
X0196976Y0141634D02*
X0174874Y0141634D01*
X0173275Y0143233D02*
X0196976Y0143233D01*
X0196976Y0144831D02*
X0171677Y0144831D01*
X0178071Y0138437D02*
X0199020Y0138437D01*
X0200619Y0136839D02*
X0179670Y0136839D01*
X0181268Y0135240D02*
X0202217Y0135240D01*
X0196976Y0146430D02*
X0128078Y0146430D01*
X0126480Y0148028D02*
X0165449Y0148028D01*
X0163851Y0149627D02*
X0124881Y0149627D01*
X0123283Y0151225D02*
X0163076Y0151225D01*
X0163076Y0152824D02*
X0122276Y0152824D01*
X0122066Y0154422D02*
X0163285Y0154422D01*
X0164884Y0156021D02*
X0120467Y0156021D01*
X0116389Y0157619D02*
X0170186Y0157619D01*
X0170467Y0156021D02*
X0171785Y0156021D01*
X0172066Y0154422D02*
X0173383Y0154422D01*
X0168588Y0159218D02*
X0114511Y0159218D01*
X0112133Y0152824D02*
X0096263Y0152824D01*
X0094855Y0160816D02*
X0166989Y0160816D01*
X0161063Y0162415D02*
X0081276Y0162415D01*
X0081276Y0164013D02*
X0159464Y0164013D01*
X0159076Y0165612D02*
X0081276Y0165612D01*
X0081276Y0167210D02*
X0088119Y0167210D01*
X0088485Y0167059D02*
X0089346Y0166828D01*
X0090196Y0166716D01*
X0090196Y0173032D01*
X0091155Y0173032D01*
X0091155Y0166716D01*
X0092005Y0166828D01*
X0092866Y0167059D01*
X0093690Y0167400D01*
X0094462Y0167846D01*
X0095169Y0168388D01*
X0095799Y0169019D01*
X0096342Y0169726D01*
X0096787Y0170498D01*
X0097129Y0171321D01*
X0097359Y0172182D01*
X0097471Y0173032D01*
X0091155Y0173032D01*
X0091155Y0173991D01*
X0097471Y0173991D01*
X0097359Y0174841D01*
X0097129Y0175702D01*
X0096787Y0176526D01*
X0096342Y0177298D01*
X0095799Y0178005D01*
X0095169Y0178635D01*
X0094462Y0179178D01*
X0093690Y0179624D01*
X0092866Y0179965D01*
X0092005Y0180195D01*
X0091155Y0180307D01*
X0091155Y0173991D01*
X0090196Y0173991D01*
X0090196Y0173032D01*
X0083880Y0173032D01*
X0083992Y0172182D01*
X0084223Y0171321D01*
X0084564Y0170498D01*
X0085009Y0169726D01*
X0085552Y0169019D01*
X0086182Y0168388D01*
X0086890Y0167846D01*
X0087662Y0167400D01*
X0088485Y0167059D01*
X0090196Y0167210D02*
X0091155Y0167210D01*
X0091155Y0168809D02*
X0090196Y0168809D01*
X0090196Y0170407D02*
X0091155Y0170407D01*
X0091155Y0172006D02*
X0090196Y0172006D01*
X0090196Y0173604D02*
X0081276Y0173604D01*
X0081276Y0172006D02*
X0084039Y0172006D01*
X0084616Y0170407D02*
X0081276Y0170407D01*
X0081276Y0168809D02*
X0085762Y0168809D01*
X0083880Y0173991D02*
X0090196Y0173991D01*
X0090196Y0180307D01*
X0089346Y0180195D01*
X0088485Y0179965D01*
X0087662Y0179624D01*
X0086890Y0179178D01*
X0086182Y0178635D01*
X0085552Y0178005D01*
X0085009Y0177298D01*
X0084564Y0176526D01*
X0084223Y0175702D01*
X0083992Y0174841D01*
X0083880Y0173991D01*
X0084089Y0175203D02*
X0081276Y0175203D01*
X0081276Y0176801D02*
X0084723Y0176801D01*
X0085947Y0178400D02*
X0081276Y0178400D01*
X0081276Y0179998D02*
X0088611Y0179998D01*
X0090196Y0179998D02*
X0091155Y0179998D01*
X0092740Y0179998D02*
X0156307Y0179998D01*
X0157906Y0178400D02*
X0095404Y0178400D01*
X0096628Y0176801D02*
X0159504Y0176801D01*
X0161103Y0175203D02*
X0097262Y0175203D01*
X0097312Y0172006D02*
X0164300Y0172006D01*
X0162701Y0173604D02*
X0091155Y0173604D01*
X0091155Y0175203D02*
X0090196Y0175203D01*
X0090196Y0176801D02*
X0091155Y0176801D01*
X0091155Y0178400D02*
X0090196Y0178400D01*
X0081276Y0181597D02*
X0154709Y0181597D01*
X0153110Y0183195D02*
X0081276Y0183195D01*
X0081276Y0184794D02*
X0151512Y0184794D01*
X0149913Y0186392D02*
X0081276Y0186392D01*
X0081276Y0187991D02*
X0148315Y0187991D01*
X0146716Y0189589D02*
X0081276Y0189589D01*
X0081276Y0191188D02*
X0145118Y0191188D01*
X0143519Y0192787D02*
X0093720Y0192787D01*
X0094641Y0193168D02*
X0092068Y0192102D01*
X0089283Y0192102D01*
X0086710Y0193168D01*
X0084741Y0195137D01*
X0083676Y0197710D01*
X0083676Y0200495D01*
X0084741Y0203068D01*
X0086710Y0205037D01*
X0089283Y0206102D01*
X0092068Y0206102D01*
X0094641Y0205037D01*
X0096610Y0203068D01*
X0097676Y0200495D01*
X0097676Y0197710D01*
X0096610Y0195137D01*
X0094641Y0193168D01*
X0095858Y0194385D02*
X0141921Y0194385D01*
X0140322Y0195984D02*
X0096960Y0195984D01*
X0097623Y0197582D02*
X0138724Y0197582D01*
X0137125Y0199181D02*
X0097676Y0199181D01*
X0097558Y0200779D02*
X0135527Y0200779D01*
X0133928Y0202378D02*
X0096896Y0202378D01*
X0095701Y0203976D02*
X0106901Y0203976D01*
X0107070Y0203807D02*
X0108761Y0203107D01*
X0110591Y0203107D01*
X0112281Y0203807D01*
X0113575Y0205101D01*
X0114276Y0206792D01*
X0114276Y0213822D01*
X0113575Y0215513D01*
X0112281Y0216807D01*
X0110591Y0217507D01*
X0108761Y0217507D01*
X0107070Y0216807D01*
X0105776Y0215513D01*
X0105076Y0213822D01*
X0105076Y0206792D01*
X0105776Y0205101D01*
X0107070Y0203807D01*
X0105580Y0205575D02*
X0093342Y0205575D01*
X0088009Y0205575D02*
X0081276Y0205575D01*
X0081276Y0207173D02*
X0105076Y0207173D01*
X0105076Y0208772D02*
X0081276Y0208772D01*
X0081276Y0210370D02*
X0105076Y0210370D01*
X0105076Y0211969D02*
X0081276Y0211969D01*
X0081276Y0213567D02*
X0105076Y0213567D01*
X0105632Y0215166D02*
X0081276Y0215166D01*
X0081276Y0216764D02*
X0107027Y0216764D01*
X0112324Y0216764D02*
X0117027Y0216764D01*
X0117070Y0216807D02*
X0115776Y0215513D01*
X0115076Y0213822D01*
X0115076Y0206792D01*
X0115776Y0205101D01*
X0117070Y0203807D01*
X0118761Y0203107D01*
X0120591Y0203107D01*
X0122281Y0203807D01*
X0123575Y0205101D01*
X0124276Y0206792D01*
X0124276Y0213822D01*
X0123575Y0215513D01*
X0122281Y0216807D01*
X0120591Y0217507D01*
X0118761Y0217507D01*
X0117070Y0216807D01*
X0115632Y0215166D02*
X0113719Y0215166D01*
X0114276Y0213567D02*
X0115076Y0213567D01*
X0115076Y0211969D02*
X0114276Y0211969D01*
X0114276Y0210370D02*
X0115076Y0210370D01*
X0115076Y0208772D02*
X0114276Y0208772D01*
X0114276Y0207173D02*
X0115076Y0207173D01*
X0115580Y0205575D02*
X0113771Y0205575D01*
X0112450Y0203976D02*
X0116901Y0203976D01*
X0122450Y0203976D02*
X0126901Y0203976D01*
X0125580Y0205575D02*
X0123771Y0205575D01*
X0124276Y0207173D02*
X0125076Y0207173D01*
X0125076Y0208772D02*
X0124276Y0208772D01*
X0124276Y0210370D02*
X0125076Y0210370D01*
X0125076Y0211969D02*
X0124276Y0211969D01*
X0124276Y0213567D02*
X0125076Y0213567D01*
X0125632Y0215166D02*
X0123719Y0215166D01*
X0122324Y0216764D02*
X0127027Y0216764D01*
X0132324Y0216764D02*
X0137027Y0216764D01*
X0136443Y0218363D02*
X0081276Y0218363D01*
X0081276Y0219961D02*
X0134845Y0219961D01*
X0133378Y0221560D02*
X0081276Y0221560D01*
X0081276Y0223158D02*
X0133076Y0223158D01*
X0133076Y0224757D02*
X0081276Y0224757D01*
X0081276Y0226355D02*
X0133076Y0226355D01*
X0133076Y0227954D02*
X0081276Y0227954D01*
X0081276Y0229552D02*
X0133076Y0229552D01*
X0133076Y0231151D02*
X0081276Y0231151D01*
X0081276Y0232749D02*
X0133076Y0232749D01*
X0133076Y0234348D02*
X0132822Y0234348D01*
X0126529Y0234348D02*
X0122822Y0234348D01*
X0122281Y0233807D02*
X0123575Y0235101D01*
X0124276Y0236792D01*
X0124276Y0243822D01*
X0123575Y0245513D01*
X0122281Y0246807D01*
X0120591Y0247507D01*
X0118761Y0247507D01*
X0117070Y0246807D01*
X0115776Y0245513D01*
X0115076Y0243822D01*
X0115076Y0236792D01*
X0115776Y0235101D01*
X0117070Y0233807D01*
X0118761Y0233107D01*
X0120591Y0233107D01*
X0122281Y0233807D01*
X0123925Y0235946D02*
X0125426Y0235946D01*
X0125076Y0237545D02*
X0124276Y0237545D01*
X0124276Y0239143D02*
X0125076Y0239143D01*
X0125076Y0240742D02*
X0124276Y0240742D01*
X0124276Y0242340D02*
X0125076Y0242340D01*
X0125124Y0243939D02*
X0124227Y0243939D01*
X0123551Y0245537D02*
X0125801Y0245537D01*
X0127670Y0247136D02*
X0121487Y0247136D01*
X0117864Y0247136D02*
X0111487Y0247136D01*
X0112281Y0246807D02*
X0110591Y0247507D01*
X0108761Y0247507D01*
X0107070Y0246807D01*
X0105776Y0245513D01*
X0105076Y0243822D01*
X0105076Y0236792D01*
X0105776Y0235101D01*
X0107070Y0233807D01*
X0108761Y0233107D01*
X0110591Y0233107D01*
X0112281Y0233807D01*
X0113575Y0235101D01*
X0114276Y0236792D01*
X0114276Y0243822D01*
X0113575Y0245513D01*
X0112281Y0246807D01*
X0113551Y0245537D02*
X0115801Y0245537D01*
X0115124Y0243939D02*
X0114227Y0243939D01*
X0114276Y0242340D02*
X0115076Y0242340D01*
X0115076Y0240742D02*
X0114276Y0240742D01*
X0114276Y0239143D02*
X0115076Y0239143D01*
X0115076Y0237545D02*
X0114276Y0237545D01*
X0113925Y0235946D02*
X0115426Y0235946D01*
X0116529Y0234348D02*
X0112822Y0234348D01*
X0106529Y0234348D02*
X0081276Y0234348D01*
X0081276Y0235946D02*
X0105426Y0235946D01*
X0105076Y0237545D02*
X0081276Y0237545D01*
X0081276Y0239143D02*
X0105076Y0239143D01*
X0105076Y0240742D02*
X0081276Y0240742D01*
X0081276Y0242340D02*
X0105076Y0242340D01*
X0105124Y0243939D02*
X0081276Y0243939D01*
X0081276Y0245537D02*
X0105801Y0245537D01*
X0107864Y0247136D02*
X0081276Y0247136D01*
X0081276Y0248734D02*
X0126071Y0248734D01*
X0124473Y0250333D02*
X0081276Y0250333D01*
X0081276Y0251931D02*
X0122874Y0251931D01*
X0121276Y0253530D02*
X0081276Y0253530D01*
X0081276Y0255128D02*
X0119677Y0255128D01*
X0115185Y0256727D02*
X0112167Y0256727D01*
X0113267Y0258325D02*
X0114084Y0258325D01*
X0113676Y0259313D02*
X0113676Y0267302D01*
X0114437Y0269139D01*
X0115843Y0270546D01*
X0116474Y0270807D01*
X0110877Y0270807D01*
X0111508Y0270546D01*
X0112914Y0269139D01*
X0113676Y0267302D01*
X0113676Y0259313D01*
X0113676Y0259924D02*
X0113676Y0259924D01*
X0113676Y0261522D02*
X0113676Y0261522D01*
X0113676Y0263121D02*
X0113676Y0263121D01*
X0113676Y0264720D02*
X0113676Y0264720D01*
X0113676Y0266318D02*
X0113676Y0266318D01*
X0113421Y0267917D02*
X0113930Y0267917D01*
X0114812Y0269515D02*
X0112539Y0269515D01*
X0106474Y0270807D02*
X0105843Y0270546D01*
X0104437Y0269139D01*
X0103676Y0267302D01*
X0103676Y0259313D01*
X0103676Y0267302D01*
X0102914Y0269139D01*
X0101508Y0270546D01*
X0100877Y0270807D01*
X0106474Y0270807D01*
X0104812Y0269515D02*
X0102539Y0269515D01*
X0103421Y0267917D02*
X0103930Y0267917D01*
X0103676Y0266318D02*
X0103676Y0266318D01*
X0103676Y0264720D02*
X0103676Y0264720D01*
X0103676Y0263121D02*
X0103676Y0263121D01*
X0103676Y0261522D02*
X0103676Y0261522D01*
X0103676Y0259924D02*
X0103676Y0259924D01*
X0103267Y0258325D02*
X0104084Y0258325D01*
X0105185Y0256727D02*
X0102167Y0256727D01*
X0095185Y0256727D02*
X0092167Y0256727D01*
X0093267Y0258325D02*
X0094084Y0258325D01*
X0093676Y0259313D02*
X0093676Y0267302D01*
X0094437Y0269139D01*
X0095843Y0270546D01*
X0096474Y0270807D01*
X0090877Y0270807D01*
X0091508Y0270546D01*
X0092914Y0269139D01*
X0093676Y0267302D01*
X0093676Y0259313D01*
X0093676Y0259924D02*
X0093676Y0259924D01*
X0093676Y0261522D02*
X0093676Y0261522D01*
X0093676Y0263121D02*
X0093676Y0263121D01*
X0093676Y0264720D02*
X0093676Y0264720D01*
X0093676Y0266318D02*
X0093676Y0266318D01*
X0093421Y0267917D02*
X0093930Y0267917D01*
X0094812Y0269515D02*
X0092539Y0269515D01*
X0084812Y0269515D02*
X0081276Y0269515D01*
X0081276Y0267917D02*
X0083930Y0267917D01*
X0083676Y0266318D02*
X0081276Y0266318D01*
X0081276Y0264720D02*
X0083676Y0264720D01*
X0083676Y0263121D02*
X0081276Y0263121D01*
X0081276Y0261522D02*
X0083676Y0261522D01*
X0083676Y0259924D02*
X0081276Y0259924D01*
X0081276Y0258325D02*
X0084084Y0258325D01*
X0085185Y0256727D02*
X0081276Y0256727D01*
X0133719Y0215166D02*
X0135632Y0215166D01*
X0135076Y0213567D02*
X0134276Y0213567D01*
X0134276Y0211969D02*
X0135076Y0211969D01*
X0135076Y0210370D02*
X0134276Y0210370D01*
X0134888Y0208772D02*
X0135076Y0208772D01*
X0152276Y0216809D02*
X0152276Y0232324D01*
X0151880Y0233280D01*
X0151624Y0233535D01*
X0152281Y0233807D01*
X0153575Y0235101D01*
X0154276Y0236792D01*
X0154276Y0243822D01*
X0153575Y0245513D01*
X0152281Y0246807D01*
X0150591Y0247507D01*
X0148761Y0247507D01*
X0147070Y0246807D01*
X0146276Y0246012D01*
X0146276Y0255889D01*
X0147681Y0255307D01*
X0149670Y0255307D01*
X0151508Y0256068D01*
X0152914Y0257475D01*
X0153676Y0259313D01*
X0154437Y0257475D01*
X0155843Y0256068D01*
X0157681Y0255307D01*
X0159670Y0255307D01*
X0161508Y0256068D01*
X0162914Y0257475D01*
X0163676Y0259313D01*
X0163676Y0260707D01*
X0164099Y0260707D01*
X0177727Y0247079D01*
X0177070Y0246807D01*
X0175776Y0245513D01*
X0175076Y0243822D01*
X0175076Y0236792D01*
X0175776Y0235101D01*
X0177070Y0233807D01*
X0178761Y0233107D01*
X0180591Y0233107D01*
X0182281Y0233807D01*
X0183076Y0234602D01*
X0183076Y0234290D01*
X0183471Y0233334D01*
X0199299Y0217507D01*
X0198761Y0217507D01*
X0197070Y0216807D01*
X0195776Y0215513D01*
X0195076Y0213822D01*
X0195076Y0206792D01*
X0195776Y0205101D01*
X0197070Y0203807D01*
X0198761Y0203107D01*
X0200591Y0203107D01*
X0202281Y0203807D01*
X0203575Y0205101D01*
X0204276Y0206792D01*
X0204276Y0212530D01*
X0205076Y0211730D01*
X0205076Y0206792D01*
X0205776Y0205101D01*
X0207070Y0203807D01*
X0208761Y0203107D01*
X0210591Y0203107D01*
X0212281Y0203807D01*
X0213140Y0204666D01*
X0220299Y0197507D01*
X0218761Y0197507D01*
X0217070Y0196807D01*
X0215776Y0195513D01*
X0215076Y0193822D01*
X0215076Y0186792D01*
X0215776Y0185101D01*
X0217070Y0183807D01*
X0217727Y0183535D01*
X0206099Y0171907D01*
X0189658Y0171907D01*
X0188703Y0171511D01*
X0187971Y0170780D01*
X0187971Y0170780D01*
X0183140Y0165948D01*
X0182281Y0166807D01*
X0182276Y0166809D01*
X0182276Y0170324D01*
X0181880Y0171280D01*
X0168276Y0184884D01*
X0168276Y0188212D01*
X0166276Y0190212D01*
X0166276Y0203230D01*
X0166961Y0203916D01*
X0167070Y0203807D01*
X0168761Y0203107D01*
X0170591Y0203107D01*
X0172281Y0203807D01*
X0173575Y0205101D01*
X0174276Y0206792D01*
X0174276Y0213822D01*
X0173575Y0215513D01*
X0172281Y0216807D01*
X0170591Y0217507D01*
X0168761Y0217507D01*
X0167070Y0216807D01*
X0165776Y0215513D01*
X0165076Y0213822D01*
X0165076Y0209384D01*
X0164276Y0208584D01*
X0164276Y0213822D01*
X0163575Y0215513D01*
X0162281Y0216807D01*
X0160591Y0217507D01*
X0158761Y0217507D01*
X0157070Y0216807D01*
X0155776Y0215513D01*
X0155076Y0213822D01*
X0155076Y0206792D01*
X0155442Y0205907D01*
X0153909Y0205907D01*
X0154276Y0206792D01*
X0154276Y0213822D01*
X0153575Y0215513D01*
X0152281Y0216807D01*
X0152276Y0216809D01*
X0152324Y0216764D02*
X0157027Y0216764D01*
X0155632Y0215166D02*
X0153719Y0215166D01*
X0154276Y0213567D02*
X0155076Y0213567D01*
X0155076Y0211969D02*
X0154276Y0211969D01*
X0154276Y0210370D02*
X0155076Y0210370D01*
X0155076Y0208772D02*
X0154276Y0208772D01*
X0154276Y0207173D02*
X0155076Y0207173D01*
X0164276Y0208772D02*
X0164463Y0208772D01*
X0164276Y0210370D02*
X0165076Y0210370D01*
X0165076Y0211969D02*
X0164276Y0211969D01*
X0164276Y0213567D02*
X0165076Y0213567D01*
X0165632Y0215166D02*
X0163719Y0215166D01*
X0162324Y0216764D02*
X0167027Y0216764D01*
X0172324Y0216764D02*
X0177554Y0216764D01*
X0177369Y0216670D02*
X0176809Y0216263D01*
X0176319Y0215773D01*
X0175912Y0215213D01*
X0175598Y0214596D01*
X0175384Y0213937D01*
X0175276Y0213253D01*
X0175276Y0210307D01*
X0175276Y0207361D01*
X0175384Y0206677D01*
X0175598Y0206018D01*
X0175912Y0205401D01*
X0176319Y0204841D01*
X0176809Y0204351D01*
X0177369Y0203944D01*
X0177987Y0203629D01*
X0178645Y0203415D01*
X0179329Y0203307D01*
X0179676Y0203307D01*
X0180022Y0203307D01*
X0180706Y0203415D01*
X0181365Y0203629D01*
X0181982Y0203944D01*
X0182542Y0204351D01*
X0183032Y0204841D01*
X0183439Y0205401D01*
X0183753Y0206018D01*
X0183967Y0206677D01*
X0184076Y0207361D01*
X0184076Y0210307D01*
X0179676Y0210307D01*
X0179676Y0210307D01*
X0184076Y0210307D01*
X0184076Y0213253D01*
X0183967Y0213937D01*
X0183753Y0214596D01*
X0183439Y0215213D01*
X0183032Y0215773D01*
X0182542Y0216263D01*
X0181982Y0216670D01*
X0181365Y0216985D01*
X0180706Y0217199D01*
X0180022Y0217307D01*
X0179676Y0217307D01*
X0179676Y0210307D01*
X0179676Y0203307D01*
X0179676Y0210307D01*
X0179676Y0210307D01*
X0179676Y0210307D01*
X0179676Y0217307D01*
X0179329Y0217307D01*
X0178645Y0217199D01*
X0177987Y0216985D01*
X0177369Y0216670D01*
X0175888Y0215166D02*
X0173719Y0215166D01*
X0174276Y0213567D02*
X0175325Y0213567D01*
X0175276Y0211969D02*
X0174276Y0211969D01*
X0174276Y0210370D02*
X0175276Y0210370D01*
X0175276Y0210307D02*
X0179675Y0210307D01*
X0175276Y0210307D01*
X0175276Y0208772D02*
X0174276Y0208772D01*
X0174276Y0207173D02*
X0175305Y0207173D01*
X0175824Y0205575D02*
X0173771Y0205575D01*
X0172450Y0203976D02*
X0177325Y0203976D01*
X0179676Y0203976D02*
X0179676Y0203976D01*
X0179676Y0205575D02*
X0179676Y0205575D01*
X0179676Y0207173D02*
X0179676Y0207173D01*
X0179676Y0208772D02*
X0179676Y0208772D01*
X0179675Y0210307D02*
X0179675Y0210307D01*
X0179676Y0210370D02*
X0179676Y0210370D01*
X0179676Y0211969D02*
X0179676Y0211969D01*
X0179676Y0213567D02*
X0179676Y0213567D01*
X0179676Y0215166D02*
X0179676Y0215166D01*
X0179676Y0216764D02*
X0179676Y0216764D01*
X0181797Y0216764D02*
X0187027Y0216764D01*
X0187070Y0216807D02*
X0185776Y0215513D01*
X0185076Y0213822D01*
X0185076Y0206792D01*
X0185776Y0205101D01*
X0187070Y0203807D01*
X0188761Y0203107D01*
X0190591Y0203107D01*
X0192281Y0203807D01*
X0193575Y0205101D01*
X0194276Y0206792D01*
X0194276Y0213822D01*
X0193575Y0215513D01*
X0192281Y0216807D01*
X0190591Y0217507D01*
X0188761Y0217507D01*
X0187070Y0216807D01*
X0185632Y0215166D02*
X0183463Y0215166D01*
X0184026Y0213567D02*
X0185076Y0213567D01*
X0185076Y0211969D02*
X0184076Y0211969D01*
X0184076Y0210370D02*
X0185076Y0210370D01*
X0185076Y0208772D02*
X0184076Y0208772D01*
X0184046Y0207173D02*
X0185076Y0207173D01*
X0185580Y0205575D02*
X0183527Y0205575D01*
X0182026Y0203976D02*
X0186901Y0203976D01*
X0192450Y0203976D02*
X0196901Y0203976D01*
X0195580Y0205575D02*
X0193771Y0205575D01*
X0194276Y0207173D02*
X0195076Y0207173D01*
X0195076Y0208772D02*
X0194276Y0208772D01*
X0194276Y0210370D02*
X0195076Y0210370D01*
X0195076Y0211969D02*
X0194276Y0211969D01*
X0194276Y0213567D02*
X0195076Y0213567D01*
X0195632Y0215166D02*
X0193719Y0215166D01*
X0192324Y0216764D02*
X0197027Y0216764D01*
X0198443Y0218363D02*
X0152276Y0218363D01*
X0152276Y0219961D02*
X0196845Y0219961D01*
X0195246Y0221560D02*
X0152276Y0221560D01*
X0152276Y0223158D02*
X0193648Y0223158D01*
X0192049Y0224757D02*
X0152276Y0224757D01*
X0152276Y0226355D02*
X0190450Y0226355D01*
X0188852Y0227954D02*
X0152276Y0227954D01*
X0152276Y0229552D02*
X0187253Y0229552D01*
X0185655Y0231151D02*
X0152276Y0231151D01*
X0152100Y0232749D02*
X0184056Y0232749D01*
X0183076Y0234348D02*
X0182822Y0234348D01*
X0176529Y0234348D02*
X0172538Y0234348D01*
X0172542Y0234351D02*
X0173032Y0234841D01*
X0173439Y0235401D01*
X0173753Y0236018D01*
X0173967Y0236677D01*
X0174076Y0237361D01*
X0174076Y0240307D01*
X0169676Y0240307D01*
X0169676Y0240307D01*
X0174076Y0240307D01*
X0174076Y0243253D01*
X0173967Y0243937D01*
X0173753Y0244596D01*
X0173439Y0245213D01*
X0173032Y0245773D01*
X0172542Y0246263D01*
X0171982Y0246670D01*
X0171365Y0246985D01*
X0170706Y0247199D01*
X0170022Y0247307D01*
X0169676Y0247307D01*
X0169676Y0240307D01*
X0169676Y0233307D01*
X0170022Y0233307D01*
X0170706Y0233415D01*
X0171365Y0233629D01*
X0171982Y0233944D01*
X0172542Y0234351D01*
X0173717Y0235946D02*
X0175426Y0235946D01*
X0175076Y0237545D02*
X0174076Y0237545D01*
X0174076Y0239143D02*
X0175076Y0239143D01*
X0175076Y0240742D02*
X0174076Y0240742D01*
X0174076Y0242340D02*
X0175076Y0242340D01*
X0175124Y0243939D02*
X0173967Y0243939D01*
X0173203Y0245537D02*
X0175801Y0245537D01*
X0177670Y0247136D02*
X0170899Y0247136D01*
X0169676Y0247136D02*
X0169676Y0247136D01*
X0169676Y0247307D02*
X0169329Y0247307D01*
X0168645Y0247199D01*
X0167987Y0246985D01*
X0167369Y0246670D01*
X0166809Y0246263D01*
X0166319Y0245773D01*
X0165912Y0245213D01*
X0165598Y0244596D01*
X0165384Y0243937D01*
X0165276Y0243253D01*
X0165276Y0240307D01*
X0165276Y0237361D01*
X0165384Y0236677D01*
X0165598Y0236018D01*
X0165912Y0235401D01*
X0166319Y0234841D01*
X0166809Y0234351D01*
X0167369Y0233944D01*
X0167987Y0233629D01*
X0168645Y0233415D01*
X0169329Y0233307D01*
X0169676Y0233307D01*
X0169676Y0240307D01*
X0169676Y0240307D01*
X0169676Y0240307D01*
X0169676Y0247307D01*
X0168452Y0247136D02*
X0161487Y0247136D01*
X0162281Y0246807D02*
X0160591Y0247507D01*
X0158761Y0247507D01*
X0157070Y0246807D01*
X0155776Y0245513D01*
X0155076Y0243822D01*
X0155076Y0236792D01*
X0155776Y0235101D01*
X0157070Y0233807D01*
X0158761Y0233107D01*
X0160591Y0233107D01*
X0162281Y0233807D01*
X0163575Y0235101D01*
X0164276Y0236792D01*
X0164276Y0243822D01*
X0163575Y0245513D01*
X0162281Y0246807D01*
X0163551Y0245537D02*
X0166148Y0245537D01*
X0165384Y0243939D02*
X0164227Y0243939D01*
X0164276Y0242340D02*
X0165276Y0242340D01*
X0165276Y0240742D02*
X0164276Y0240742D01*
X0165276Y0240307D02*
X0169675Y0240307D01*
X0165276Y0240307D01*
X0165276Y0239143D02*
X0164276Y0239143D01*
X0164276Y0237545D02*
X0165276Y0237545D01*
X0165634Y0235946D02*
X0163925Y0235946D01*
X0162822Y0234348D02*
X0166814Y0234348D01*
X0169676Y0234348D02*
X0169676Y0234348D01*
X0169676Y0235946D02*
X0169676Y0235946D01*
X0169676Y0237545D02*
X0169676Y0237545D01*
X0169676Y0239143D02*
X0169676Y0239143D01*
X0169675Y0240307D02*
X0169675Y0240307D01*
X0169676Y0240742D02*
X0169676Y0240742D01*
X0169676Y0242340D02*
X0169676Y0242340D01*
X0169676Y0243939D02*
X0169676Y0243939D01*
X0169676Y0245537D02*
X0169676Y0245537D01*
X0174473Y0250333D02*
X0146276Y0250333D01*
X0146276Y0251931D02*
X0172874Y0251931D01*
X0171276Y0253530D02*
X0146276Y0253530D01*
X0146276Y0255128D02*
X0169677Y0255128D01*
X0168079Y0256727D02*
X0162167Y0256727D01*
X0163267Y0258325D02*
X0166480Y0258325D01*
X0164882Y0259924D02*
X0163676Y0259924D01*
X0155185Y0256727D02*
X0152167Y0256727D01*
X0153267Y0258325D02*
X0154084Y0258325D01*
X0153676Y0259313D02*
X0153676Y0267302D01*
X0154437Y0269139D01*
X0155843Y0270546D01*
X0156474Y0270807D01*
X0150877Y0270807D01*
X0151508Y0270546D01*
X0152914Y0269139D01*
X0153676Y0267302D01*
X0153676Y0259313D01*
X0153676Y0259924D02*
X0153676Y0259924D01*
X0153676Y0261522D02*
X0153676Y0261522D01*
X0153676Y0263121D02*
X0153676Y0263121D01*
X0153676Y0264720D02*
X0153676Y0264720D01*
X0153676Y0266318D02*
X0153676Y0266318D01*
X0153421Y0267917D02*
X0153930Y0267917D01*
X0154812Y0269515D02*
X0152539Y0269515D01*
X0146276Y0248734D02*
X0176071Y0248734D01*
X0180228Y0251931D02*
X0252176Y0251931D01*
X0252176Y0250333D02*
X0181827Y0250333D01*
X0183425Y0248734D02*
X0252176Y0248734D01*
X0252176Y0247136D02*
X0241487Y0247136D01*
X0242281Y0246807D02*
X0240591Y0247507D01*
X0238761Y0247507D01*
X0237070Y0246807D01*
X0235776Y0245513D01*
X0235076Y0243822D01*
X0235076Y0236792D01*
X0235776Y0235101D01*
X0237070Y0233807D01*
X0238761Y0233107D01*
X0240591Y0233107D01*
X0242281Y0233807D01*
X0243575Y0235101D01*
X0244276Y0236792D01*
X0244276Y0243822D01*
X0243575Y0245513D01*
X0242281Y0246807D01*
X0243551Y0245537D02*
X0252176Y0245537D01*
X0252176Y0243939D02*
X0244227Y0243939D01*
X0244276Y0242340D02*
X0252176Y0242340D01*
X0252176Y0240742D02*
X0244276Y0240742D01*
X0244276Y0239143D02*
X0252176Y0239143D01*
X0252176Y0237545D02*
X0244276Y0237545D01*
X0243925Y0235946D02*
X0252176Y0235946D01*
X0252176Y0234348D02*
X0242822Y0234348D01*
X0236529Y0234348D02*
X0232822Y0234348D01*
X0232281Y0233807D02*
X0233575Y0235101D01*
X0234276Y0236792D01*
X0234276Y0243822D01*
X0233575Y0245513D01*
X0232281Y0246807D01*
X0230591Y0247507D01*
X0228761Y0247507D01*
X0227070Y0246807D01*
X0225776Y0245513D01*
X0225076Y0243822D01*
X0225076Y0236792D01*
X0225776Y0235101D01*
X0227070Y0233807D01*
X0228761Y0233107D01*
X0230591Y0233107D01*
X0232281Y0233807D01*
X0233925Y0235946D02*
X0235426Y0235946D01*
X0235076Y0237545D02*
X0234276Y0237545D01*
X0234276Y0239143D02*
X0235076Y0239143D01*
X0235076Y0240742D02*
X0234276Y0240742D01*
X0234276Y0242340D02*
X0235076Y0242340D01*
X0235124Y0243939D02*
X0234227Y0243939D01*
X0233551Y0245537D02*
X0235801Y0245537D01*
X0237864Y0247136D02*
X0231487Y0247136D01*
X0227864Y0247136D02*
X0221487Y0247136D01*
X0222281Y0246807D02*
X0220591Y0247507D01*
X0218761Y0247507D01*
X0217070Y0246807D01*
X0215776Y0245513D01*
X0215076Y0243822D01*
X0215076Y0236792D01*
X0215776Y0235101D01*
X0217070Y0233807D01*
X0218761Y0233107D01*
X0220591Y0233107D01*
X0222281Y0233807D01*
X0223575Y0235101D01*
X0224276Y0236792D01*
X0224276Y0243822D01*
X0223575Y0245513D01*
X0222281Y0246807D01*
X0223551Y0245537D02*
X0225801Y0245537D01*
X0225124Y0243939D02*
X0224227Y0243939D01*
X0224276Y0242340D02*
X0225076Y0242340D01*
X0225076Y0240742D02*
X0224276Y0240742D01*
X0224276Y0239143D02*
X0225076Y0239143D01*
X0225076Y0237545D02*
X0224276Y0237545D01*
X0223925Y0235946D02*
X0225426Y0235946D01*
X0226529Y0234348D02*
X0222822Y0234348D01*
X0216529Y0234348D02*
X0212822Y0234348D01*
X0212281Y0233807D02*
X0213575Y0235101D01*
X0214276Y0236792D01*
X0214276Y0243822D01*
X0213575Y0245513D01*
X0212281Y0246807D01*
X0210591Y0247507D01*
X0208761Y0247507D01*
X0207070Y0246807D01*
X0205776Y0245513D01*
X0205076Y0243822D01*
X0205076Y0236792D01*
X0205776Y0235101D01*
X0207070Y0233807D01*
X0208761Y0233107D01*
X0210591Y0233107D01*
X0212281Y0233807D01*
X0213925Y0235946D02*
X0215426Y0235946D01*
X0215076Y0237545D02*
X0214276Y0237545D01*
X0214276Y0239143D02*
X0215076Y0239143D01*
X0215076Y0240742D02*
X0214276Y0240742D01*
X0214276Y0242340D02*
X0215076Y0242340D01*
X0215124Y0243939D02*
X0214227Y0243939D01*
X0213551Y0245537D02*
X0215801Y0245537D01*
X0217864Y0247136D02*
X0211487Y0247136D01*
X0207864Y0247136D02*
X0201487Y0247136D01*
X0202281Y0246807D02*
X0200591Y0247507D01*
X0198761Y0247507D01*
X0197070Y0246807D01*
X0195776Y0245513D01*
X0195076Y0243822D01*
X0195076Y0236792D01*
X0195776Y0235101D01*
X0197070Y0233807D01*
X0198761Y0233107D01*
X0200591Y0233107D01*
X0202281Y0233807D01*
X0203575Y0235101D01*
X0204276Y0236792D01*
X0204276Y0243822D01*
X0203575Y0245513D01*
X0202281Y0246807D01*
X0203551Y0245537D02*
X0205801Y0245537D01*
X0205124Y0243939D02*
X0204227Y0243939D01*
X0204276Y0242340D02*
X0205076Y0242340D01*
X0205076Y0240742D02*
X0204276Y0240742D01*
X0204276Y0239143D02*
X0205076Y0239143D01*
X0205076Y0237545D02*
X0204276Y0237545D01*
X0203925Y0235946D02*
X0205426Y0235946D01*
X0206529Y0234348D02*
X0202822Y0234348D01*
X0196529Y0234348D02*
X0192822Y0234348D01*
X0193925Y0235946D02*
X0195426Y0235946D01*
X0195076Y0237545D02*
X0194276Y0237545D01*
X0194276Y0239143D02*
X0195076Y0239143D01*
X0195076Y0240742D02*
X0194276Y0240742D01*
X0194276Y0242340D02*
X0195076Y0242340D01*
X0195124Y0243939D02*
X0194227Y0243939D01*
X0193551Y0245537D02*
X0195801Y0245537D01*
X0197864Y0247136D02*
X0191487Y0247136D01*
X0187864Y0247136D02*
X0185024Y0247136D01*
X0178630Y0253530D02*
X0252176Y0253530D01*
X0252176Y0255128D02*
X0177031Y0255128D01*
X0178167Y0256727D02*
X0181185Y0256727D01*
X0180084Y0258325D02*
X0179267Y0258325D01*
X0179676Y0259313D02*
X0179676Y0267302D01*
X0179676Y0259313D01*
X0179676Y0259924D02*
X0179676Y0259924D01*
X0179676Y0261522D02*
X0179676Y0261522D01*
X0179676Y0263121D02*
X0179676Y0263121D01*
X0179676Y0264720D02*
X0179676Y0264720D01*
X0179676Y0266318D02*
X0179676Y0266318D01*
X0179676Y0267302D02*
X0180437Y0269139D01*
X0181843Y0270546D01*
X0182474Y0270807D01*
X0176877Y0270807D01*
X0177508Y0270546D01*
X0178914Y0269139D01*
X0179676Y0267302D01*
X0179421Y0267917D02*
X0179930Y0267917D01*
X0180812Y0269515D02*
X0178539Y0269515D01*
X0186877Y0270807D02*
X0192474Y0270807D01*
X0191843Y0270546D01*
X0190437Y0269139D01*
X0189676Y0267302D01*
X0189676Y0259313D01*
X0189676Y0267302D01*
X0188914Y0269139D01*
X0187508Y0270546D01*
X0186877Y0270807D01*
X0188539Y0269515D02*
X0190812Y0269515D01*
X0189930Y0267917D02*
X0189421Y0267917D01*
X0189676Y0266318D02*
X0189676Y0266318D01*
X0189676Y0264720D02*
X0189676Y0264720D01*
X0189676Y0263121D02*
X0189676Y0263121D01*
X0189676Y0261522D02*
X0189676Y0261522D01*
X0189676Y0259924D02*
X0189676Y0259924D01*
X0189267Y0258325D02*
X0190084Y0258325D01*
X0191185Y0256727D02*
X0188167Y0256727D01*
X0198167Y0256727D02*
X0201185Y0256727D01*
X0200084Y0258325D02*
X0199267Y0258325D01*
X0199676Y0259313D02*
X0199676Y0267302D01*
X0199676Y0259313D01*
X0199676Y0259924D02*
X0199676Y0259924D01*
X0199676Y0261522D02*
X0199676Y0261522D01*
X0199676Y0263121D02*
X0199676Y0263121D01*
X0199676Y0264720D02*
X0199676Y0264720D01*
X0199676Y0266318D02*
X0199676Y0266318D01*
X0199676Y0267302D02*
X0200437Y0269139D01*
X0201843Y0270546D01*
X0202474Y0270807D01*
X0196877Y0270807D01*
X0197508Y0270546D01*
X0198914Y0269139D01*
X0199676Y0267302D01*
X0199421Y0267917D02*
X0199930Y0267917D01*
X0200812Y0269515D02*
X0198539Y0269515D01*
X0206877Y0270807D02*
X0212474Y0270807D01*
X0211843Y0270546D01*
X0210437Y0269139D01*
X0209676Y0267302D01*
X0209676Y0259313D01*
X0209676Y0267302D01*
X0208914Y0269139D01*
X0207508Y0270546D01*
X0206877Y0270807D01*
X0208539Y0269515D02*
X0210812Y0269515D01*
X0209930Y0267917D02*
X0209421Y0267917D01*
X0209676Y0266318D02*
X0209676Y0266318D01*
X0209676Y0264720D02*
X0209676Y0264720D01*
X0209676Y0263121D02*
X0209676Y0263121D01*
X0209676Y0261522D02*
X0209676Y0261522D01*
X0209676Y0259924D02*
X0209676Y0259924D01*
X0209267Y0258325D02*
X0210084Y0258325D01*
X0211185Y0256727D02*
X0208167Y0256727D01*
X0218167Y0256727D02*
X0221185Y0256727D01*
X0220084Y0258325D02*
X0219267Y0258325D01*
X0219676Y0259313D02*
X0219676Y0267302D01*
X0219676Y0259313D01*
X0219676Y0259924D02*
X0219676Y0259924D01*
X0219676Y0261522D02*
X0219676Y0261522D01*
X0219676Y0263121D02*
X0219676Y0263121D01*
X0219676Y0264720D02*
X0219676Y0264720D01*
X0219676Y0266318D02*
X0219676Y0266318D01*
X0219676Y0267302D02*
X0220437Y0269139D01*
X0221843Y0270546D01*
X0222474Y0270807D01*
X0216877Y0270807D01*
X0217508Y0270546D01*
X0218914Y0269139D01*
X0219676Y0267302D01*
X0219421Y0267917D02*
X0219930Y0267917D01*
X0220812Y0269515D02*
X0218539Y0269515D01*
X0226877Y0270807D02*
X0232474Y0270807D01*
X0231843Y0270546D01*
X0230437Y0269139D01*
X0229676Y0267302D01*
X0229676Y0259313D01*
X0229676Y0267302D01*
X0228914Y0269139D01*
X0227508Y0270546D01*
X0226877Y0270807D01*
X0228539Y0269515D02*
X0230812Y0269515D01*
X0229930Y0267917D02*
X0229421Y0267917D01*
X0229676Y0266318D02*
X0229676Y0266318D01*
X0229676Y0264720D02*
X0229676Y0264720D01*
X0229676Y0263121D02*
X0229676Y0263121D01*
X0229676Y0261522D02*
X0229676Y0261522D01*
X0229676Y0259924D02*
X0229676Y0259924D01*
X0229267Y0258325D02*
X0230084Y0258325D01*
X0231185Y0256727D02*
X0228167Y0256727D01*
X0238167Y0256727D02*
X0241185Y0256727D01*
X0240084Y0258325D02*
X0239267Y0258325D01*
X0239676Y0259313D02*
X0239676Y0267302D01*
X0239676Y0259313D01*
X0239676Y0259924D02*
X0239676Y0259924D01*
X0239676Y0261522D02*
X0239676Y0261522D01*
X0239676Y0263121D02*
X0239676Y0263121D01*
X0239676Y0264720D02*
X0239676Y0264720D01*
X0239676Y0266318D02*
X0239676Y0266318D01*
X0239676Y0267302D02*
X0240437Y0269139D01*
X0241843Y0270546D01*
X0242474Y0270807D01*
X0236877Y0270807D01*
X0237508Y0270546D01*
X0238914Y0269139D01*
X0239676Y0267302D01*
X0239421Y0267917D02*
X0239930Y0267917D01*
X0240812Y0269515D02*
X0238539Y0269515D01*
X0248539Y0269515D02*
X0252176Y0269515D01*
X0252176Y0267917D02*
X0249421Y0267917D01*
X0249676Y0266318D02*
X0252176Y0266318D01*
X0252176Y0264720D02*
X0249676Y0264720D01*
X0249676Y0263121D02*
X0252176Y0263121D01*
X0252176Y0261522D02*
X0249676Y0261522D01*
X0249676Y0259924D02*
X0252176Y0259924D01*
X0252176Y0258325D02*
X0249267Y0258325D01*
X0248167Y0256727D02*
X0252176Y0256727D01*
X0252176Y0232749D02*
X0191410Y0232749D01*
X0193009Y0231151D02*
X0252176Y0231151D01*
X0252176Y0229552D02*
X0194607Y0229552D01*
X0196206Y0227954D02*
X0252176Y0227954D01*
X0252176Y0226355D02*
X0197804Y0226355D01*
X0199403Y0224757D02*
X0252176Y0224757D01*
X0252176Y0223158D02*
X0201001Y0223158D01*
X0202600Y0221560D02*
X0252176Y0221560D01*
X0252176Y0219961D02*
X0204198Y0219961D01*
X0205797Y0218363D02*
X0252176Y0218363D01*
X0252176Y0216764D02*
X0242324Y0216764D01*
X0242281Y0216807D02*
X0240591Y0217507D01*
X0238761Y0217507D01*
X0237070Y0216807D01*
X0235776Y0215513D01*
X0235076Y0213822D01*
X0235076Y0206792D01*
X0235776Y0205101D01*
X0237070Y0203807D01*
X0238761Y0203107D01*
X0240591Y0203107D01*
X0242281Y0203807D01*
X0243575Y0205101D01*
X0244276Y0206792D01*
X0244276Y0213822D01*
X0243575Y0215513D01*
X0242281Y0216807D01*
X0243719Y0215166D02*
X0252176Y0215166D01*
X0252176Y0213567D02*
X0244276Y0213567D01*
X0244276Y0211969D02*
X0252176Y0211969D01*
X0252176Y0210370D02*
X0244276Y0210370D01*
X0244276Y0208772D02*
X0252176Y0208772D01*
X0252176Y0207173D02*
X0244276Y0207173D01*
X0243771Y0205575D02*
X0252176Y0205575D01*
X0252176Y0203976D02*
X0242450Y0203976D01*
X0236901Y0203976D02*
X0232450Y0203976D01*
X0232281Y0203807D02*
X0233575Y0205101D01*
X0234276Y0206792D01*
X0234276Y0213822D01*
X0233575Y0215513D01*
X0232281Y0216807D01*
X0230591Y0217507D01*
X0228761Y0217507D01*
X0227070Y0216807D01*
X0225776Y0215513D01*
X0225076Y0213822D01*
X0225076Y0206792D01*
X0225776Y0205101D01*
X0227070Y0203807D01*
X0228761Y0203107D01*
X0230591Y0203107D01*
X0232281Y0203807D01*
X0233771Y0205575D02*
X0235580Y0205575D01*
X0235076Y0207173D02*
X0234276Y0207173D01*
X0234276Y0208772D02*
X0235076Y0208772D01*
X0235076Y0210370D02*
X0234276Y0210370D01*
X0234276Y0211969D02*
X0235076Y0211969D01*
X0235076Y0213567D02*
X0234276Y0213567D01*
X0233719Y0215166D02*
X0235632Y0215166D01*
X0237027Y0216764D02*
X0232324Y0216764D01*
X0227027Y0216764D02*
X0222324Y0216764D01*
X0223719Y0215166D02*
X0225632Y0215166D01*
X0225076Y0213567D02*
X0224276Y0213567D01*
X0224276Y0211969D02*
X0225076Y0211969D01*
X0225076Y0210370D02*
X0224276Y0210370D01*
X0224276Y0208772D02*
X0225076Y0208772D01*
X0225076Y0207173D02*
X0224276Y0207173D01*
X0223771Y0205575D02*
X0225580Y0205575D01*
X0226901Y0203976D02*
X0222450Y0203976D01*
X0222782Y0202378D02*
X0252176Y0202378D01*
X0252176Y0200779D02*
X0224381Y0200779D01*
X0220224Y0197582D02*
X0166276Y0197582D01*
X0166276Y0195984D02*
X0176529Y0195984D01*
X0176319Y0195773D02*
X0175912Y0195213D01*
X0175598Y0194596D01*
X0175384Y0193937D01*
X0175276Y0193253D01*
X0175276Y0190307D01*
X0175276Y0187361D01*
X0175384Y0186677D01*
X0175598Y0186018D01*
X0175912Y0185401D01*
X0176319Y0184841D01*
X0176809Y0184351D01*
X0177369Y0183944D01*
X0177987Y0183629D01*
X0178645Y0183415D01*
X0179329Y0183307D01*
X0179676Y0183307D01*
X0180022Y0183307D01*
X0180706Y0183415D01*
X0181365Y0183629D01*
X0181982Y0183944D01*
X0182542Y0184351D01*
X0183032Y0184841D01*
X0183439Y0185401D01*
X0183753Y0186018D01*
X0183967Y0186677D01*
X0184076Y0187361D01*
X0184076Y0190307D01*
X0179676Y0190307D01*
X0179676Y0190307D01*
X0184076Y0190307D01*
X0184076Y0193253D01*
X0183967Y0193937D01*
X0183753Y0194596D01*
X0183439Y0195213D01*
X0183032Y0195773D01*
X0182542Y0196263D01*
X0181982Y0196670D01*
X0181365Y0196985D01*
X0180706Y0197199D01*
X0180022Y0197307D01*
X0179676Y0197307D01*
X0179676Y0190307D01*
X0179676Y0183307D01*
X0179676Y0190307D01*
X0179676Y0190307D01*
X0179676Y0190307D01*
X0179676Y0197307D01*
X0179329Y0197307D01*
X0178645Y0197199D01*
X0177987Y0196985D01*
X0177369Y0196670D01*
X0176809Y0196263D01*
X0176319Y0195773D01*
X0175529Y0194385D02*
X0166276Y0194385D01*
X0166276Y0192787D02*
X0175276Y0192787D01*
X0175276Y0191188D02*
X0166276Y0191188D01*
X0166899Y0189589D02*
X0175276Y0189589D01*
X0175276Y0190307D02*
X0179675Y0190307D01*
X0179675Y0190307D01*
X0175276Y0190307D01*
X0175276Y0187991D02*
X0168276Y0187991D01*
X0168276Y0186392D02*
X0175476Y0186392D01*
X0176366Y0184794D02*
X0168366Y0184794D01*
X0169964Y0183195D02*
X0217387Y0183195D01*
X0216083Y0184794D02*
X0212985Y0184794D01*
X0213032Y0184841D02*
X0213439Y0185401D01*
X0213753Y0186018D01*
X0213967Y0186677D01*
X0214076Y0187361D01*
X0214076Y0190307D01*
X0209676Y0190307D01*
X0209676Y0190307D01*
X0214076Y0190307D01*
X0214076Y0193253D01*
X0213967Y0193937D01*
X0213753Y0194596D01*
X0213439Y0195213D01*
X0213032Y0195773D01*
X0212542Y0196263D01*
X0211982Y0196670D01*
X0211365Y0196985D01*
X0210706Y0197199D01*
X0210022Y0197307D01*
X0209676Y0197307D01*
X0209676Y0190307D01*
X0209676Y0183307D01*
X0210022Y0183307D01*
X0210706Y0183415D01*
X0211365Y0183629D01*
X0211982Y0183944D01*
X0212542Y0184351D01*
X0213032Y0184841D01*
X0213875Y0186392D02*
X0215241Y0186392D01*
X0215076Y0187991D02*
X0214076Y0187991D01*
X0214076Y0189589D02*
X0215076Y0189589D01*
X0215076Y0191188D02*
X0214076Y0191188D01*
X0214076Y0192787D02*
X0215076Y0192787D01*
X0215309Y0194385D02*
X0213822Y0194385D01*
X0212822Y0195984D02*
X0216247Y0195984D01*
X0218625Y0199181D02*
X0166276Y0199181D01*
X0166276Y0200779D02*
X0217027Y0200779D01*
X0215428Y0202378D02*
X0166276Y0202378D01*
X0179676Y0195984D02*
X0179676Y0195984D01*
X0179676Y0194385D02*
X0179676Y0194385D01*
X0179676Y0192787D02*
X0179676Y0192787D01*
X0179676Y0191188D02*
X0179676Y0191188D01*
X0179676Y0189589D02*
X0179676Y0189589D01*
X0179676Y0187991D02*
X0179676Y0187991D01*
X0179676Y0186392D02*
X0179676Y0186392D01*
X0179676Y0184794D02*
X0179676Y0184794D01*
X0182985Y0184794D02*
X0186366Y0184794D01*
X0186319Y0184841D02*
X0186809Y0184351D01*
X0187369Y0183944D01*
X0187987Y0183629D01*
X0188645Y0183415D01*
X0189329Y0183307D01*
X0189676Y0183307D01*
X0190022Y0183307D01*
X0190706Y0183415D01*
X0191365Y0183629D01*
X0191982Y0183944D01*
X0192542Y0184351D01*
X0193032Y0184841D01*
X0193439Y0185401D01*
X0193753Y0186018D01*
X0193967Y0186677D01*
X0194076Y0187361D01*
X0194076Y0190307D01*
X0189676Y0190307D01*
X0189676Y0190307D01*
X0194076Y0190307D01*
X0194076Y0193253D01*
X0193967Y0193937D01*
X0193753Y0194596D01*
X0193439Y0195213D01*
X0193032Y0195773D01*
X0192542Y0196263D01*
X0191982Y0196670D01*
X0191365Y0196985D01*
X0190706Y0197199D01*
X0190022Y0197307D01*
X0189676Y0197307D01*
X0189676Y0190307D01*
X0189676Y0183307D01*
X0189676Y0190307D01*
X0189676Y0190307D01*
X0189676Y0190307D01*
X0189676Y0197307D01*
X0189329Y0197307D01*
X0188645Y0197199D01*
X0187987Y0196985D01*
X0187369Y0196670D01*
X0186809Y0196263D01*
X0186319Y0195773D01*
X0185912Y0195213D01*
X0185598Y0194596D01*
X0185384Y0193937D01*
X0185276Y0193253D01*
X0185276Y0190307D01*
X0185276Y0187361D01*
X0185384Y0186677D01*
X0185598Y0186018D01*
X0185912Y0185401D01*
X0186319Y0184841D01*
X0185476Y0186392D02*
X0183875Y0186392D01*
X0184076Y0187991D02*
X0185276Y0187991D01*
X0185276Y0189589D02*
X0184076Y0189589D01*
X0185276Y0190307D02*
X0189675Y0190307D01*
X0189675Y0190307D01*
X0185276Y0190307D01*
X0185276Y0191188D02*
X0184076Y0191188D01*
X0184076Y0192787D02*
X0185276Y0192787D01*
X0185529Y0194385D02*
X0183822Y0194385D01*
X0182822Y0195984D02*
X0186529Y0195984D01*
X0189676Y0195984D02*
X0189676Y0195984D01*
X0189676Y0194385D02*
X0189676Y0194385D01*
X0189676Y0192787D02*
X0189676Y0192787D01*
X0189676Y0191188D02*
X0189676Y0191188D01*
X0189676Y0189589D02*
X0189676Y0189589D01*
X0189676Y0187991D02*
X0189676Y0187991D01*
X0189676Y0186392D02*
X0189676Y0186392D01*
X0189676Y0184794D02*
X0189676Y0184794D01*
X0192985Y0184794D02*
X0196366Y0184794D01*
X0196319Y0184841D02*
X0196809Y0184351D01*
X0197369Y0183944D01*
X0197987Y0183629D01*
X0198645Y0183415D01*
X0199329Y0183307D01*
X0199676Y0183307D01*
X0200022Y0183307D01*
X0200706Y0183415D01*
X0201365Y0183629D01*
X0201982Y0183944D01*
X0202542Y0184351D01*
X0203032Y0184841D01*
X0203439Y0185401D01*
X0203753Y0186018D01*
X0203967Y0186677D01*
X0204076Y0187361D01*
X0204076Y0190307D01*
X0199676Y0190307D01*
X0199676Y0190307D01*
X0204076Y0190307D01*
X0204076Y0193253D01*
X0203967Y0193937D01*
X0203753Y0194596D01*
X0203439Y0195213D01*
X0203032Y0195773D01*
X0202542Y0196263D01*
X0201982Y0196670D01*
X0201365Y0196985D01*
X0200706Y0197199D01*
X0200022Y0197307D01*
X0199676Y0197307D01*
X0199676Y0190307D01*
X0199676Y0183307D01*
X0199676Y0190307D01*
X0199676Y0190307D01*
X0199676Y0190307D01*
X0199676Y0197307D01*
X0199329Y0197307D01*
X0198645Y0197199D01*
X0197987Y0196985D01*
X0197369Y0196670D01*
X0196809Y0196263D01*
X0196319Y0195773D01*
X0195912Y0195213D01*
X0195598Y0194596D01*
X0195384Y0193937D01*
X0195276Y0193253D01*
X0195276Y0190307D01*
X0195276Y0187361D01*
X0195384Y0186677D01*
X0195598Y0186018D01*
X0195912Y0185401D01*
X0196319Y0184841D01*
X0195476Y0186392D02*
X0193875Y0186392D01*
X0194076Y0187991D02*
X0195276Y0187991D01*
X0195276Y0189589D02*
X0194076Y0189589D01*
X0195276Y0190307D02*
X0199675Y0190307D01*
X0199675Y0190307D01*
X0195276Y0190307D01*
X0195276Y0191188D02*
X0194076Y0191188D01*
X0194076Y0192787D02*
X0195276Y0192787D01*
X0195529Y0194385D02*
X0193822Y0194385D01*
X0192822Y0195984D02*
X0196529Y0195984D01*
X0199676Y0195984D02*
X0199676Y0195984D01*
X0199676Y0194385D02*
X0199676Y0194385D01*
X0199676Y0192787D02*
X0199676Y0192787D01*
X0199676Y0191188D02*
X0199676Y0191188D01*
X0199676Y0189589D02*
X0199676Y0189589D01*
X0199676Y0187991D02*
X0199676Y0187991D01*
X0199676Y0186392D02*
X0199676Y0186392D01*
X0199676Y0184794D02*
X0199676Y0184794D01*
X0202985Y0184794D02*
X0206366Y0184794D01*
X0206319Y0184841D02*
X0206809Y0184351D01*
X0207369Y0183944D01*
X0207987Y0183629D01*
X0208645Y0183415D01*
X0209329Y0183307D01*
X0209676Y0183307D01*
X0209676Y0190307D01*
X0209676Y0190307D01*
X0209676Y0190307D01*
X0209676Y0197307D01*
X0209329Y0197307D01*
X0208645Y0197199D01*
X0207987Y0196985D01*
X0207369Y0196670D01*
X0206809Y0196263D01*
X0206319Y0195773D01*
X0205912Y0195213D01*
X0205598Y0194596D01*
X0205384Y0193937D01*
X0205276Y0193253D01*
X0205276Y0190307D01*
X0205276Y0187361D01*
X0205384Y0186677D01*
X0205598Y0186018D01*
X0205912Y0185401D01*
X0206319Y0184841D01*
X0205476Y0186392D02*
X0203875Y0186392D01*
X0204076Y0187991D02*
X0205276Y0187991D01*
X0205276Y0189589D02*
X0204076Y0189589D01*
X0205276Y0190307D02*
X0209675Y0190307D01*
X0209675Y0190307D01*
X0205276Y0190307D01*
X0205276Y0191188D02*
X0204076Y0191188D01*
X0204076Y0192787D02*
X0205276Y0192787D01*
X0205529Y0194385D02*
X0203822Y0194385D01*
X0202822Y0195984D02*
X0206529Y0195984D01*
X0209676Y0195984D02*
X0209676Y0195984D01*
X0209676Y0194385D02*
X0209676Y0194385D01*
X0209676Y0192787D02*
X0209676Y0192787D01*
X0209676Y0191188D02*
X0209676Y0191188D01*
X0209676Y0189589D02*
X0209676Y0189589D01*
X0209676Y0187991D02*
X0209676Y0187991D01*
X0209676Y0186392D02*
X0209676Y0186392D01*
X0209676Y0184794D02*
X0209676Y0184794D01*
X0214190Y0179998D02*
X0173161Y0179998D01*
X0174760Y0178400D02*
X0212591Y0178400D01*
X0210993Y0176801D02*
X0176358Y0176801D01*
X0177957Y0175203D02*
X0209394Y0175203D01*
X0207796Y0173604D02*
X0179555Y0173604D01*
X0181154Y0172006D02*
X0206197Y0172006D01*
X0215788Y0181597D02*
X0171563Y0181597D01*
X0161270Y0170407D02*
X0096735Y0170407D01*
X0095589Y0168809D02*
X0159672Y0168809D01*
X0159076Y0167210D02*
X0093232Y0167210D01*
X0084496Y0160816D02*
X0081276Y0160816D01*
X0081276Y0159218D02*
X0082515Y0159218D01*
X0081807Y0157619D02*
X0081276Y0157619D01*
X0081276Y0156021D02*
X0081676Y0156021D01*
X0082044Y0154422D02*
X0081276Y0154422D01*
X0081276Y0152824D02*
X0083088Y0152824D01*
X0081276Y0151225D02*
X0113076Y0151225D01*
X0113851Y0149627D02*
X0081276Y0149627D01*
X0081276Y0148028D02*
X0115449Y0148028D01*
X0119028Y0146430D02*
X0081276Y0146430D01*
X0081276Y0144831D02*
X0120626Y0144831D01*
X0122225Y0143233D02*
X0081276Y0143233D01*
X0081276Y0141634D02*
X0115497Y0141634D01*
X0115770Y0141907D02*
X0113076Y0139212D01*
X0113076Y0135402D01*
X0115770Y0132707D01*
X0119581Y0132707D01*
X0122276Y0135402D01*
X0122276Y0139212D01*
X0119581Y0141907D01*
X0115770Y0141907D01*
X0113899Y0140036D02*
X0081276Y0140036D01*
X0081276Y0138437D02*
X0113076Y0138437D01*
X0113076Y0136839D02*
X0081276Y0136839D01*
X0081276Y0135240D02*
X0113237Y0135240D01*
X0114836Y0133642D02*
X0105846Y0133642D01*
X0104581Y0134907D02*
X0107276Y0132212D01*
X0107276Y0128402D01*
X0104581Y0125707D01*
X0100770Y0125707D01*
X0098076Y0128402D01*
X0098076Y0132212D01*
X0100770Y0134907D01*
X0104581Y0134907D01*
X0107276Y0132043D02*
X0133414Y0132043D01*
X0131816Y0133642D02*
X0120515Y0133642D01*
X0122114Y0135240D02*
X0130217Y0135240D01*
X0128619Y0136839D02*
X0122276Y0136839D01*
X0122276Y0138437D02*
X0127020Y0138437D01*
X0125422Y0140036D02*
X0121452Y0140036D01*
X0119854Y0141634D02*
X0123823Y0141634D01*
X0129677Y0144831D02*
X0150174Y0144831D01*
X0148576Y0143233D02*
X0131275Y0143233D01*
X0132874Y0141634D02*
X0146977Y0141634D01*
X0145379Y0140036D02*
X0134473Y0140036D01*
X0136071Y0138437D02*
X0143780Y0138437D01*
X0142182Y0136839D02*
X0137670Y0136839D01*
X0139268Y0135240D02*
X0140583Y0135240D01*
X0135013Y0130445D02*
X0107276Y0130445D01*
X0107276Y0128846D02*
X0136476Y0128846D01*
X0136476Y0127248D02*
X0106121Y0127248D01*
X0113076Y0123212D02*
X0113076Y0119402D01*
X0115770Y0116707D01*
X0119581Y0116707D01*
X0122276Y0119402D01*
X0122276Y0123212D01*
X0119581Y0125907D01*
X0115770Y0125907D01*
X0113076Y0123212D01*
X0113076Y0122452D02*
X0081276Y0122452D01*
X0081276Y0120853D02*
X0113076Y0120853D01*
X0113222Y0119255D02*
X0081276Y0119255D01*
X0081276Y0117656D02*
X0114821Y0117656D01*
X0120530Y0117656D02*
X0136476Y0117656D01*
X0136476Y0116058D02*
X0081276Y0116058D01*
X0081276Y0114459D02*
X0136476Y0114459D01*
X0136476Y0112861D02*
X0081276Y0112861D01*
X0081276Y0111262D02*
X0136476Y0111262D01*
X0136476Y0109664D02*
X0081276Y0109664D01*
X0081276Y0108065D02*
X0136476Y0108065D01*
X0136476Y0106467D02*
X0081276Y0106467D01*
X0081276Y0104868D02*
X0136476Y0104868D01*
X0136476Y0103270D02*
X0105218Y0103270D01*
X0106817Y0101671D02*
X0136476Y0101671D01*
X0136476Y0100073D02*
X0107276Y0100073D01*
X0107276Y0098474D02*
X0136476Y0098474D01*
X0136476Y0096876D02*
X0132298Y0096876D01*
X0133897Y0095277D02*
X0135454Y0095277D01*
X0135298Y0093679D02*
X0134054Y0093679D01*
X0134054Y0092080D02*
X0135298Y0092080D01*
X0142617Y0085686D02*
X0081276Y0085686D01*
X0081276Y0084088D02*
X0142476Y0084088D01*
X0142476Y0082489D02*
X0081276Y0082489D01*
X0081276Y0080891D02*
X0112699Y0080891D01*
X0110613Y0079292D02*
X0081276Y0079292D01*
X0081276Y0077694D02*
X0109862Y0077694D01*
X0109699Y0076095D02*
X0081276Y0076095D01*
X0081276Y0074497D02*
X0109699Y0074497D01*
X0109699Y0072898D02*
X0081276Y0072898D01*
X0081276Y0071300D02*
X0109699Y0071300D01*
X0109699Y0069701D02*
X0081276Y0069701D01*
X0081276Y0068103D02*
X0110200Y0068103D01*
X0111431Y0066504D02*
X0081276Y0066504D01*
X0081276Y0087285D02*
X0105021Y0087285D01*
X0103422Y0088883D02*
X0081276Y0088883D01*
X0081276Y0090482D02*
X0101824Y0090482D01*
X0100225Y0092080D02*
X0081276Y0092080D01*
X0081276Y0093679D02*
X0098627Y0093679D01*
X0097028Y0095277D02*
X0095151Y0095277D01*
X0090200Y0095277D02*
X0081276Y0095277D01*
X0081276Y0096876D02*
X0088601Y0096876D01*
X0088076Y0098474D02*
X0081276Y0098474D01*
X0081276Y0100073D02*
X0088076Y0100073D01*
X0088534Y0101671D02*
X0081276Y0101671D01*
X0081276Y0103270D02*
X0090133Y0103270D01*
X0095218Y0103270D02*
X0100133Y0103270D01*
X0098534Y0101671D02*
X0097762Y0101671D01*
X0105151Y0095277D02*
X0115737Y0095277D01*
X0115498Y0093679D02*
X0105981Y0093679D01*
X0107579Y0092080D02*
X0115498Y0092080D01*
X0115498Y0093307D02*
X0119675Y0093307D01*
X0119675Y0093307D01*
X0115498Y0093307D01*
X0119676Y0093679D02*
X0119676Y0093679D01*
X0119676Y0095277D02*
X0119676Y0095277D01*
X0119676Y0096876D02*
X0119676Y0096876D01*
X0122015Y0096876D02*
X0127053Y0096876D01*
X0125454Y0095277D02*
X0123614Y0095277D01*
X0123854Y0093679D02*
X0125298Y0093679D01*
X0125298Y0092080D02*
X0123854Y0092080D01*
X0117336Y0096876D02*
X0106750Y0096876D01*
X0116699Y0080891D02*
X0122699Y0080891D01*
X0120613Y0079292D02*
X0118785Y0079292D01*
X0119537Y0077694D02*
X0119862Y0077694D01*
X0119699Y0077302D02*
X0119699Y0069313D01*
X0119699Y0077302D01*
X0119699Y0076095D02*
X0119699Y0076095D01*
X0119699Y0074497D02*
X0119699Y0074497D01*
X0119699Y0072898D02*
X0119699Y0072898D01*
X0119699Y0071300D02*
X0119699Y0071300D01*
X0119699Y0069701D02*
X0119699Y0069701D01*
X0119699Y0069313D02*
X0118938Y0067475D01*
X0117770Y0066307D01*
X0121628Y0066307D01*
X0120460Y0067475D01*
X0119699Y0069313D01*
X0119198Y0068103D02*
X0120200Y0068103D01*
X0121431Y0066504D02*
X0117967Y0066504D01*
X0127770Y0066307D02*
X0128938Y0067475D01*
X0129699Y0069313D01*
X0129699Y0077302D01*
X0129699Y0069313D01*
X0130460Y0067475D01*
X0131628Y0066307D01*
X0127770Y0066307D01*
X0127967Y0066504D02*
X0131431Y0066504D01*
X0130200Y0068103D02*
X0129198Y0068103D01*
X0129699Y0069701D02*
X0129699Y0069701D01*
X0129699Y0071300D02*
X0129699Y0071300D01*
X0129699Y0072898D02*
X0129699Y0072898D01*
X0129699Y0074497D02*
X0129699Y0074497D01*
X0129699Y0076095D02*
X0129699Y0076095D01*
X0129537Y0077694D02*
X0129862Y0077694D01*
X0130613Y0079292D02*
X0128785Y0079292D01*
X0126699Y0080891D02*
X0132699Y0080891D01*
X0136699Y0080891D02*
X0142476Y0080891D01*
X0140613Y0079292D02*
X0138785Y0079292D01*
X0139537Y0077694D02*
X0139862Y0077694D01*
X0139699Y0077302D02*
X0139699Y0069313D01*
X0139699Y0077302D01*
X0139699Y0076095D02*
X0139699Y0076095D01*
X0139699Y0074497D02*
X0139699Y0074497D01*
X0139699Y0072898D02*
X0139699Y0072898D01*
X0139699Y0071300D02*
X0139699Y0071300D01*
X0139699Y0069701D02*
X0139699Y0069701D01*
X0139699Y0069313D02*
X0138938Y0067475D01*
X0137770Y0066307D01*
X0141628Y0066307D01*
X0140460Y0067475D01*
X0139699Y0069313D01*
X0139198Y0068103D02*
X0140200Y0068103D01*
X0141431Y0066504D02*
X0137967Y0066504D01*
X0147770Y0066307D02*
X0148938Y0067475D01*
X0149699Y0069313D01*
X0149699Y0077302D01*
X0148938Y0079139D01*
X0147876Y0080202D01*
X0147876Y0083689D01*
X0157076Y0092889D01*
X0157076Y0091402D01*
X0159770Y0088707D01*
X0163581Y0088707D01*
X0165581Y0090707D01*
X0173599Y0090707D01*
X0189676Y0074630D01*
X0189676Y0069313D01*
X0190437Y0067475D01*
X0191605Y0066307D01*
X0177770Y0066307D01*
X0178938Y0067475D01*
X0179699Y0069313D01*
X0179699Y0077302D01*
X0178938Y0079139D01*
X0177531Y0080546D01*
X0175694Y0081307D01*
X0173705Y0081307D01*
X0171867Y0080546D01*
X0170460Y0079139D01*
X0169699Y0077302D01*
X0169699Y0069313D01*
X0170460Y0067475D01*
X0171628Y0066307D01*
X0167360Y0066307D01*
X0167826Y0066646D01*
X0168360Y0067180D01*
X0168805Y0067791D01*
X0169148Y0068465D01*
X0169381Y0069183D01*
X0169499Y0069929D01*
X0169499Y0073107D01*
X0164899Y0073107D01*
X0164899Y0073507D01*
X0164499Y0073507D01*
X0164499Y0073107D01*
X0159899Y0073107D01*
X0159899Y0069929D01*
X0160017Y0069183D01*
X0160251Y0068465D01*
X0160594Y0067791D01*
X0161038Y0067180D01*
X0161572Y0066646D01*
X0162039Y0066307D01*
X0157360Y0066307D01*
X0157826Y0066646D01*
X0158360Y0067180D01*
X0158805Y0067791D01*
X0159148Y0068465D01*
X0159381Y0069183D01*
X0159499Y0069929D01*
X0159499Y0073107D01*
X0154899Y0073107D01*
X0154899Y0073507D01*
X0154499Y0073507D01*
X0154499Y0073107D01*
X0149899Y0073107D01*
X0149899Y0069929D01*
X0150017Y0069183D01*
X0150251Y0068465D01*
X0150594Y0067791D01*
X0151038Y0067180D01*
X0151572Y0066646D01*
X0152039Y0066307D01*
X0147770Y0066307D01*
X0147967Y0066504D02*
X0151767Y0066504D01*
X0150435Y0068103D02*
X0149198Y0068103D01*
X0149699Y0069701D02*
X0149935Y0069701D01*
X0149899Y0071300D02*
X0149699Y0071300D01*
X0149699Y0072898D02*
X0149899Y0072898D01*
X0149899Y0073507D02*
X0154499Y0073507D01*
X0154499Y0081107D01*
X0154321Y0081107D01*
X0153575Y0080989D01*
X0152857Y0080755D01*
X0152183Y0080412D01*
X0151572Y0079968D01*
X0151038Y0079434D01*
X0150594Y0078823D01*
X0150251Y0078150D01*
X0150017Y0077431D01*
X0149899Y0076685D01*
X0149899Y0073507D01*
X0149899Y0074497D02*
X0149699Y0074497D01*
X0149699Y0076095D02*
X0149899Y0076095D01*
X0150103Y0077694D02*
X0149537Y0077694D01*
X0148785Y0079292D02*
X0150935Y0079292D01*
X0153273Y0080891D02*
X0147876Y0080891D01*
X0147876Y0082489D02*
X0181816Y0082489D01*
X0180218Y0084088D02*
X0148275Y0084088D01*
X0149873Y0085686D02*
X0178619Y0085686D01*
X0177021Y0087285D02*
X0151472Y0087285D01*
X0153070Y0088883D02*
X0159594Y0088883D01*
X0157996Y0090482D02*
X0154669Y0090482D01*
X0156267Y0092080D02*
X0157076Y0092080D01*
X0163757Y0088883D02*
X0175422Y0088883D01*
X0173824Y0090482D02*
X0165356Y0090482D01*
X0165077Y0081107D02*
X0164899Y0081107D01*
X0164899Y0073507D01*
X0169499Y0073507D01*
X0169499Y0076685D01*
X0169381Y0077431D01*
X0169148Y0078150D01*
X0168805Y0078823D01*
X0168360Y0079434D01*
X0167826Y0079968D01*
X0167215Y0080412D01*
X0166542Y0080755D01*
X0165823Y0080989D01*
X0165077Y0081107D01*
X0164899Y0080891D02*
X0164499Y0080891D01*
X0164499Y0081107D02*
X0164321Y0081107D01*
X0163575Y0080989D01*
X0162857Y0080755D01*
X0162183Y0080412D01*
X0161572Y0079968D01*
X0161038Y0079434D01*
X0160594Y0078823D01*
X0160251Y0078150D01*
X0160017Y0077431D01*
X0159899Y0076685D01*
X0159899Y0073507D01*
X0164499Y0073507D01*
X0164499Y0081107D01*
X0163273Y0080891D02*
X0156125Y0080891D01*
X0155823Y0080989D02*
X0155077Y0081107D01*
X0154899Y0081107D01*
X0154899Y0073507D01*
X0159499Y0073507D01*
X0159499Y0076685D01*
X0159381Y0077431D01*
X0159148Y0078150D01*
X0158805Y0078823D01*
X0158360Y0079434D01*
X0157826Y0079968D01*
X0157215Y0080412D01*
X0156542Y0080755D01*
X0155823Y0080989D01*
X0154899Y0080891D02*
X0154499Y0080891D01*
X0154499Y0079292D02*
X0154899Y0079292D01*
X0154899Y0077694D02*
X0154499Y0077694D01*
X0154499Y0076095D02*
X0154899Y0076095D01*
X0154899Y0074497D02*
X0154499Y0074497D01*
X0159499Y0074497D02*
X0159899Y0074497D01*
X0159899Y0076095D02*
X0159499Y0076095D01*
X0159296Y0077694D02*
X0160103Y0077694D01*
X0160935Y0079292D02*
X0158464Y0079292D01*
X0164499Y0079292D02*
X0164899Y0079292D01*
X0164899Y0077694D02*
X0164499Y0077694D01*
X0164499Y0076095D02*
X0164899Y0076095D01*
X0164899Y0074497D02*
X0164499Y0074497D01*
X0168464Y0079292D02*
X0170613Y0079292D01*
X0169862Y0077694D02*
X0169296Y0077694D01*
X0169499Y0076095D02*
X0169699Y0076095D01*
X0169699Y0074497D02*
X0169499Y0074497D01*
X0169499Y0072898D02*
X0169699Y0072898D01*
X0169699Y0071300D02*
X0169499Y0071300D01*
X0169463Y0069701D02*
X0169699Y0069701D01*
X0170200Y0068103D02*
X0168963Y0068103D01*
X0167631Y0066504D02*
X0171431Y0066504D01*
X0177967Y0066504D02*
X0191407Y0066504D01*
X0190177Y0068103D02*
X0179198Y0068103D01*
X0179699Y0069701D02*
X0189676Y0069701D01*
X0189676Y0071300D02*
X0179699Y0071300D01*
X0179699Y0072898D02*
X0189676Y0072898D01*
X0189676Y0074497D02*
X0179699Y0074497D01*
X0179699Y0076095D02*
X0188211Y0076095D01*
X0186612Y0077694D02*
X0179537Y0077694D01*
X0178785Y0079292D02*
X0185014Y0079292D01*
X0183415Y0080891D02*
X0176699Y0080891D01*
X0172699Y0080891D02*
X0166125Y0080891D01*
X0159899Y0072898D02*
X0159499Y0072898D01*
X0159499Y0071300D02*
X0159899Y0071300D01*
X0159935Y0069701D02*
X0159463Y0069701D01*
X0158963Y0068103D02*
X0160435Y0068103D01*
X0161767Y0066504D02*
X0157631Y0066504D01*
X0181178Y0090482D02*
X0187996Y0090482D01*
X0187076Y0091402D02*
X0189770Y0088707D01*
X0193581Y0088707D01*
X0196276Y0091402D01*
X0196276Y0095212D01*
X0193581Y0097907D01*
X0189770Y0097907D01*
X0187076Y0095212D01*
X0187076Y0091402D01*
X0187076Y0092080D02*
X0179579Y0092080D01*
X0177981Y0093679D02*
X0187076Y0093679D01*
X0187140Y0095277D02*
X0176382Y0095277D01*
X0174276Y0096876D02*
X0188739Y0096876D01*
X0194612Y0096876D02*
X0201739Y0096876D01*
X0202770Y0097907D02*
X0200076Y0095212D01*
X0200076Y0091402D01*
X0202770Y0088707D01*
X0206581Y0088707D01*
X0209276Y0091402D01*
X0209276Y0095212D01*
X0206581Y0097907D01*
X0202770Y0097907D01*
X0200140Y0095277D02*
X0196211Y0095277D01*
X0196276Y0093679D02*
X0200076Y0093679D01*
X0200076Y0092080D02*
X0196276Y0092080D01*
X0195356Y0090482D02*
X0200996Y0090482D01*
X0202594Y0088883D02*
X0193757Y0088883D01*
X0189594Y0088883D02*
X0182776Y0088883D01*
X0184375Y0087285D02*
X0252176Y0087285D01*
X0252176Y0088883D02*
X0246757Y0088883D01*
X0248356Y0090482D02*
X0252176Y0090482D01*
X0252176Y0092080D02*
X0249276Y0092080D01*
X0249276Y0093679D02*
X0252176Y0093679D01*
X0252176Y0095277D02*
X0249211Y0095277D01*
X0247612Y0096876D02*
X0252176Y0096876D01*
X0252176Y0098474D02*
X0218034Y0098474D01*
X0219632Y0096876D02*
X0241739Y0096876D01*
X0242594Y0088883D02*
X0206757Y0088883D01*
X0208356Y0090482D02*
X0217134Y0090482D01*
X0215377Y0092080D02*
X0209276Y0092080D01*
X0209276Y0093679D02*
X0213778Y0093679D01*
X0212180Y0095277D02*
X0209211Y0095277D01*
X0210581Y0096876D02*
X0207612Y0096876D01*
X0208983Y0098474D02*
X0174276Y0098474D01*
X0174276Y0100073D02*
X0207384Y0100073D01*
X0205786Y0101671D02*
X0174276Y0101671D01*
X0174276Y0103270D02*
X0189207Y0103270D01*
X0187609Y0104868D02*
X0174276Y0104868D01*
X0174276Y0106467D02*
X0187076Y0106467D01*
X0187076Y0108065D02*
X0174276Y0108065D01*
X0174276Y0109664D02*
X0187527Y0109664D01*
X0189126Y0111262D02*
X0174276Y0111262D01*
X0194144Y0103270D02*
X0204187Y0103270D01*
X0202589Y0104868D02*
X0195742Y0104868D01*
X0196276Y0106467D02*
X0200990Y0106467D01*
X0211640Y0104868D02*
X0252176Y0104868D01*
X0252176Y0103270D02*
X0213238Y0103270D01*
X0214837Y0101671D02*
X0252176Y0101671D01*
X0252176Y0100073D02*
X0216435Y0100073D01*
X0215879Y0106467D02*
X0213472Y0106467D01*
X0223472Y0106467D02*
X0225879Y0106467D01*
X0233472Y0106467D02*
X0236162Y0106467D01*
X0239676Y0106467D02*
X0239676Y0106467D01*
X0239676Y0108065D02*
X0239676Y0108065D01*
X0239676Y0109664D02*
X0239676Y0109664D01*
X0239676Y0111262D02*
X0239676Y0111262D01*
X0239676Y0112861D02*
X0239676Y0112861D01*
X0239676Y0114459D02*
X0239676Y0114459D01*
X0242877Y0114459D02*
X0252176Y0114459D01*
X0252176Y0112861D02*
X0244476Y0112861D01*
X0244876Y0111262D02*
X0252176Y0111262D01*
X0252176Y0109664D02*
X0244876Y0109664D01*
X0244788Y0108065D02*
X0252176Y0108065D01*
X0252176Y0106467D02*
X0243189Y0106467D01*
X0236474Y0114459D02*
X0233160Y0114459D01*
X0234758Y0112861D02*
X0234876Y0112861D01*
X0226191Y0114459D02*
X0223160Y0114459D01*
X0222276Y0116058D02*
X0252176Y0116058D01*
X0252176Y0117656D02*
X0222276Y0117656D01*
X0222276Y0119255D02*
X0252176Y0119255D01*
X0252176Y0120853D02*
X0222276Y0120853D01*
X0222276Y0122452D02*
X0252176Y0122452D01*
X0252176Y0124051D02*
X0222276Y0124051D01*
X0222276Y0125649D02*
X0252176Y0125649D01*
X0252176Y0127248D02*
X0222276Y0127248D01*
X0222276Y0128846D02*
X0252176Y0128846D01*
X0252176Y0130445D02*
X0222276Y0130445D01*
X0222276Y0132043D02*
X0252176Y0132043D01*
X0252176Y0133642D02*
X0222276Y0133642D01*
X0222245Y0135240D02*
X0227106Y0135240D01*
X0225507Y0136839D02*
X0223844Y0136839D01*
X0232245Y0135240D02*
X0237106Y0135240D01*
X0235507Y0136839D02*
X0233844Y0136839D01*
X0234387Y0143233D02*
X0234964Y0143233D01*
X0236563Y0144831D02*
X0232788Y0144831D01*
X0232276Y0146430D02*
X0252176Y0146430D01*
X0252176Y0148028D02*
X0232276Y0148028D01*
X0232276Y0149627D02*
X0252176Y0149627D01*
X0252176Y0151225D02*
X0232771Y0151225D01*
X0234369Y0152824D02*
X0252176Y0152824D01*
X0252176Y0154422D02*
X0242896Y0154422D01*
X0243956Y0156021D02*
X0252176Y0156021D01*
X0252176Y0157619D02*
X0244276Y0157619D01*
X0244276Y0159218D02*
X0252176Y0159218D01*
X0252176Y0160816D02*
X0244276Y0160816D01*
X0244276Y0162415D02*
X0252176Y0162415D01*
X0252176Y0164013D02*
X0244196Y0164013D01*
X0243476Y0165612D02*
X0252176Y0165612D01*
X0252176Y0167210D02*
X0241307Y0167210D01*
X0238276Y0168809D02*
X0252176Y0168809D01*
X0252176Y0170407D02*
X0238276Y0170407D01*
X0238276Y0172006D02*
X0252176Y0172006D01*
X0252176Y0173604D02*
X0238276Y0173604D01*
X0238276Y0175203D02*
X0252176Y0175203D01*
X0252176Y0176801D02*
X0238276Y0176801D01*
X0238276Y0178400D02*
X0252176Y0178400D01*
X0252176Y0179998D02*
X0238276Y0179998D01*
X0238276Y0181597D02*
X0252176Y0181597D01*
X0252176Y0183195D02*
X0240804Y0183195D01*
X0238547Y0183195D02*
X0238276Y0183195D01*
X0243268Y0184794D02*
X0252176Y0184794D01*
X0252176Y0186392D02*
X0244110Y0186392D01*
X0244276Y0187991D02*
X0252176Y0187991D01*
X0252176Y0189589D02*
X0244276Y0189589D01*
X0244276Y0191188D02*
X0252176Y0191188D01*
X0252176Y0192787D02*
X0244276Y0192787D01*
X0244042Y0194385D02*
X0252176Y0194385D01*
X0252176Y0195984D02*
X0243105Y0195984D01*
X0236078Y0197582D02*
X0252176Y0197582D01*
X0252176Y0199181D02*
X0234479Y0199181D01*
X0215076Y0210370D02*
X0214789Y0210370D01*
X0215076Y0211969D02*
X0214276Y0211969D01*
X0214276Y0213567D02*
X0215076Y0213567D01*
X0215632Y0215166D02*
X0213719Y0215166D01*
X0212324Y0216764D02*
X0217027Y0216764D01*
X0204837Y0211969D02*
X0204276Y0211969D01*
X0204276Y0210370D02*
X0205076Y0210370D01*
X0205076Y0208772D02*
X0204276Y0208772D01*
X0204276Y0207173D02*
X0205076Y0207173D01*
X0205580Y0205575D02*
X0203771Y0205575D01*
X0202450Y0203976D02*
X0206901Y0203976D01*
X0212450Y0203976D02*
X0213830Y0203976D01*
X0187599Y0170407D02*
X0182241Y0170407D01*
X0182276Y0168809D02*
X0186000Y0168809D01*
X0184402Y0167210D02*
X0182276Y0167210D01*
X0136476Y0125649D02*
X0119839Y0125649D01*
X0121438Y0124051D02*
X0136476Y0124051D01*
X0136476Y0122452D02*
X0122276Y0122452D01*
X0122276Y0120853D02*
X0136476Y0120853D01*
X0136476Y0119255D02*
X0122129Y0119255D01*
X0115512Y0125649D02*
X0081276Y0125649D01*
X0081276Y0124051D02*
X0113914Y0124051D01*
X0099230Y0127248D02*
X0096121Y0127248D01*
X0097276Y0128402D02*
X0094581Y0125707D01*
X0090770Y0125707D01*
X0088076Y0128402D01*
X0088076Y0132212D01*
X0090770Y0134907D01*
X0094581Y0134907D01*
X0097276Y0132212D01*
X0097276Y0128402D01*
X0097276Y0128846D02*
X0098076Y0128846D01*
X0098076Y0130445D02*
X0097276Y0130445D01*
X0097276Y0132043D02*
X0098076Y0132043D01*
X0099505Y0133642D02*
X0095846Y0133642D01*
X0089505Y0133642D02*
X0081276Y0133642D01*
X0081276Y0132043D02*
X0088076Y0132043D01*
X0088076Y0130445D02*
X0081276Y0130445D01*
X0081276Y0128846D02*
X0088076Y0128846D01*
X0089230Y0127248D02*
X0081276Y0127248D01*
X0081276Y0192787D02*
X0087632Y0192787D01*
X0085493Y0194385D02*
X0081276Y0194385D01*
X0081276Y0195984D02*
X0084391Y0195984D01*
X0083729Y0197582D02*
X0081276Y0197582D01*
X0081276Y0199181D02*
X0083676Y0199181D01*
X0083793Y0200779D02*
X0081276Y0200779D01*
X0081276Y0202378D02*
X0084455Y0202378D01*
X0085650Y0203976D02*
X0081276Y0203976D01*
X0146276Y0247136D02*
X0147864Y0247136D01*
X0151487Y0247136D02*
X0157864Y0247136D01*
X0155801Y0245537D02*
X0153551Y0245537D01*
X0154227Y0243939D02*
X0155124Y0243939D01*
X0155076Y0242340D02*
X0154276Y0242340D01*
X0154276Y0240742D02*
X0155076Y0240742D01*
X0155076Y0239143D02*
X0154276Y0239143D01*
X0154276Y0237545D02*
X0155076Y0237545D01*
X0155426Y0235946D02*
X0153925Y0235946D01*
X0152822Y0234348D02*
X0156529Y0234348D01*
X0235968Y0154422D02*
X0236455Y0154422D01*
X0242788Y0144831D02*
X0252176Y0144831D01*
X0252176Y0143233D02*
X0244387Y0143233D01*
X0245076Y0141634D02*
X0252176Y0141634D01*
X0252176Y0140036D02*
X0245076Y0140036D01*
X0245076Y0138437D02*
X0252176Y0138437D01*
X0252176Y0136839D02*
X0243844Y0136839D01*
X0242245Y0135240D02*
X0252176Y0135240D01*
X0252176Y0085686D02*
X0185973Y0085686D01*
X0187572Y0084088D02*
X0252176Y0084088D01*
X0252176Y0082489D02*
X0189170Y0082489D01*
X0190769Y0080891D02*
X0192676Y0080891D01*
X0196675Y0080891D02*
X0202676Y0080891D01*
X0200590Y0079292D02*
X0198762Y0079292D01*
X0199513Y0077694D02*
X0199838Y0077694D01*
X0199676Y0076095D02*
X0199676Y0076095D01*
X0199676Y0074497D02*
X0199676Y0074497D01*
X0199676Y0072898D02*
X0199676Y0072898D01*
X0199676Y0071300D02*
X0199676Y0071300D01*
X0199676Y0069701D02*
X0199676Y0069701D01*
X0199174Y0068103D02*
X0200177Y0068103D01*
X0201407Y0066504D02*
X0197944Y0066504D01*
X0207944Y0066504D02*
X0211407Y0066504D01*
X0210177Y0068103D02*
X0209174Y0068103D01*
X0209676Y0069701D02*
X0209676Y0069701D01*
X0209676Y0071300D02*
X0209676Y0071300D01*
X0209676Y0072898D02*
X0209676Y0072898D01*
X0209676Y0074497D02*
X0209676Y0074497D01*
X0209676Y0076095D02*
X0209676Y0076095D01*
X0209513Y0077694D02*
X0209838Y0077694D01*
X0210590Y0079292D02*
X0208762Y0079292D01*
X0206675Y0080891D02*
X0212676Y0080891D01*
X0216675Y0080891D02*
X0222676Y0080891D01*
X0220590Y0079292D02*
X0218762Y0079292D01*
X0219513Y0077694D02*
X0219838Y0077694D01*
X0219676Y0076095D02*
X0219676Y0076095D01*
X0219676Y0074497D02*
X0219676Y0074497D01*
X0219676Y0072898D02*
X0219676Y0072898D01*
X0219676Y0071300D02*
X0219676Y0071300D01*
X0219676Y0069701D02*
X0219676Y0069701D01*
X0219174Y0068103D02*
X0220177Y0068103D01*
X0221407Y0066504D02*
X0217944Y0066504D01*
X0227944Y0066504D02*
X0231407Y0066504D01*
X0230177Y0068103D02*
X0229174Y0068103D01*
X0229676Y0069701D02*
X0229676Y0069701D01*
X0229676Y0071300D02*
X0229676Y0071300D01*
X0229676Y0072898D02*
X0229676Y0072898D01*
X0229676Y0074497D02*
X0229676Y0074497D01*
X0229676Y0076095D02*
X0229676Y0076095D01*
X0229513Y0077694D02*
X0229838Y0077694D01*
X0230590Y0079292D02*
X0228762Y0079292D01*
X0226675Y0080891D02*
X0232676Y0080891D01*
X0236675Y0080891D02*
X0242676Y0080891D01*
X0240590Y0079292D02*
X0238762Y0079292D01*
X0239513Y0077694D02*
X0239838Y0077694D01*
X0239676Y0076095D02*
X0239676Y0076095D01*
X0239676Y0074497D02*
X0239676Y0074497D01*
X0239676Y0072898D02*
X0239676Y0072898D01*
X0239676Y0071300D02*
X0239676Y0071300D01*
X0239676Y0069701D02*
X0239676Y0069701D01*
X0239174Y0068103D02*
X0240177Y0068103D01*
X0241407Y0066504D02*
X0237944Y0066504D01*
X0247944Y0066504D02*
X0252176Y0066504D01*
X0252176Y0068103D02*
X0249174Y0068103D01*
X0249676Y0069701D02*
X0252176Y0069701D01*
X0252176Y0071300D02*
X0249676Y0071300D01*
X0249676Y0072898D02*
X0252176Y0072898D01*
X0252176Y0074497D02*
X0249676Y0074497D01*
X0249676Y0076095D02*
X0252176Y0076095D01*
X0252176Y0077694D02*
X0249513Y0077694D01*
X0248762Y0079292D02*
X0252176Y0079292D01*
X0252176Y0080891D02*
X0246675Y0080891D01*
D19*
X0167676Y0107307D02*
X0167676Y0121307D01*
X0167676Y0107307D02*
X0145176Y0084807D01*
X0145176Y0073307D01*
X0144699Y0073307D01*
D20*
X0139676Y0093307D02*
X0139676Y0130307D01*
X0140676Y0130807D01*
X0152176Y0142307D01*
X0169676Y0142307D01*
X0218676Y0093307D01*
X0244676Y0093307D01*
X0209676Y0110307D02*
X0209676Y0132307D01*
X0200176Y0141807D01*
X0200176Y0149307D01*
X0199676Y0150307D01*
X0169676Y0150307D01*
X0167676Y0152307D01*
X0139676Y0130307D02*
X0117676Y0152307D01*
X0116676Y0152807D01*
X0113176Y0156307D01*
X0089676Y0156307D01*
X0199676Y0150307D02*
X0209676Y0160307D01*
M02*
